<svg width="87" height="80" viewBox="0 0 87 80" fill="none" xmlns="http://www.w3.org/2000/svg">
<path d="M8.07898 45.4607L10.398 29.1156C10.398 29.1156 11.306 23.9386 19.229 25.0156C20.0317 25.0819 20.7844 25.4322 21.352 26.0036L33 38.9696H44.94L42.04 45.4607H26.97L19.087 36.1866" stroke="white" stroke-width="2.782" stroke-linecap="round" stroke-linejoin="round"/>
<path d="M81.512 45.4609H20.539" stroke="white" stroke-width="2.782" stroke-linecap="round" stroke-linejoin="round"/>
<path d="M35.013 33.1714L42.413 22.8564H65.538L55.057 40.6564H48.876" stroke="white" stroke-width="2.782" stroke-linecap="round" stroke-linejoin="round"/>
<path d="M22.286 19.3636C26.4204 19.3636 29.772 15.3494 29.772 10.3976C29.772 5.44586 26.4204 1.43164 22.286 1.43164C18.1516 1.43164 14.8 5.44586 14.8 10.3976C14.8 15.3494 18.1516 19.3636 22.286 19.3636Z" stroke="white" stroke-width="2.782" stroke-linecap="round" stroke-linejoin="round"/>
<path d="M24.283 66.5992V78.3282H2.15601V56.1992H18.543" stroke="white" stroke-width="2.782" stroke-linecap="round" stroke-linejoin="round"/>
<path d="M8.56097 65.8463L13.219 70.5873L26.511 56.7793" stroke="#73AA1A" stroke-width="2.6" stroke-linecap="round" stroke-linejoin="round"/>
<path d="M54.894 66.5992V78.3282H32.767V56.1992H49.154" stroke="white" stroke-width="2.782" stroke-linecap="round" stroke-linejoin="round"/>
<path d="M39.172 65.8463L43.83 70.5873L57.122 56.7793" stroke="#73AA1A" stroke-width="2.6" stroke-linecap="round" stroke-linejoin="round"/>
<path d="M85.506 56.1973H63.379V78.3243H85.506V56.1973Z" stroke="white" stroke-width="2.782" stroke-linecap="round" stroke-linejoin="round"/>
</svg>
