<svg width="95" height="88" viewBox="0 0 95 88" fill="none" xmlns="http://www.w3.org/2000/svg">
<path d="M47.963 13.3623H62.863C64.2489 13.3614 65.6213 13.6349 66.9009 14.1669C68.1806 14.699 69.3423 15.4791 70.319 16.4623L92.277 38.5813" stroke="white" stroke-width="3.551" stroke-linecap="round" stroke-linejoin="round"/>
<path d="M45.133 31.4316C46.7387 34.6844 49.1179 37.4935 52.062 39.6126C55.297 41.9476 61.093 41.8876 61.093 41.8876H74.943" stroke="white" stroke-width="3.551" stroke-linecap="round" stroke-linejoin="round"/>
<path d="M92.278 63.6253L70.907 41.9473" stroke="white" stroke-width="3.551" stroke-linecap="round" stroke-linejoin="round"/>
<path d="M29.265 40.1396V52.3386" stroke="white" stroke-width="3.551" stroke-linecap="round" stroke-linejoin="round"/>
<path d="M34.161 48.1699L29.261 53.0699L24.361 48.1699" stroke="white" stroke-width="3.551" stroke-linecap="round" stroke-linejoin="round"/>
<path d="M2.57397 67.5645H15.14" stroke="white" stroke-width="3.551" stroke-linecap="round" stroke-linejoin="round"/>
<path d="M15.14 72.2421C15.14 72.2421 13.856 60.2262 26.147 59.9512H40.455C40.455 59.9512 42.473 66.2801 33.576 67.5641H25.963C25.963 67.5641 25.505 74.7182 33.668 74.9932H49.628L57.974 66.6461C57.974 66.6461 63.753 60.8681 69.256 65.7291L57.333 80.9492C56.1898 82.4084 54.7296 83.5885 53.0629 84.4C51.3962 85.2115 49.5668 85.6332 47.713 85.6331H2.94098" stroke="white" stroke-width="3.551" stroke-linecap="round" stroke-linejoin="round"/>
<path d="M40.914 74.2593L48.894 65.8213C48.894 65.8213 53.711 60.7763 58.961 65.8213" stroke="white" stroke-width="3.551" stroke-linecap="round" stroke-linejoin="round"/>
<path d="M46.965 28.4858C46.241 29.5318 45.849 30.4657 45.165 31.3627C42.5668 34.7666 38.851 37.1447 34.6719 38.0783C30.4927 39.0118 26.1182 38.4409 22.3185 36.4661C18.5189 34.4914 15.5378 31.2394 13.9002 27.2827C12.2626 23.3261 12.0735 18.9185 13.3661 14.8361C14.6587 10.7537 17.3503 7.25822 20.9667 4.96521C24.5832 2.6722 28.8928 1.72871 33.1365 2.30078C37.3803 2.87286 41.2862 4.92387 44.1664 8.09265C47.0467 11.2614 48.7165 15.3448 48.882 19.6238C48.891 19.8588 48.896 20.0958 48.896 20.3328H41.507C41.507 20.3328 40.484 26.9068 46.965 28.4858Z" fill="#287E3A"/>
<path d="M63.327 20.4248H41.464C41.464 20.4248 40.364 27.1248 47.243 27.7628H53.021C53.021 27.7628 53.755 35.0088 63.936 35.0088" stroke="white" stroke-width="3.551" stroke-linecap="round" stroke-linejoin="round"/>
<path d="M36.751 21.1744C36.471 20.382 35.9613 19.691 35.287 19.1895C34.6439 18.726 33.9208 18.3853 33.154 18.1844L30.412 17.3694H30.398C30.0593 17.2804 29.7303 17.1579 29.416 17.0035C29.2857 16.9385 29.1638 16.8579 29.053 16.7634C28.9653 16.6904 28.8984 16.5956 28.859 16.4885C28.808 16.3286 28.7857 16.1611 28.793 15.9935C28.7887 15.7989 28.8341 15.6065 28.925 15.4344C29.0844 15.1691 29.3239 14.9611 29.609 14.8405C29.9974 14.6672 30.4187 14.5802 30.844 14.5854C31.4189 14.5651 31.9893 14.6925 32.501 14.9554C32.9267 15.1952 33.2721 15.5552 33.494 15.9905C33.6225 16.2295 33.8359 16.4116 34.0921 16.501C34.3483 16.5904 34.6287 16.5806 34.878 16.4734L36.088 15.9545C36.22 15.898 36.3395 15.8159 36.4396 15.713C36.5396 15.61 36.6183 15.4882 36.6709 15.3547C36.7235 15.2211 36.7492 15.0784 36.7463 14.9349C36.7434 14.7913 36.712 14.6498 36.654 14.5184C36.2275 13.5287 35.5052 12.6952 34.586 12.1324C33.9641 11.7601 33.2829 11.4973 32.572 11.3555V9.81842C32.572 9.5304 32.4576 9.2542 32.2539 9.05054C32.0502 8.84687 31.774 8.73242 31.486 8.73242H30.35C30.0619 8.73242 29.7858 8.84687 29.5821 9.05054C29.3784 9.2542 29.264 9.5304 29.264 9.81842V11.3464C28.3001 11.5456 27.4082 12.0021 26.683 12.6675C26.2214 13.099 25.8528 13.6204 25.6 14.1995C25.3428 14.7966 25.2114 15.4403 25.214 16.0905C25.2081 16.6068 25.2775 17.1211 25.42 17.6174C25.64 18.3657 26.0767 19.0321 26.675 19.5325C27.3333 20.0585 28.0942 20.4413 28.909 20.6564C29.258 20.7674 29.809 20.9204 30.369 21.0754C30.929 21.2304 31.481 21.3855 31.749 21.4755H31.761C32.0257 21.5534 32.2841 21.6513 32.534 21.7684C32.8069 21.8852 33.0472 22.0668 33.234 22.2974C33.3069 22.3959 33.3624 22.5062 33.398 22.6235C33.4459 22.7878 33.4688 22.9583 33.466 23.1295C33.4702 23.347 33.42 23.5622 33.32 23.7554C33.1396 24.0661 32.8625 24.3091 32.531 24.4474C32.0233 24.667 31.4741 24.7742 30.921 24.7615C30.2106 24.7898 29.5077 24.6071 28.901 24.2365C28.3924 23.8904 28.011 23.3875 27.815 22.8044C27.7174 22.5372 27.5186 22.3191 27.2615 22.1971C27.0045 22.0751 26.7097 22.0591 26.441 22.1525L25.156 22.5975C24.8921 22.6893 24.6738 22.8792 24.5462 23.1278C24.4187 23.3764 24.3917 23.6645 24.471 23.9324C24.8201 25.1389 25.5647 26.1931 26.585 26.9255C27.3851 27.4888 28.3018 27.8647 29.267 28.0255V29.6505C29.267 29.9385 29.3814 30.2147 29.5851 30.4184C29.7887 30.6221 30.065 30.7365 30.353 30.7365H31.489C31.777 30.7365 32.0532 30.6221 32.2569 30.4184C32.4606 30.2147 32.575 29.9385 32.575 29.6505V27.9764C33.6682 27.7769 34.6848 27.2785 35.512 26.5364C35.9994 26.0873 36.3875 25.5413 36.6517 24.9334C36.9158 24.3255 37.0502 23.6692 37.046 23.0065C37.0535 22.3834 36.9537 21.7637 36.751 21.1744Z" fill="white"/>
<path d="M46.965 29.1064C44.9794 33.0697 41.616 36.1723 37.5057 37.8323C33.3954 39.4924 28.8207 39.5958 24.6396 38.1231C20.4585 36.6505 16.9583 33.7031 14.7956 29.8336C12.6329 25.9641 11.9562 21.4386 12.8925 17.1057C13.8287 12.7729 16.3137 8.9305 19.8812 6.29929C23.4486 3.66808 27.8535 2.42885 32.2696 2.814C36.6857 3.19915 40.8095 5.18227 43.8676 8.39133C46.9257 11.6004 48.7079 15.8149 48.88 20.2444C48.889 20.4794 48.894 20.7164 48.894 20.9534" stroke="white" stroke-width="3.551" stroke-linecap="round" stroke-linejoin="round"/>
</svg>
