<svg width="71" height="91" viewBox="0 0 71 91" fill="none" xmlns="http://www.w3.org/2000/svg">
<path d="M23.7409 29.2998H1.47095V62.3288H23.7409V29.2998Z" stroke="white" stroke-width="2.499" stroke-linecap="round" stroke-linejoin="round"/>
<path d="M16.123 1.32812H9.08997L6.52795 29.3002H18.6851L16.123 1.32812Z" stroke="white" stroke-width="2.499" stroke-linecap="round" stroke-linejoin="round"/>
<path d="M23.7419 62.3287H69.359V28.8698L54.082 18.2188V28.8698L38.8051 18.2188V28.8698L23.743 18.2188L23.7419 62.3287Z" stroke="white" stroke-width="2.499" stroke-linecap="round" stroke-linejoin="round"/>
<path d="M41.493 39.8438H35.038V46.2987H41.493V39.8438Z" stroke="#73AA1A" stroke-width="2.506" stroke-linecap="round" stroke-linejoin="round"/>
<path d="M58.169 39.8438H51.714V46.2987H58.169V39.8438Z" stroke="#73AA1A" stroke-width="2.506" stroke-linecap="round" stroke-linejoin="round"/>
<path d="M23.42 34.5723H13.952" stroke="white" stroke-width="2.499" stroke-linecap="round" stroke-linejoin="round"/>
<path d="M23.42 40.166H13.952" stroke="white" stroke-width="2.499" stroke-linecap="round" stroke-linejoin="round"/>
<path d="M23.42 45.7607H13.952" stroke="white" stroke-width="2.499" stroke-linecap="round" stroke-linejoin="round"/>
<path d="M23.419 51.3555H17.538" stroke="white" stroke-width="2.499" stroke-linecap="round" stroke-linejoin="round"/>
<path d="M23.42 56.9502H13.952" stroke="white" stroke-width="2.499" stroke-linecap="round" stroke-linejoin="round"/>
<path d="M7.28101 23.2754H12.23" stroke="white" stroke-width="2.499" stroke-linecap="round" stroke-linejoin="round"/>
<path d="M34.931 56.8418H41.702" stroke="white" stroke-width="2.499" stroke-linecap="round" stroke-linejoin="round"/>
<path d="M45.6689 56.8418H45.7969" stroke="white" stroke-width="2.499" stroke-linecap="round" stroke-linejoin="round"/>
<path d="M8.5 78.1525L20.406 71.2895C23.006 69.7775 26.678 70.0086 28.838 70.5616L34.6379 72.3255C35.9218 72.6444 37.182 73.0524 38.4091 73.5466C38.6377 73.6369 38.846 73.7719 39.022 73.9436C39.1979 74.1152 39.338 74.3202 39.434 74.5466C39.504 74.8625 39.4998 75.1904 39.4218 75.5045C39.3437 75.8185 39.1938 76.1102 38.984 76.3565C38.4597 77.0224 37.7151 77.4795 36.884 77.6456C34.252 78.2376 28.4189 77.9056 28.4189 77.9056" stroke="white" stroke-width="2.519" stroke-linecap="round" stroke-linejoin="round"/>
<path d="M12.9139 89.6703L18.342 84.8633C18.6645 84.6155 19.0334 84.4346 19.4269 84.3316C19.8203 84.2285 20.2305 84.2053 20.6331 84.2632L36.452 86.8583C38.0892 87.1279 39.7683 86.7823 41.166 85.8882L61.705 71.4103C61.8742 71.2883 62.0165 71.1328 62.1229 70.9533C62.2293 70.7738 62.2976 70.5743 62.3234 70.3672C62.3492 70.1602 62.332 69.95 62.2729 69.7499C62.2139 69.5498 62.1141 69.3641 61.98 69.2043C61.7341 68.8033 61.3862 68.4749 60.9717 68.2526C60.5572 68.0303 60.091 67.9222 59.621 67.9393C58.7497 68.024 57.905 68.2864 57.139 68.7102C56.365 69.0842 55.58 69.4102 54.795 69.7522L48.139 72.6623L41.739 75.4623L38.839 76.7303" stroke="white" stroke-width="2.519" stroke-linecap="round" stroke-linejoin="round"/>
</svg>
