<svg width="68" height="79" viewBox="0 0 68 79" fill="none" xmlns="http://www.w3.org/2000/svg">
<path d="M36.481 77.6145V61.8145H52.281" stroke="white" stroke-width="2.782" stroke-linecap="round" stroke-linejoin="round"/>
<path d="M52.278 2.14062H1.90002V77.6146H36.478L52.278 61.8146V2.14062Z" stroke="white" stroke-width="2.782" stroke-linecap="round" stroke-linejoin="round"/>
<path d="M20.03 16.0977H41.937" stroke="white" stroke-width="2.782" stroke-linecap="round" stroke-linejoin="round"/>
<path d="M20.03 22.2129H41.937" stroke="white" stroke-width="2.782" stroke-linecap="round" stroke-linejoin="round"/>
<path d="M8.22302 18.8358L10.961 21.1178L15.616 15.5498" stroke="#73AA1A" stroke-width="2.6" stroke-linecap="round" stroke-linejoin="round"/>
<path d="M20.03 33.623H41.937" stroke="white" stroke-width="2.782" stroke-linecap="round" stroke-linejoin="round"/>
<path d="M20.03 39.7393H41.937" stroke="white" stroke-width="2.782" stroke-linecap="round" stroke-linejoin="round"/>
<path d="M8.22302 36.3622L10.961 38.6442L15.616 33.0762" stroke="#73AA1A" stroke-width="2.6" stroke-linecap="round" stroke-linejoin="round"/>
<path d="M20.03 51.1484H41.937" stroke="white" stroke-width="2.782" stroke-linecap="round" stroke-linejoin="round"/>
<path d="M20.03 57.2646H41.937" stroke="white" stroke-width="2.782" stroke-linecap="round" stroke-linejoin="round"/>
<path d="M8.22302 53.8866L10.961 56.1686L15.616 50.6006" stroke="#73AA1A" stroke-width="2.6" stroke-linecap="round" stroke-linejoin="round"/>
<path d="M59.13 2.14062H66.4351V62.0996L62.782 67.5786L59.129 62.0996L59.13 2.14062Z" stroke="white" stroke-width="2.782" stroke-linecap="round" stroke-linejoin="round"/>
<path d="M66.436 10.1602H59.051" stroke="white" stroke-width="2.782" stroke-linecap="round" stroke-linejoin="round"/>
<path d="M59.15 57.3887H66.371" stroke="white" stroke-width="2.782" stroke-linecap="round" stroke-linejoin="round"/>
</svg>
