<svg width="77" height="79" viewBox="0 0 77 79" fill="none" xmlns="http://www.w3.org/2000/svg">
<path d="M57.744 64.2104V71.2424C57.744 72.8446 57.1075 74.3811 55.9746 75.514C54.8417 76.6469 53.3052 77.2834 51.703 77.2834H8.18199C6.57982 77.2834 5.04326 76.6469 3.91035 75.514C2.77745 74.3811 2.14099 72.8446 2.14099 71.2424V18.9294L18.741 2.52344H51.7C55.036 2.52344 57.741 5.22843 57.741 12.4614V34.9614" stroke="white" stroke-width="3.135" stroke-linecap="round" stroke-linejoin="round"/>
<path d="M24.441 14.3125H46.84" stroke="white" stroke-width="3.135" stroke-linecap="round" stroke-linejoin="round"/>
<path d="M24.441 24.2344H46.84" stroke="white" stroke-width="3.135" stroke-linecap="round" stroke-linejoin="round"/>
<path d="M2.14099 18.9294H13.979C14.6047 18.9294 15.2243 18.8062 15.8023 18.5667C16.3804 18.3272 16.9056 17.9762 17.348 17.5338C17.7904 17.0913 18.1413 16.566 18.3806 15.9879C18.62 15.4097 18.7431 14.7901 18.743 14.1644V2.52344" stroke="white" stroke-width="3.135" stroke-linecap="round" stroke-linejoin="round"/>
<path d="M17.444 35.3643H17.443C15.4796 35.3643 13.888 36.9559 13.888 38.9193V38.9203C13.888 40.8836 15.4796 42.4753 17.443 42.4753H17.444C19.4074 42.4753 20.999 40.8836 20.999 38.9203V38.9193C20.999 36.9559 19.4074 35.3643 17.444 35.3643Z" fill="white"/>
<path d="M17.444 47.3721H17.443C15.4796 47.3721 13.888 48.9637 13.888 50.9271V50.9281C13.888 52.8914 15.4796 54.4831 17.443 54.4831H17.444C19.4074 54.4831 20.999 52.8914 20.999 50.9281V50.9271C20.999 48.9637 19.4074 47.3721 17.444 47.3721Z" fill="white"/>
<path d="M17.444 59.3799H17.443C15.4796 59.3799 13.888 60.9715 13.888 62.9349V62.9359C13.888 64.8993 15.4796 66.4909 17.443 66.4909H17.444C19.4074 66.4909 20.999 64.8993 20.999 62.9359V62.9349C20.999 60.9715 19.4074 59.3799 17.444 59.3799Z" fill="white"/>
<path d="M41.359 42.4846L53.983 53.7206L72.688 31.0586" stroke="white" stroke-width="6.851" stroke-linecap="round" stroke-linejoin="round"/>
</svg>
