<svg width="54" height="54" viewBox="0 0 54 54" fill="none" xmlns="http://www.w3.org/2000/svg">
<path d="M53.08 39.968V14.67C53.08 7.00538 46.8666 0.791992 39.202 0.791992L13.904 0.791992C6.23941 0.791992 0.0260162 7.00538 0.0260162 14.67V39.968C0.0260162 47.6326 6.23941 53.846 13.904 53.846H39.202C46.8666 53.846 53.08 47.6326 53.08 39.968Z" fill="#22682F"/>
<path d="M40.755 23.4619C40.7552 22.6254 40.5905 21.7973 40.2705 21.0244C39.9505 20.2516 39.4814 19.5495 38.89 18.958C38.2985 18.3665 37.5964 17.8973 36.8236 17.5771C36.0508 17.257 35.2225 17.0918 34.386 17.0918H18.1C16.4106 17.0918 14.7904 17.7629 13.5958 18.9575C12.4012 20.1521 11.73 21.7725 11.73 23.4619V31.042C11.73 32.7314 12.4012 34.3518 13.5958 35.5464C14.7904 36.741 16.4106 37.4121 18.1 37.4121H34.389C35.2255 37.4121 36.0538 37.2474 36.8266 36.9272C37.5994 36.6071 38.3015 36.1379 38.8929 35.5464C39.4844 34.9549 39.9535 34.2523 40.2735 33.4795C40.5935 32.7067 40.7582 31.8785 40.758 31.042L40.755 23.4619ZM31.176 27.8198L23.876 31.4331C23.59 31.5881 22.617 31.3812 22.617 31.0552V23.6382C22.617 23.3082 23.598 23.1012 23.884 23.2642L30.876 27.064C31.165 27.235 31.473 27.6588 31.176 27.8198Z" fill="white"/>
</svg>
