<svg width="91" height="91"  id="Capa_1_copia" data-name="Capa 1 copia" xmlns="http://www.w3.org/2000/svg" viewBox="0 0 89.37 79.48"><defs><style>.cls-1,.cls-2{fill:none;stroke-linecap:round;stroke-linejoin:round;}.cls-1{stroke:#fff;stroke-width:3px;}.cls-2{stroke:#75b730;stroke-width:2.5px;}</style></defs><polyline class="cls-1" points="13.95 40.05 13.95 77.73 75.42 77.73 75.42 40.05"/><polyline class="cls-1" points="1.75 40.18 45.37 1.75 87.62 40.18"/><circle class="cls-1" cx="44.68" cy="47" r="17.09"/><line class="cls-2" x1="45.36" y1="36.27" x2="45.36" y2="57.73"/><path class="cls-2" d="M49.82,40.47a7.42,7.42,0,0,0-5.57-1.59c-2.16.26-4.44,2.29-3.67,4.73a4.05,4.05,0,0,0,1.66,2.06,19,19,0,0,0,5.11,2,5.71,5.71,0,0,1,2.55,1.49,3,3,0,0,1-.61,4.44,7.06,7.06,0,0,1-4.59,1.11A10.4,10.4,0,0,1,40,52.91"/></svg>