<svg width="81" height="92" viewBox="0 0 81 92" fill="none" xmlns="http://www.w3.org/2000/svg">
<path d="M1.71313 74.8419C2.16213 75.0939 16.8831 63.6318 25.8771 62.4338C29.7771 61.9138 42.1851 65.9338 46.1171 67.2508C46.6025 67.4092 47.0102 67.7451 47.2585 68.1913C47.5068 68.6374 47.5774 69.1609 47.4561 69.6569C47.0361 71.2949 45.5361 73.3849 41.6941 73.8019C38.237 74.0358 34.7681 74.0358 31.3111 73.8019" stroke="#26282D" stroke-width="2.372" stroke-linecap="round" stroke-linejoin="round"/>
<path d="M8.70801 90.6555C8.81601 90.6195 13.679 86.9825 15.395 85.5555C16.3555 84.7549 17.4744 84.1663 18.6784 83.8285C19.8824 83.4907 21.1442 83.4113 22.381 83.5955L43.896 86.7955C46.2174 87.1402 48.5814 86.5614 50.481 85.1835L53.13 83.3635L59.55 78.9545L67.456 73.5245L74.564 68.6425L77.105 66.8975C78.0268 66.421 78.8218 65.7316 79.424 64.8865C79.6991 64.3857 79.8356 63.8207 79.8195 63.2495C79.8033 62.6784 79.635 62.1219 79.332 61.6375C78.9392 61.1466 78.4348 60.7569 77.8607 60.5009C77.2866 60.2448 76.6596 60.1299 76.032 60.1655C74.3774 60.3351 72.7618 60.7742 71.249 61.4655L67.403 62.7905L57.879 66.0725L49.788 68.8605L47.458 69.6605" stroke="#26282D" stroke-width="2.372" stroke-linecap="round" stroke-linejoin="round"/>
<path d="M16.238 24.3547V6.36279H26.2001V14.8757" stroke="#26282D" stroke-width="2.372" stroke-linecap="round" stroke-linejoin="round"/>
<path d="M16.5061 58.8076V32.7866" stroke="#26282D" stroke-width="2.372" stroke-linecap="round" stroke-linejoin="round"/>
<path d="M66.0229 32.7866V58.4866" stroke="#26282D" stroke-width="2.372" stroke-linecap="round" stroke-linejoin="round"/>
<path d="M34.4431 53.4681L47.5181 30.6201" stroke="#26282D" stroke-width="2.372" stroke-linecap="round" stroke-linejoin="round"/>
<path d="M26.677 37.36C26.677 32.837 29.197 30.271 32.577 30.271C35.983 30.271 38.483 32.837 38.483 37.36C38.483 41.883 35.983 44.449 32.577 44.449C29.2 44.449 26.677 41.883 26.677 37.36ZM35.277 37.36C35.277 34.246 34.177 32.954 32.577 32.954C31.003 32.954 29.9 34.246 29.9 37.36C29.9 40.474 31 41.766 32.577 41.766C34.177 41.766 35.279 40.473 35.279 37.36H35.277Z" fill="#26282D"/>
<path d="M43.4731 46.8721C43.4731 42.3491 45.9921 39.7842 49.3731 39.7842C52.7791 39.7842 55.2781 42.3491 55.2781 46.8721C55.2781 51.3951 52.7781 53.9612 49.3731 53.9612C45.9921 53.9612 43.4731 51.4001 43.4731 46.8721ZM52.0731 46.8721C52.0731 43.7591 50.9731 42.4661 49.3731 42.4661C47.7981 42.4661 46.6961 43.7591 46.6961 46.8721C46.6961 49.9851 47.7961 51.2781 49.3731 51.2781C50.9731 51.2781 52.0751 49.9861 52.0751 46.8721H52.0731Z" fill="#26282D"/>
<path d="M8.68804 39.6931C7.85574 39.6929 7.04266 39.443 6.354 38.9756C5.66533 38.5082 5.13278 37.8449 4.82525 37.0715C4.51772 36.2981 4.44938 35.4502 4.62905 34.6376C4.80872 33.8249 5.22815 33.0847 5.83306 32.5131L38.266 1.8811C39.0377 1.15248 40.0588 0.746582 41.12 0.746582C42.1813 0.746582 43.2024 1.15248 43.9741 1.8811L75.845 31.9501C76.2421 32.3247 76.5615 32.774 76.7849 33.2721C77.0084 33.7702 77.1316 34.3073 77.1474 34.853C77.1632 35.3987 77.0714 35.9422 76.8772 36.4524C76.683 36.9626 76.3902 37.4296 76.0156 37.8267C75.6409 38.2237 75.1917 38.543 74.6936 38.7665C74.1955 38.9899 73.6583 39.1131 73.1126 39.1289C72.5669 39.1447 72.0235 39.053 71.5133 38.8588C71.0031 38.6646 70.5361 38.3717 70.139 37.9971L41.1221 10.6232L11.542 38.5591C10.771 39.2886 9.74948 39.6945 8.68804 39.6931Z" fill="#68A61B"/>
</svg>
