<svg width="96" height="87" viewBox="0 0 96 87" fill="none" xmlns="http://www.w3.org/2000/svg">
<path d="M31.827 40.0547H1.177V85.3917H31.827V40.0547Z" stroke="#26282D" stroke-width="2.244" stroke-linecap="round" stroke-linejoin="round"/>
<path d="M21.939 1.96094H11.064L7.35596 40.0549H25.6469L21.939 1.96094Z" stroke="#26282D" stroke-width="2.244" stroke-linecap="round" stroke-linejoin="round"/>
<path d="M31.827 85.3916L94.405 85.3916V40.0546L31.827 40.0546L31.827 85.3916Z" stroke="#26282D" stroke-width="2.244" stroke-linecap="round" stroke-linejoin="round"/>
<path d="M52.423 40.0551H31.823V24.814L52.423 40.0551Z" stroke="#26282D" stroke-width="2.244" stroke-linecap="round" stroke-linejoin="round"/>
<path d="M73.235 40.0551H52.635V24.814L73.235 40.0551Z" stroke="#26282D" stroke-width="2.244" stroke-linecap="round" stroke-linejoin="round"/>
<path d="M94.047 40.0551H73.447V24.814L94.047 40.0551Z" stroke="#26282D" stroke-width="2.244" stroke-linecap="round" stroke-linejoin="round"/>
<path d="M55.198 55.0586H47.845V62.4116H55.198V55.0586Z" fill="#68A61B" stroke="#68A61B" stroke-width="2.244" stroke-linecap="round" stroke-linejoin="round"/>
<path d="M78.3869 55.0586H71.0339V62.4116H78.3869V55.0586Z" fill="#68A61B" stroke="#68A61B" stroke-width="2.244" stroke-linecap="round" stroke-linejoin="round"/>
<path d="M18.6069 47.498H31.8269" stroke="#26282D" stroke-width="2.244" stroke-linecap="round" stroke-linejoin="round"/>
<path d="M18.6069 55.0591H31.8269" stroke="#26282D" stroke-width="2.244" stroke-linecap="round" stroke-linejoin="round"/>
<path d="M18.6069 62.6201H31.8269" stroke="#26282D" stroke-width="2.244" stroke-linecap="round" stroke-linejoin="round"/>
<path d="M18.6069 70.1821H31.8269" stroke="#26282D" stroke-width="2.244" stroke-linecap="round" stroke-linejoin="round"/>
<path d="M8.09814 32.4351H14.7431" stroke="#26282D" stroke-width="2.244" stroke-linecap="round" stroke-linejoin="round"/>
</svg>
