<svg width="94" height="69" viewBox="0 0 94 69" fill="none" xmlns="http://www.w3.org/2000/svg">
<path d="M8.55908 2.31591V59.5519C8.55908 59.5519 21.1131 55.8938 46.8151 67.7518V11.9999C46.8151 11.9999 30.0101 -1.63809 8.55908 2.31591Z" fill="#68A61B"/>
<path d="M46.8149 67.756H1.73804V7.35596H8.55896" stroke="#26282D" stroke-width="2.244" stroke-linecap="round" stroke-linejoin="round"/>
<path d="M85.071 2.31591V59.5519C85.071 59.5519 72.5169 55.8938 46.8149 67.7518V11.9999C46.8149 11.9999 63.62 -1.63809 85.071 2.31591Z" stroke="#26282D" stroke-width="2.244" stroke-linecap="round" stroke-linejoin="round"/>
<path d="M46.8149 67.756H91.892V7.35596H85.071" stroke="#26282D" stroke-width="2.244" stroke-linecap="round" stroke-linejoin="round"/>
<path d="M55.8521 21.4591C61.9821 18.5149 68.6396 16.8277 75.432 16.4971" stroke="#26282D" stroke-width="2.244" stroke-linecap="round" stroke-linejoin="round"/>
<path d="M55.8521 29.7999C61.9818 26.8547 68.6394 25.1675 75.432 24.8379" stroke="#26282D" stroke-width="2.244" stroke-linecap="round" stroke-linejoin="round"/>
<path d="M55.8521 38.13C61.982 35.1853 68.6395 33.4981 75.432 33.168" stroke="#26282D" stroke-width="2.244" stroke-linecap="round" stroke-linejoin="round"/>
<path d="M23.321 27.1807H29.438V44.4667" stroke="#1D5523" stroke-width="2.564" stroke-linecap="round" stroke-linejoin="round"/>
<path d="M29.5711 23.5339C31.1557 23.5339 32.4401 22.2494 32.4401 20.6649C32.4401 19.0804 31.1557 17.7959 29.5711 17.7959C27.9866 17.7959 26.7021 19.0804 26.7021 20.6649C26.7021 22.2494 27.9866 23.5339 29.5711 23.5339Z" fill="#1D5523"/>
</svg>
