<svg width="69" height="81" viewBox="0 0 69 81" fill="none" xmlns="http://www.w3.org/2000/svg">
<path d="M56.5569 41.8711V79.3391H48.9229V41.8711" stroke="#26282D" stroke-width="2.372" stroke-linecap="round" stroke-linejoin="round"/>
<path d="M9.84083 70.7969H1.29883V79.3389H9.84083V70.7969Z" stroke="#26282D" stroke-width="2.372" stroke-linecap="round" stroke-linejoin="round"/>
<path d="M25.376 64.502H16.834V79.34H25.376V64.502Z" stroke="#26282D" stroke-width="2.372" stroke-linecap="round" stroke-linejoin="round"/>
<path d="M40.9009 54.9731H32.3589V79.5501H40.9009V54.9731Z" fill="#68A61B" stroke="#68A61B" stroke-width="2.372" stroke-linecap="round" stroke-linejoin="round"/>
<path d="M44.3201 43.9998H38.311C38.311 43.9998 38.8001 37.2598 43.8651 33.0508" stroke="#26282D" stroke-width="2.372" stroke-linecap="round" stroke-linejoin="round"/>
<path d="M60.4 36.8148C66.455 14.3148 52.692 1.23193 52.692 1.23193C52.692 1.23193 38.857 14.3108 44.912 36.8148" stroke="#26282D" stroke-width="2.372" stroke-linecap="round" stroke-linejoin="round"/>
<path d="M60.9861 44H66.9951C66.9951 44 66.515 37.38 61.576 33.165" stroke="#26282D" stroke-width="2.372" stroke-linecap="round" stroke-linejoin="round"/>
<path d="M46.4351 10.7998H58.9071" stroke="#26282D" stroke-width="2.372" stroke-linecap="round" stroke-linejoin="round"/>
<path d="M52.6529 19.5841C53.9596 19.5841 55.0189 18.5248 55.0189 17.2181C55.0189 15.9113 53.9596 14.8521 52.6529 14.8521C51.3462 14.8521 50.2869 15.9113 50.2869 17.2181C50.2869 18.5248 51.3462 19.5841 52.6529 19.5841Z" fill="#26282D"/>
<path d="M52.6529 28.0518C53.9596 28.0518 55.0189 26.9925 55.0189 25.6858C55.0189 24.3791 53.9596 23.3198 52.6529 23.3198C51.3462 23.3198 50.2869 24.3791 50.2869 25.6858C50.2869 26.9925 51.3462 28.0518 52.6529 28.0518Z" fill="#26282D"/>
<path d="M52.6529 36.5191C53.9596 36.5191 55.0189 35.4598 55.0189 34.1531C55.0189 32.8464 53.9596 31.7871 52.6529 31.7871C51.3462 31.7871 50.2869 32.8464 50.2869 34.1531C50.2869 35.4598 51.3462 36.5191 52.6529 36.5191Z" fill="#26282D"/>
</svg>

