<svg width="86" height="87" viewBox="0 0 86 87" fill="none" xmlns="http://www.w3.org/2000/svg">
<path d="M84.8001 47.3418V39.8647C84.8001 39.5649 84.7411 39.2681 84.6264 38.9911C84.5116 38.7141 84.3435 38.4625 84.1315 38.2505C83.9195 38.0385 83.6678 37.8702 83.3908 37.7555C83.1138 37.6408 82.817 37.5818 82.5172 37.5818H79.5712C78.5246 37.573 77.509 37.2258 76.6761 36.592C75.8431 35.9583 75.2377 35.0721 74.9502 34.0658C74.3151 31.9405 73.4664 29.885 72.4171 27.9308C71.9086 27.0153 71.7099 25.9598 71.8506 24.922C71.9914 23.8842 72.4641 22.9197 73.1982 22.1727L75.2751 20.0957C75.7031 19.6676 75.9435 19.0871 75.9435 18.4818C75.9435 17.8765 75.7031 17.2959 75.2751 16.8678L69.9872 11.5797C69.559 11.1518 68.9785 10.9114 68.3731 10.9114C67.7678 10.9114 67.1873 11.1518 66.7592 11.5797L64.6822 13.6567C63.935 14.3905 62.9706 14.863 61.9329 15.0038C60.8952 15.1445 59.8398 14.946 58.9242 14.4377C56.9698 13.3885 54.9143 12.5396 52.7892 11.9038C51.7828 11.6166 50.8965 11.0114 50.2627 10.1786C49.629 9.34581 49.2818 8.33029 49.2732 7.28381V4.33679C49.2732 3.7313 49.0326 3.15056 48.6045 2.72241C48.1763 2.29427 47.5956 2.05371 46.9901 2.05371H39.5121C38.9067 2.05398 38.3262 2.29469 37.8981 2.72278C37.47 3.15087 37.2294 3.73138 37.2292 4.33679V7.28381C37.2207 8.33033 36.8736 9.34591 36.2398 10.1787C35.606 11.0115 34.7196 11.6168 33.7132 11.9038C31.5881 12.54 29.5327 13.3889 27.5782 14.4377C26.6625 14.946 25.6071 15.1445 24.5694 15.0038C23.5317 14.863 22.5673 14.3905 21.8202 13.6567L19.7441 11.5797C19.3159 11.1517 18.7351 10.9114 18.1296 10.9114C17.5241 10.9114 16.9435 11.1517 16.5152 11.5797L11.2281 16.8678C11.016 17.0796 10.8477 17.3312 10.7329 17.6082C10.6181 17.8851 10.559 18.182 10.559 18.4818C10.559 18.7816 10.6181 19.0784 10.7329 19.3553C10.8477 19.6323 11.016 19.8839 11.2281 20.0957L13.3041 22.1727C14.0382 22.9197 14.5109 23.8842 14.6517 24.922C14.7924 25.9598 14.5937 27.0153 14.0851 27.9308C13.0358 29.885 12.1872 31.9405 11.5522 34.0658C11.2648 35.0722 10.6594 35.9585 9.82642 36.5923C8.99347 37.2261 7.97776 37.5732 6.93115 37.5818H3.98514C3.37965 37.5818 2.79896 37.8223 2.37082 38.2505C1.94267 38.6786 1.70215 39.2593 1.70215 39.8647V47.3418C1.70215 47.9473 1.94267 48.5279 2.37082 48.9561C2.79896 49.3842 3.37965 49.6248 3.98514 49.6248H6.93115C7.97772 49.6335 8.99335 49.9806 9.82626 50.6144C10.6592 51.2481 11.2646 52.1344 11.5522 53.1407C12.1874 55.2663 13.036 57.3221 14.0851 59.2767C14.5936 60.1921 14.7923 61.2474 14.6516 62.285C14.5108 63.3227 14.0381 64.287 13.3041 65.0338L11.2281 67.1107C11.0161 67.3227 10.8479 67.5744 10.7331 67.8514C10.6184 68.1285 10.5593 68.4254 10.5593 68.7252C10.5593 69.0251 10.6184 69.322 10.7331 69.599C10.8479 69.876 11.0161 70.1277 11.2281 70.3397L16.5152 75.6267C16.7271 75.8389 16.9788 76.0072 17.2558 76.1221C17.5328 76.2369 17.8298 76.296 18.1296 76.296C18.4295 76.296 18.7265 76.2369 19.0035 76.1221C19.2805 76.0072 19.5322 75.8389 19.7441 75.6267L21.8202 73.5498C22.5673 72.816 23.5317 72.3435 24.5694 72.2028C25.6071 72.062 26.6625 72.2606 27.5782 72.7688C29.5324 73.8183 31.5879 74.6672 33.7132 75.3027C34.7197 75.59 35.6061 76.1953 36.2399 77.0283C36.8737 77.8613 37.2207 78.8771 37.2292 79.9237V82.8698C37.2292 83.4752 37.4697 84.056 37.8978 84.4841C38.326 84.9123 38.9067 85.1527 39.5121 85.1527H46.9901C47.5956 85.1527 48.1763 84.9123 48.6045 84.4841C49.0326 84.056 49.2732 83.4752 49.2732 82.8698V79.9237C49.2816 78.8771 49.6286 77.8613 50.2624 77.0283C50.8962 76.1953 51.7827 75.59 52.7892 75.3027C54.9145 74.6674 56.97 73.8184 58.9242 72.7688C59.8398 72.2606 60.8952 72.062 61.9329 72.2028C62.9706 72.3435 63.935 72.816 64.6822 73.5498L66.7592 75.6267C66.971 75.8388 67.2226 76.0072 67.4995 76.1221C67.7765 76.2369 68.0733 76.2959 68.3731 76.2959C68.6729 76.2959 68.9698 76.2369 69.2468 76.1221C69.5237 76.0072 69.7753 75.8388 69.9872 75.6267L75.2751 70.3397C75.7032 69.9114 75.9436 69.3307 75.9436 68.7252C75.9436 68.1197 75.7032 67.539 75.2751 67.1107L73.1982 65.0338C72.4641 64.2868 71.9914 63.3223 71.8506 62.2845C71.7099 61.2468 71.9086 60.1913 72.4171 59.2758C73.4664 57.3215 74.3151 55.266 74.9502 53.1407C75.2378 52.1345 75.8433 51.2483 76.6762 50.6146C77.5091 49.9809 78.5246 49.6337 79.5712 49.6248H82.5172C83.1226 49.6248 83.7033 49.3842 84.1315 48.9561C84.5596 48.5279 84.8001 47.9473 84.8001 47.3418Z" stroke="#26282D" stroke-width="2.208" stroke-linecap="round" stroke-linejoin="round"/>
<path d="M43.2542 64.6798C54.8942 64.6798 64.3302 55.2438 64.3302 43.6038C64.3302 31.9639 54.8942 22.5278 43.2542 22.5278C31.6143 22.5278 22.1782 31.9639 22.1782 43.6038C22.1782 55.2438 31.6143 64.6798 43.2542 64.6798Z" fill="#68A61B"/>
<path d="M32.7161 45.7109L40.8451 52.3348L55.5981 35.1729" stroke="#1D5523" stroke-width="2.564" stroke-linecap="round" stroke-linejoin="round"/>
</svg>
