<svg width="98" height="77" viewBox="0 0 98 77" fill="none" xmlns="http://www.w3.org/2000/svg">
<path d="M54.136 26.6528L68.003 29.5578" stroke="#26282D" stroke-width="2.244" stroke-linecap="round" stroke-linejoin="round"/>
<path d="M76.842 17.4219L52.592 18.5289" stroke="#26282D" stroke-width="2.244" stroke-linecap="round" stroke-linejoin="round"/>
<path d="M94.4911 2.98679C94.4911 2.98679 99.3231 6.03973 93.8661 13.5307L72.1542 42.8547C72.1542 42.8547 67.4541 49.1077 66.0841 50.5637C63.1001 53.7347 58.3171 58.7498 55.4491 56.7328C52.6491 54.6218 55.8341 48.4418 57.9361 44.6328C58.9021 42.8818 63.4121 36.4907 63.4121 36.4907L84.6631 6.83176C90.1201 -0.660241 94.5082 3.00278 94.5082 3.00278L94.4911 2.98679Z" stroke="#26282D" stroke-width="2.244" stroke-linecap="round" stroke-linejoin="round"/>
<path d="M89.05 7.99902L91.999 10.147" stroke="#26282D" stroke-width="2.244" stroke-linecap="round" stroke-linejoin="round"/>
<path d="M56.5562 18.4187L61.9631 10.9948L63.7952 10.6167L66.7441 12.7648L67.2241 14.6708L65.0021 17.7218L56.5562 18.4187Z" stroke="#26282D" stroke-width="2.244" stroke-linecap="round" stroke-linejoin="round"/>
<path d="M86.7062 24.6079L94.9291 54.7749L91.1292 59.9949L77.8691 36.7429" stroke="#26282D" stroke-width="2.244" stroke-linecap="round" stroke-linejoin="round"/>
<path d="M57.936 44.6285C57.936 44.6285 56.245 44.3035 54.136 44.0205" stroke="#26282D" stroke-width="2.244" stroke-linecap="round" stroke-linejoin="round"/>
<path d="M66.576 50.9219C66.576 50.9219 70.421 57.9359 70.714 60.9509L67.603 65.2229L61.283 55.9498" stroke="#26282D" stroke-width="2.244" stroke-linecap="round" stroke-linejoin="round"/>
<path d="M55.449 56.7329L63.326 45.9189" stroke="#26282D" stroke-width="2.244" stroke-linecap="round" stroke-linejoin="round"/>
<path d="M22.8149 17.3159V9.66689C22.8149 9.66689 22.962 6.28295 26.934 6.42995H39.584C39.584 6.42995 42.968 6.72495 42.968 9.96095V17.3239" stroke="#26282D" stroke-width="2.244" stroke-linecap="round" stroke-linejoin="round"/>
<path d="M12.2251 58.5998V70.7708C12.2251 70.7708 11.6962 75.3218 17.0932 75.6398H48.1032C48.1032 75.6398 54.2422 76.3808 54.1362 70.9828V22.9337C54.1362 22.9337 54.7712 17.8538 49.7962 17.5338H16.8821C16.8821 17.5338 12.1191 17.2168 12.2251 22.1908V32.5628" stroke="#26282D" stroke-width="2.244" stroke-linecap="round" stroke-linejoin="round"/>
<path d="M1.21802 54.593V36.812L12.437 27.499L23.126 36.499V55.02C23.2127 55.3658 23.2121 55.7278 23.1243 56.0734C23.0364 56.4189 22.8641 56.7371 22.6227 56.9995C22.3813 57.2619 22.0785 57.4602 21.7415 57.5765C21.4044 57.6929 21.0439 57.7236 20.692 57.666H3.96997C3.96997 57.666 1.64202 57.873 1.21802 54.593Z" fill="#68A61B" stroke="#68A61B" stroke-width="2.244" stroke-linecap="round" stroke-linejoin="round"/>
<path d="M12.225 39.0032C13.4936 39.0032 14.522 37.9748 14.522 36.7062C14.522 35.4376 13.4936 34.4092 12.225 34.4092C10.9564 34.4092 9.92798 35.4376 9.92798 36.7062C9.92798 37.9748 10.9564 39.0032 12.225 39.0032Z" stroke="#1D5523" stroke-width="2.564" stroke-linecap="round" stroke-linejoin="round"/>
<path d="M5.73389 46.4077H18.7159" stroke="#1D5523" stroke-width="2.564" stroke-linecap="round" stroke-linejoin="round"/>
<path d="M5.73389 51.77H18.7159" stroke="#1D5523" stroke-width="2.564" stroke-linecap="round" stroke-linejoin="round"/>
<path d="M28.947 25.896V67.736" stroke="#26282D" stroke-width="2.244" stroke-linecap="round" stroke-linejoin="round"/>
<path d="M37.209 25.896V67.736" stroke="#26282D" stroke-width="2.244" stroke-linecap="round" stroke-linejoin="round"/>
<path d="M45.47 25.896V67.736" stroke="#26282D" stroke-width="2.244" stroke-linecap="round" stroke-linejoin="round"/>
<path d="M20.6919 58.917V67.737" stroke="#26282D" stroke-width="2.244" stroke-linecap="round" stroke-linejoin="round"/>
</svg>
