<svg width="59" height="59" viewBox="0 0 59 59" fill="none" xmlns="http://www.w3.org/2000/svg">
<path d="M29.1274 56.9619C44.3953 56.9619 56.7724 44.5848 56.7724 29.3169C56.7724 14.049 44.3953 1.67188 29.1274 1.67188C13.8595 1.67188 1.48242 14.049 1.48242 29.3169C1.48242 44.5848 13.8595 56.9619 29.1274 56.9619Z" fill="#00A9EA"/>
<path d="M29.1274 56.9619C44.3953 56.9619 56.7724 44.5848 56.7724 29.3169C56.7724 14.049 44.3953 1.67188 29.1274 1.67188C13.8595 1.67188 1.48242 14.049 1.48242 29.3169C1.48242 44.5848 13.8595 56.9619 29.1274 56.9619Z" stroke="#474645" stroke-width="2.749" stroke-linecap="round" stroke-linejoin="round"/>
<path d="M16.125 29.3169L24.866 36.8569L40.166 18.5" stroke="#474645" stroke-width="4.523" stroke-linecap="round" stroke-linejoin="round"/>
</svg>
