<svg width="92" height="83" viewBox="0 0 92 83" fill="none" xmlns="http://www.w3.org/2000/svg">
<path d="M30.8013 38.0273H1.36133V81.5743H30.8013V38.0273Z" stroke="white" stroke-width="2.155" stroke-linecap="round" stroke-linejoin="round"/>
<path d="M21.3039 1.4375H10.8589L7.29688 38.0275H24.8659L21.3039 1.4375Z" stroke="white" stroke-width="2.155" stroke-linecap="round" stroke-linejoin="round"/>
<path d="M30.8022 81.5742L90.9102 81.5742V38.0272L30.8022 38.0272L30.8022 81.5742Z" stroke="white" stroke-width="2.155" stroke-linecap="round" stroke-linejoin="round"/>
<path d="M50.5858 38.0276H30.8027V23.3887L50.5858 38.0276Z" stroke="white" stroke-width="2.155" stroke-linecap="round" stroke-linejoin="round"/>
<path d="M70.576 38.0276H50.793V23.3887L70.576 38.0276Z" stroke="white" stroke-width="2.155" stroke-linecap="round" stroke-linejoin="round"/>
<path d="M90.5662 38.0276H70.7832V23.3887L90.5662 38.0276Z" stroke="white" stroke-width="2.155" stroke-linecap="round" stroke-linejoin="round"/>
<path d="M53.2505 52.4395H46.1875V59.5025H53.2505V52.4395Z" fill="#00A9EA" stroke="#00A9EA" stroke-width="2.199" stroke-linecap="round" stroke-linejoin="round"/>
<path d="M75.5239 52.4395H68.4609V59.5025H75.5239V52.4395Z" fill="#00A9EA" stroke="#00A9EA" stroke-width="2.199" stroke-linecap="round" stroke-linejoin="round"/>
<path d="M18.1035 45.1758H30.8015" stroke="white" stroke-width="2.155" stroke-linecap="round" stroke-linejoin="round"/>
<path d="M18.1035 52.4395H30.8015" stroke="white" stroke-width="2.155" stroke-linecap="round" stroke-linejoin="round"/>
<path d="M18.1035 59.7012H30.8015" stroke="white" stroke-width="2.155" stroke-linecap="round" stroke-linejoin="round"/>
<path d="M18.1035 66.9629H30.8015" stroke="white" stroke-width="2.155" stroke-linecap="round" stroke-linejoin="round"/>
<path d="M18.1035 74.2266H30.8015" stroke="white" stroke-width="2.155" stroke-linecap="round" stroke-linejoin="round"/>
<path d="M8.00977 30.707H14.3918" stroke="white" stroke-width="2.155" stroke-linecap="round" stroke-linejoin="round"/>
<path d="M59.2168 74.4609H60.7688" stroke="white" stroke-width="2.155" stroke-linecap="round" stroke-linejoin="round"/>
<path d="M45.2598 74.4609H54.8318" stroke="white" stroke-width="2.155" stroke-linecap="round" stroke-linejoin="round"/>
</svg>
