<svg width="97" height="81" viewBox="0 0 97 81" fill="none" xmlns="http://www.w3.org/2000/svg">
<path d="M53.0449 25.7793L66.6369 28.6273" stroke="white" stroke-width="2.199" stroke-linecap="round" stroke-linejoin="round"/>
<path d="M75.3002 16.7324L51.5312 17.8174" stroke="white" stroke-width="2.199" stroke-linecap="round" stroke-linejoin="round"/>
<path d="M92.6003 2.58228C92.6003 2.58228 97.3373 5.57521 91.9883 12.9182L70.7063 41.6603C70.7063 41.6603 66.1003 47.7903 64.7563 49.2173C61.8313 52.3253 57.1423 57.2413 54.3313 55.2643C51.5873 53.1953 54.7093 47.1373 56.7693 43.4003C57.7163 41.6833 62.1373 35.4193 62.1373 35.4193L82.9673 6.34729C88.3153 -0.99571 92.6173 2.59424 92.6173 2.59424L92.6003 2.58228Z" stroke="white" stroke-width="2.199" stroke-linecap="round" stroke-linejoin="round"/>
<path d="M87.2676 7.49609L90.1586 9.60209" stroke="white" stroke-width="2.199" stroke-linecap="round" stroke-linejoin="round"/>
<path d="M55.418 17.7095L60.718 10.4325L62.518 10.0625L65.409 12.1685L65.879 14.0365L63.701 17.0265L55.418 17.7095Z" stroke="white" stroke-width="2.199" stroke-linecap="round" stroke-linejoin="round"/>
<path d="M84.9698 23.7754L93.0298 53.3453L89.3027 58.4624L76.3027 35.6714" stroke="white" stroke-width="2.199" stroke-linecap="round" stroke-linejoin="round"/>
<path d="M90.1391 42.9988L95.4391 35.7218L95.2391 33.8988L92.3461 31.7988L90.4241 31.9238L88.2461 34.9138L90.1391 42.9988Z" stroke="white" stroke-width="2.199" stroke-linecap="round" stroke-linejoin="round"/>
<path d="M56.7699 43.3988C56.7699 43.3988 55.1119 43.0798 53.0449 42.7988" stroke="white" stroke-width="2.199" stroke-linecap="round" stroke-linejoin="round"/>
<path d="M65.238 49.5684C65.238 49.5684 69.0069 56.4434 69.2949 59.3994L66.2449 63.5854L60.0449 54.4963" stroke="white" stroke-width="2.199" stroke-linecap="round" stroke-linejoin="round"/>
<path d="M54.332 55.2631L62.053 44.6641" stroke="white" stroke-width="2.199" stroke-linecap="round" stroke-linejoin="round"/>
<path d="M22.3477 16.6278V9.12779C22.3477 9.12779 22.4916 5.81079 26.3846 5.95579H38.7847C38.7847 5.95579 42.1006 6.24375 42.1006 9.41575V16.6328" stroke="white" stroke-width="2.199" stroke-linecap="round" stroke-linejoin="round"/>
<path d="M11.9651 57.0919V69.022C11.9651 69.022 11.4462 73.4829 16.7372 73.7939H47.1321C47.1321 73.7939 53.1491 74.52 53.0451 69.23V22.1299C53.0451 22.1299 53.6682 17.151 48.7922 16.84H16.5292C16.5292 16.84 11.8611 16.5279 11.9651 21.4039V31.5699" stroke="white" stroke-width="2.199" stroke-linecap="round" stroke-linejoin="round"/>
<path d="M1.17578 53.1664V35.7384L12.1758 26.6094L22.6538 35.4264V53.5814C22.7388 53.9204 22.7382 54.2751 22.6521 54.6138C22.566 54.9524 22.397 55.2645 22.1603 55.5216C21.9237 55.7788 21.6269 55.9731 21.2965 56.087C20.9662 56.201 20.6127 56.231 20.2678 56.1744H3.8728C3.8728 56.1744 1.59078 56.3824 1.17578 53.1664Z" fill="#00A9EA" stroke="#00A9EA" stroke-width="2.199" stroke-linecap="round" stroke-linejoin="round"/>
<path d="M11.9639 37.8848C13.2071 37.8848 14.2149 36.877 14.2149 35.6338C14.2149 34.3906 13.2071 33.3828 11.9639 33.3828C10.7207 33.3828 9.71289 34.3906 9.71289 35.6338C9.71289 36.877 10.7207 37.8848 11.9639 37.8848Z" stroke="#1A529E" stroke-width="2.513" stroke-linecap="round" stroke-linejoin="round"/>
<path d="M5.60156 45.1426H18.3266" stroke="#1A529E" stroke-width="2.513" stroke-linecap="round" stroke-linejoin="round"/>
<path d="M5.60156 50.3984H18.3266" stroke="#1A529E" stroke-width="2.513" stroke-linecap="round" stroke-linejoin="round"/>
<path d="M28.3555 25.0371V66.0481" stroke="white" stroke-width="2.199" stroke-linecap="round" stroke-linejoin="round"/>
<path d="M36.4531 25.0371V66.0481" stroke="white" stroke-width="2.199" stroke-linecap="round" stroke-linejoin="round"/>
<path d="M44.5508 25.0371V66.0481" stroke="white" stroke-width="2.199" stroke-linecap="round" stroke-linejoin="round"/>
<path d="M20.2637 57.4043V66.0493" stroke="white" stroke-width="2.199" stroke-linecap="round" stroke-linejoin="round"/>
<path d="M17.5664 73.998V77.1791C17.5664 77.1791 17.6665 79.2881 20.3325 79.2881C20.3325 79.2881 22.8564 79.427 22.9604 77.248V73.998" stroke="white" stroke-width="2.199" stroke-linecap="round" stroke-linejoin="round"/>
<path d="M42.0469 73.998V77.1791C42.0469 77.1791 42.1469 79.2881 44.8129 79.2881C44.8129 79.2881 47.3379 79.427 47.4409 77.248V73.998" stroke="white" stroke-width="2.199" stroke-linecap="round" stroke-linejoin="round"/>
</svg>
