<svg width="92" height="105" viewBox="0 0 92 105" fill="none" xmlns="http://www.w3.org/2000/svg">
<path d="M2.08789 84.8855C2.59589 85.1705 19.2649 72.1915 29.4489 70.8355C33.8709 70.2465 47.9149 74.7935 52.3679 76.2895C52.9174 76.4689 53.3789 76.8491 53.66 77.3542C53.9411 77.8593 54.0211 78.452 53.8839 79.0135C53.4089 80.8675 51.7099 83.2345 47.3599 83.7075C43.4451 83.972 39.5168 83.972 35.6019 83.7075" stroke="white" stroke-width="2.686" stroke-linecap="round" stroke-linejoin="round"/>
<path d="M10.0078 102.792C10.1298 102.751 15.6368 98.6334 17.5798 97.0144C18.6677 96.1081 19.9349 95.4418 21.2982 95.0594C22.6615 94.677 24.0903 94.5871 25.4908 94.7954L49.8528 98.4163C52.4813 98.8075 55.1582 98.1522 57.3088 96.5913L60.3088 94.5304L67.5789 89.5373L76.5308 83.3894L84.5798 77.8613L87.4568 75.8853C88.5005 75.3456 89.4007 74.5651 90.0828 73.6084C90.3946 73.0417 90.5497 72.4022 90.5321 71.7557C90.5145 71.1092 90.3249 70.4792 89.9828 69.9304C89.5381 69.374 88.9665 68.9323 88.316 68.6423C87.6654 68.3523 86.9549 68.2222 86.2438 68.2633C84.3788 68.2633 82.5738 69.1293 80.8278 69.7313L76.4728 71.2313L65.6888 74.9483L56.5269 78.1053L53.8889 79.0144" stroke="white" stroke-width="2.686" stroke-linecap="round" stroke-linejoin="round"/>
<path d="M18.5352 27.7168V7.34375H29.8192V16.9838" stroke="white" stroke-width="2.686" stroke-linecap="round" stroke-linejoin="round"/>
<path d="M18.8379 66.7296V37.2656" stroke="white" stroke-width="2.686" stroke-linecap="round" stroke-linejoin="round"/>
<path d="M74.9062 37.2656V66.3676" stroke="white" stroke-width="2.686" stroke-linecap="round" stroke-linejoin="round"/>
<path d="M39.1484 60.6815L53.9534 34.8105" stroke="white" stroke-width="2.686" stroke-linecap="round" stroke-linejoin="round"/>
<path d="M30.3555 42.443C30.3555 37.321 33.2084 34.416 37.0424 34.416C40.8984 34.416 43.7294 37.321 43.7294 42.443C43.7294 47.565 40.8984 50.47 37.0424 50.47C33.2084 50.47 30.3555 47.565 30.3555 42.443ZM40.0964 42.443C40.0964 38.917 38.8484 37.453 37.0424 37.453C35.2594 37.453 34.0104 38.917 34.0104 42.443C34.0104 45.969 35.2594 47.431 37.0424 47.431C38.8484 47.431 40.0964 45.968 40.0964 42.443Z" fill="white"/>
<path d="M49.373 53.2145C49.373 48.0925 52.227 45.1875 56.06 45.1875C59.917 45.1875 62.747 48.0925 62.747 53.2145C62.747 58.3365 59.917 61.2415 56.06 61.2415C52.227 61.2415 49.373 58.3365 49.373 53.2145ZM59.114 53.2145C59.114 49.6885 57.866 48.2255 56.06 48.2255C54.277 48.2255 53.0291 49.6885 53.0291 53.2145C53.0291 56.7405 54.277 58.2035 56.06 58.2035C57.866 58.2005 59.114 56.7395 59.114 53.2145Z" fill="white"/>
<path d="M9.98641 45.0842C9.0437 45.0846 8.12257 44.8019 7.34237 44.2728C6.56216 43.7437 5.95884 42.9926 5.61049 42.1166C5.26215 41.2406 5.18485 40.2802 5.38863 39.3597C5.59241 38.4393 6.06789 37.6013 6.75344 36.9542L43.4784 2.26929C44.352 1.4441 45.5082 0.984375 46.7099 0.984375C47.9116 0.984375 49.0678 1.4441 49.9414 2.26929L86.0304 36.3173C86.48 36.7415 86.8416 37.2501 87.0946 37.8141C87.3476 38.3781 87.4871 38.9864 87.505 39.6042C87.5229 40.2221 87.419 40.8375 87.1991 41.4152C86.9792 41.9929 86.6476 42.5216 86.2234 42.9712C85.7992 43.4208 85.2905 43.7824 84.7265 44.0354C84.1625 44.2884 83.5542 44.4279 82.9364 44.4458C82.3185 44.4637 81.7032 44.3598 81.1255 44.1399C80.5477 43.92 80.019 43.5884 79.5694 43.1642L46.7124 12.1642L13.2174 43.8003C12.3448 44.6265 11.1882 45.0861 9.98641 45.0842Z" fill="#00A9EA"/>
</svg>
