<svg width="100" height="75" viewBox="0 0 100 75" fill="none" xmlns="http://www.w3.org/2000/svg">
<path d="M9.32812 2.86918V64.1321C9.32812 64.1321 22.765 60.2171 50.275 72.9141V13.2392C50.275 13.2392 32.2881 -1.36282 9.32812 2.86918Z" fill="#00A9EA"/>
<path d="M50.2753 72.9136H2.02734V8.26562H9.32727" stroke="white" stroke-width="2.401" stroke-linecap="round" stroke-linejoin="round"/>
<path d="M91.2224 2.86918V64.1321C91.2224 64.1321 77.7854 60.2171 50.2754 72.9141V13.2392C50.2754 13.2392 68.2624 -1.36282 91.2224 2.86918Z" stroke="white" stroke-width="2.401" stroke-linecap="round" stroke-linejoin="round"/>
<path d="M50.2754 72.9136H98.5234V8.26562H91.2234" stroke="white" stroke-width="2.401" stroke-linecap="round" stroke-linejoin="round"/>
<path d="M59.9453 23.3599C66.5065 20.2077 73.6327 18.4018 80.9033 18.0488" stroke="white" stroke-width="2.401" stroke-linecap="round" stroke-linejoin="round"/>
<path d="M59.9453 32.2817C66.5067 29.1301 73.6328 27.3242 80.9033 26.9707" stroke="white" stroke-width="2.401" stroke-linecap="round" stroke-linejoin="round"/>
<path d="M59.9453 41.1996C66.5067 38.0479 73.6328 36.2422 80.9033 35.8887" stroke="white" stroke-width="2.401" stroke-linecap="round" stroke-linejoin="round"/>
<path d="M59.9453 50.1235C66.5067 46.9718 73.6328 45.1659 80.9033 44.8125" stroke="white" stroke-width="2.401" stroke-linecap="round" stroke-linejoin="round"/>
<path d="M25.1289 29.4844H31.6759V47.9844" stroke="#1A529E" stroke-width="2.744" stroke-linecap="round" stroke-linejoin="round"/>
<path d="M25.1289 48.3652H37.7489" stroke="#1A529E" stroke-width="2.744" stroke-linecap="round" stroke-linejoin="round"/>
<path d="M31.818 25.5795C33.5136 25.5795 34.888 24.205 34.888 22.5095C34.888 20.8139 33.5136 19.4395 31.818 19.4395C30.1225 19.4395 28.748 20.8139 28.748 22.5095C28.748 24.205 30.1225 25.5795 31.818 25.5795Z" fill="#1A529E"/>
</svg>
