<svg width="94" height="93" viewBox="0 0 94 93" fill="none" xmlns="http://www.w3.org/2000/svg">
<path d="M92.1409 50.4701V42.3701C92.1409 41.7142 91.8804 41.0852 91.4166 40.6215C90.9528 40.1577 90.3238 39.8971 89.6679 39.8971H86.4769C85.3433 39.8879 84.2432 39.5121 83.341 38.8257C82.4388 38.1393 81.7831 37.1792 81.4719 36.0891C80.7833 33.7869 79.8636 31.5603 78.7269 29.4431C78.1763 28.4515 77.9613 27.3083 78.1139 26.1843C78.2666 25.0604 78.7787 24.016 79.5739 23.2072L81.8229 20.9572C82.0531 20.7275 82.2357 20.4547 82.3602 20.1544C82.4848 19.8541 82.549 19.5323 82.549 19.2072C82.549 18.882 82.4848 18.5601 82.3602 18.2598C82.2357 17.9595 82.0531 17.6868 81.8229 17.4572L76.0959 11.7301C75.8663 11.4999 75.5935 11.3173 75.2932 11.1927C74.9929 11.0682 74.671 11.004 74.3459 11.004C74.0208 11.004 73.6989 11.0682 73.3986 11.1927C73.0983 11.3173 72.8255 11.4999 72.5959 11.7301L70.3459 13.9791C69.537 14.7743 68.4925 15.2864 67.3685 15.4388C66.2446 15.5913 65.1014 15.3761 64.1099 14.8252C61.9927 13.6888 59.7661 12.7694 57.4639 12.0812C56.3739 11.7699 55.4139 11.1141 54.7276 10.2119C54.0412 9.30976 53.6652 8.20972 53.6559 7.07617V3.88513C53.6559 3.22925 53.3954 2.60025 52.9316 2.13647C52.4678 1.6727 51.8388 1.41211 51.1829 1.41211H43.0829C42.427 1.41211 41.798 1.6727 41.3342 2.13647C40.8705 2.60025 40.6099 3.22925 40.6099 3.88513V7.07617C40.6005 8.20984 40.2244 9.30999 39.5379 10.2122C38.8513 11.1143 37.8911 11.77 36.8009 12.0812C34.4988 12.7691 32.2724 13.6888 30.1559 14.8262C29.1641 15.3767 28.0207 15.5916 26.8967 15.439C25.7726 15.2863 24.728 14.7742 23.9189 13.9791L21.6699 11.7301C21.4403 11.4999 21.1675 11.3173 20.8672 11.1927C20.5669 11.0682 20.245 11.004 19.9199 11.004C19.5948 11.004 19.2729 11.0682 18.9726 11.1927C18.6723 11.3173 18.3995 11.4999 18.1699 11.7301L12.4419 17.4572C12.212 17.6869 12.0296 17.9597 11.9052 18.26C11.7807 18.5603 11.7167 18.8821 11.7167 19.2072C11.7167 19.5322 11.7807 19.854 11.9052 20.1543C12.0296 20.4546 12.212 20.7274 12.4419 20.9572L14.6919 23.2062C15.4868 24.0154 15.9988 25.06 16.1512 26.1841C16.3037 27.3082 16.0885 28.4514 15.5379 29.4431C14.4016 31.5604 13.482 33.7871 12.7929 36.0891C12.482 37.1784 11.827 38.1379 10.9258 38.8242C10.0247 39.5106 8.92563 39.8869 7.79291 39.8971H4.60091C4.27619 39.8971 3.95466 39.9612 3.65468 40.0854C3.3547 40.2097 3.08214 40.3919 2.85259 40.6216C2.62303 40.8512 2.44096 41.1238 2.31679 41.4238C2.19262 41.7239 2.12878 42.0454 2.12891 42.3701V50.4701C2.12878 50.7948 2.19262 51.1165 2.31679 51.4165C2.44096 51.7165 2.62303 51.9891 2.85259 52.2188C3.08214 52.4484 3.3547 52.6306 3.65468 52.7549C3.95466 52.8792 4.27619 52.9431 4.60091 52.9431H7.79291C8.9258 52.9532 10.025 53.3298 10.9262 54.0164C11.8274 54.7029 12.4823 55.6627 12.7929 56.7522C13.4818 59.054 14.4014 61.2802 15.5379 63.3971C16.0885 64.3889 16.3037 65.5322 16.1512 66.6562C15.9988 67.7803 15.4868 68.8249 14.6919 69.6342L12.4429 71.8832C12.2127 72.1128 12.0302 72.3855 11.9056 72.6858C11.781 72.9861 11.7168 73.3081 11.7168 73.6332C11.7168 73.9583 11.781 74.2802 11.9056 74.5804C12.0302 74.8807 12.2127 75.1536 12.4429 75.3832L18.1699 81.1101C18.3995 81.3403 18.6723 81.5229 18.9726 81.6475C19.2729 81.7721 19.5948 81.8362 19.9199 81.8362C20.245 81.8362 20.5669 81.7721 20.8672 81.6475C21.1675 81.5229 21.4403 81.3403 21.6699 81.1101L23.9189 78.8612C24.7282 78.0663 25.7728 77.5543 26.8968 77.4019C28.0209 77.2494 29.1642 77.4645 30.1559 78.0151C32.2726 79.1517 34.499 80.0711 36.8009 80.7592C37.8911 81.0703 38.8513 81.726 39.5379 82.6282C40.2244 83.5303 40.6005 84.6305 40.6099 85.7642V88.9562C40.6102 89.6119 40.8708 90.2407 41.3346 90.7042C41.7983 91.1678 42.4272 91.4281 43.0829 91.4281H51.1829C51.8386 91.4281 52.4675 91.1678 52.9312 90.7042C53.395 90.2407 53.6556 89.6119 53.6559 88.9562V85.7642C53.6654 84.6307 54.0414 83.5307 54.7278 82.6285C55.4141 81.7264 56.374 81.0706 57.4639 80.7592C59.7661 80.0709 61.9928 79.1516 64.1099 78.0151C65.1015 77.4646 66.2446 77.2495 67.3685 77.402C68.4924 77.5545 69.5368 78.0664 70.3459 78.8612L72.5959 81.1101C72.8255 81.3403 73.0983 81.5229 73.3986 81.6475C73.6989 81.7721 74.0208 81.8362 74.3459 81.8362C74.671 81.8362 74.9929 81.7721 75.2932 81.6475C75.5935 81.5229 75.8663 81.3403 76.0959 81.1101L81.8229 75.3832C82.0531 75.1536 82.2357 74.8807 82.3602 74.5804C82.4848 74.2802 82.549 73.9583 82.549 73.6332C82.549 73.3081 82.4848 72.9861 82.3602 72.6858C82.2357 72.3855 82.0531 72.1128 81.8229 71.8832L79.5729 69.6342C78.778 68.8249 78.2661 67.7803 78.1136 66.6562C77.9611 65.5322 78.1763 64.3889 78.7269 63.3971C79.8636 61.2803 80.7833 59.0541 81.4719 56.7522C81.7829 55.6619 82.4385 54.7016 83.3407 54.015C84.2429 53.3284 85.3432 52.9523 86.4769 52.9431H89.6679C90.3238 52.9431 90.9528 52.6826 91.4166 52.2189C91.8804 51.7551 92.1409 51.126 92.1409 50.4701Z" stroke="#1A529E" stroke-width="2.4" stroke-miterlimit="10"/>
<path d="M47.1376 69.2498C59.7457 69.2498 69.9666 59.0289 69.9666 46.4208C69.9666 33.8127 59.7457 23.5918 47.1376 23.5918C34.5295 23.5918 24.3086 33.8127 24.3086 46.4208C24.3086 59.0289 34.5295 69.2498 47.1376 69.2498Z" fill="#1A529E"/>
<path d="M35.7227 48.6991L44.5276 55.8741L60.5077 37.2852" stroke="#00A9EA" stroke-width="2.8" stroke-linecap="round" stroke-linejoin="round"/>
</svg>
