<svg width="96" height="99" viewBox="0 0 96 99" fill="none" xmlns="http://www.w3.org/2000/svg">
<path d="M2.12695 97.666H94.426" stroke="white" stroke-width="2.609" stroke-linecap="round" stroke-linejoin="round"/>
<path d="M78.2749 46.8008V88.0067H69.875V46.8008" stroke="white" stroke-width="2.609" stroke-linecap="round" stroke-linejoin="round"/>
<path d="M26.8979 78.6152H17.5039V88.0092H26.8979V78.6152Z" stroke="white" stroke-width="2.609" stroke-linecap="round" stroke-linejoin="round"/>
<path d="M43.9838 71.6914H34.5898V88.0094H43.9838V71.6914Z" stroke="white" stroke-width="2.609" stroke-linecap="round" stroke-linejoin="round"/>
<path d="M61.0581 61.2109H51.6641V88.2399H61.0581V61.2109Z" fill="#00A9EA" stroke="#00A9EA" stroke-width="2.609" stroke-linecap="round" stroke-linejoin="round"/>
<path d="M64.8188 49.1455H58.2109C58.2109 49.1455 58.7488 41.7325 64.3188 37.1035" stroke="white" stroke-width="2.609" stroke-linecap="round" stroke-linejoin="round"/>
<path d="M82.5002 41.2413C89.1592 16.4923 74.0233 2.10938 74.0233 2.10938C74.0233 2.10938 58.8083 16.4923 65.4673 41.2413" stroke="white" stroke-width="2.609" stroke-linecap="round" stroke-linejoin="round"/>
<path d="M83.1484 49.1455H89.7563C89.7563 49.1455 89.2284 41.8655 83.7974 37.2285" stroke="white" stroke-width="2.609" stroke-linecap="round" stroke-linejoin="round"/>
<path d="M67.1445 12.6309H80.8605" stroke="white" stroke-width="2.609" stroke-linecap="round" stroke-linejoin="round"/>
<path d="M73.9829 22.2919C75.4199 22.2919 76.5849 21.1269 76.5849 19.6899C76.5849 18.2528 75.4199 17.0879 73.9829 17.0879C72.5458 17.0879 71.3809 18.2528 71.3809 19.6899C71.3809 21.1269 72.5458 22.2919 73.9829 22.2919Z" fill="white"/>
<path d="M73.9829 31.6044C75.4199 31.6044 76.5849 30.4394 76.5849 29.0024C76.5849 27.5653 75.4199 26.4004 73.9829 26.4004C72.5458 26.4004 71.3809 27.5653 71.3809 29.0024C71.3809 30.4394 72.5458 31.6044 73.9829 31.6044Z" fill="white"/>
<path d="M73.9829 40.9169C75.4199 40.9169 76.5849 39.7519 76.5849 38.3149C76.5849 36.8778 75.4199 35.7129 73.9829 35.7129C72.5458 35.7129 71.3809 36.8778 71.3809 38.3149C71.3809 39.7519 72.5458 40.9169 73.9829 40.9169Z" fill="white"/>
</svg>
