<svg id="Capa_1_copia" data-name="Capa 1 copia" xmlns="http://www.w3.org/2000/svg" viewBox="0 0 123.85 101.11"><defs><style>.cls-1,.cls-3{fill:none;stroke:#585857;stroke-linecap:round;stroke-linejoin:round;}.cls-1{stroke-width:2.75px;}.cls-2{fill:#00b6ed;}.cls-3{stroke-width:3.19px;}</style></defs><path class="cls-1" d="M51.91,53a9.8,9.8,0,0,0,6.75-3.46c1.6-1.94,2.69-4.64,3.88-6.86,1-1.88,1.83-3.84,2.83-5.72,3.14-5.93,8-10.52,12.53-15.41,2.56-2.81,5.07-5.45,5.63-9.38a47.32,47.32,0,0,0,0-7.53c0-1.68.45-3.1,2.36-3.2,6.33-.34,10.63,5,12,10.7A16,16,0,0,1,97,23a44.37,44.37,0,0,1-4.77,7.44c-1.54,2-3.39,4.68-2.29,7.34,1.29,3.11,5,3.28,7.9,3.11,4.21-.24,8.4-.58,12.61-.74,3.34-.14,7-.36,9.65,2.11,4.31,4.08,2.21,9.75-1.29,13.51.1.23,3,1.66,2.84,6.41-.39,4.32-4.7,5-4.82,6.5s2,2.64,2,5.81c.24,4.61-4.74,7.27-5.09,7.77-.85,1.23,5.4,14.69-16.27,15.23-2.47,0-9.61.12-10.7.12a18.49,18.49,0,0,1-2.47,0,19.41,19.41,0,0,1-2.74-.49c-1-.28-2-.71-3-1C75,94.92,72,92.75,68.56,91.68c-4.88-1.5-10.63-1.42-15.7-1.23"/><rect class="cls-1" x="28.79" y="48.63" width="22.24" height="51.11" rx="1.44"/><circle class="cls-2" cx="20.89" cy="42.92" r="19.51"/><circle class="cls-1" cx="20.89" cy="42.92" r="19.51"/><polyline class="cls-3" points="11.71 42.91 17.88 48.24 28.67 35.28"/></svg>