<svg width="97" height="101" viewBox="0 0 97 101" fill="none" xmlns="http://www.w3.org/2000/svg">
<path d="M1.63281 99.4155L3.22681 82.0376C3.39039 80.2563 4.15868 78.5845 5.40393 77.3003C6.64918 76.0161 8.29636 75.1968 10.0718 74.9785H16.1808L31.8138 91.3784H40.8248C41.8902 91.3784 42.9119 91.8018 43.6652 92.5552C44.4186 93.3085 44.8418 94.3301 44.8418 95.3955C44.8419 95.9231 44.7381 96.4457 44.5363 96.9331C44.3345 97.4205 44.0386 97.8633 43.6655 98.2363C43.2925 98.6094 42.8496 98.9051 42.3622 99.1069C41.8748 99.3088 41.3524 99.4127 40.8248 99.4126H25.0738C24.4986 99.4127 23.9304 99.2868 23.409 99.0439C22.8876 98.801 22.4257 98.4468 22.0558 98.0063L14.6608 89.2065" stroke="#474645" stroke-width="2.749" stroke-linecap="round" stroke-linejoin="round"/>
<path d="M20.3288 69.0044C25.5921 69.0044 29.8588 63.758 29.8588 57.2864C29.8588 50.8147 25.5921 45.5684 20.3288 45.5684C15.0656 45.5684 10.7988 50.8147 10.7988 57.2864C10.7988 63.758 15.0656 69.0044 20.3288 69.0044Z" stroke="#474645" stroke-width="2.749" stroke-linecap="round" stroke-linejoin="round"/>
<path d="M33.9863 84.8691L42.2374 72.5371H80.2374L68.5104 92.8999H48.7474" stroke="#474645" stroke-width="2.749" stroke-linecap="round" stroke-linejoin="round"/>
<path d="M16.3984 99.417H83.9264" stroke="#474645" stroke-width="2.749" stroke-linecap="round" stroke-linejoin="round"/>
<path d="M88.7274 51.8652H58.9564L46.7963 64.8921V51.8652H40.2584C38.5948 51.865 36.9995 51.2037 35.8233 50.0273C34.6471 48.851 33.9863 47.2553 33.9863 45.5918V7.97998C33.9862 7.15625 34.1484 6.34066 34.4635 5.57959C34.7786 4.81852 35.2406 4.12695 35.823 3.54443C36.4054 2.96192 37.0969 2.49983 37.8579 2.18457C38.6189 1.86931 39.4346 1.70703 40.2584 1.70703H88.7274C90.3911 1.70703 91.9866 2.36802 93.163 3.54443C94.3394 4.72085 95.0004 6.31628 95.0004 7.97998V45.5918C95.0001 47.2554 94.3391 48.851 93.1627 50.0273C91.9864 51.2037 90.391 51.865 88.7274 51.8652Z" stroke="#474645" stroke-width="2.749" stroke-linecap="round" stroke-linejoin="round"/>
<path d="M64.2296 29.1955C68.4198 29.1955 71.8166 25.7987 71.8166 21.6085C71.8166 17.4183 68.4198 14.0215 64.2296 14.0215C60.0394 14.0215 56.6426 17.4183 56.6426 21.6085C56.6426 25.7987 60.0394 29.1955 64.2296 29.1955Z" fill="#00A9EA"/>
<path d="M64.2296 29.1955C68.4198 29.1955 71.8166 25.7987 71.8166 21.6085C71.8166 17.4183 68.4198 14.0215 64.2296 14.0215C60.0394 14.0215 56.6426 17.4183 56.6426 21.6085C56.6426 25.7987 60.0394 29.1955 64.2296 29.1955Z" stroke="#474645" stroke-width="2.749" stroke-linecap="round" stroke-linejoin="round"/>
<path d="M75.3637 43.1069C75.0386 40.3825 73.7258 37.8719 71.6739 36.0503C69.622 34.2287 66.9735 33.2227 64.2297 33.2227C61.4859 33.2227 58.8373 34.2287 56.7855 36.0503C54.7336 37.8719 53.4208 40.3825 53.0957 43.1069" stroke="#474645" stroke-width="2.749" stroke-linecap="round" stroke-linejoin="round"/>
</svg>
