<svg width="126" height="105" viewBox="0 0 126 105" fill="none" xmlns="http://www.w3.org/2000/svg">
<path d="M95.1342 48.9296C104.625 48.9296 112.319 41.2356 112.319 31.7446C112.319 22.2536 104.625 14.5596 95.1342 14.5596C85.6432 14.5596 77.9492 22.2536 77.9492 31.7446C77.9492 41.2356 85.6432 48.9296 95.1342 48.9296Z" stroke="#474645" stroke-width="2.749" stroke-linecap="round" stroke-linejoin="round"/>
<path d="M90.0168 30.6299C89.924 30.6305 89.8321 30.6128 89.7462 30.5776C89.6604 30.5424 89.5824 30.4904 89.5168 30.4248L85.7918 26.6992C85.66 26.5674 85.5859 26.3886 85.5859 26.2021C85.5859 26.0157 85.66 25.8369 85.7918 25.7051C85.9236 25.5733 86.1024 25.499 86.2888 25.499C86.4752 25.499 86.654 25.5733 86.7858 25.7051L90.5108 29.4312C90.6108 29.5291 90.6791 29.6544 90.707 29.7915C90.7348 29.9286 90.721 30.071 90.6671 30.2002C90.6133 30.3294 90.522 30.4393 90.405 30.5161C90.288 30.5929 90.1507 30.6329 90.0108 30.6309L90.0168 30.6299Z" fill="#474645"/>
<path d="M86.2922 30.6299C86.1523 30.6319 86.015 30.5919 85.898 30.5151C85.781 30.4384 85.6897 30.3284 85.6359 30.1992C85.5821 30.0701 85.5682 29.9277 85.5961 29.7905C85.6239 29.6534 85.6923 29.5281 85.7922 29.4302L89.5172 25.7041C89.649 25.5723 89.8278 25.498 90.0142 25.498C90.2006 25.498 90.3794 25.5723 90.5112 25.7041C90.643 25.8359 90.7171 26.0148 90.7171 26.2012C90.7171 26.3876 90.643 26.5664 90.5112 26.6982L86.7862 30.4238C86.6553 30.5552 86.4777 30.6294 86.2922 30.6299Z" fill="#474645"/>
<path d="M104.331 30.6299C104.238 30.6305 104.147 30.6128 104.061 30.5776C103.975 30.5424 103.897 30.4904 103.831 30.4248L100.106 26.6992C100.041 26.634 99.9892 26.5565 99.9539 26.4712C99.9186 26.3859 99.9004 26.2944 99.9004 26.2021C99.9004 26.1098 99.9186 26.0184 99.9539 25.9331C99.9892 25.8478 100.041 25.7703 100.106 25.7051C100.171 25.6398 100.249 25.5881 100.334 25.5527C100.42 25.5174 100.511 25.499 100.603 25.499C100.696 25.499 100.787 25.5174 100.872 25.5527C100.957 25.5881 101.035 25.6398 101.1 25.7051L104.825 29.4312C104.925 29.5291 104.994 29.6544 105.021 29.7915C105.049 29.9286 105.035 30.071 104.982 30.2002C104.928 30.3294 104.836 30.4393 104.719 30.5161C104.602 30.5929 104.465 30.6329 104.325 30.6309L104.331 30.6299Z" fill="#474645"/>
<path d="M100.607 30.6299C100.467 30.6319 100.329 30.5919 100.212 30.5151C100.095 30.4384 100.004 30.3284 99.9503 30.1992C99.8965 30.0701 99.8826 29.9277 99.9105 29.7905C99.9384 29.6534 100.007 29.5281 100.107 29.4302L103.832 25.7041C103.963 25.5723 104.142 25.498 104.329 25.498C104.515 25.498 104.694 25.5723 104.826 25.7041C104.957 25.8359 105.032 26.0148 105.032 26.2012C105.032 26.3876 104.957 26.5664 104.826 26.6982L101.101 30.4238C100.97 30.5552 100.792 30.6294 100.607 30.6299Z" fill="#474645"/>
<path d="M51.2798 48.9306C60.7713 48.9306 68.4658 41.2362 68.4658 31.7446C68.4658 22.253 60.7713 14.5586 51.2798 14.5586C41.7882 14.5586 34.0938 22.253 34.0938 31.7446C34.0938 41.2362 41.7882 48.9306 51.2798 48.9306Z" fill="#00A9EA"/>
<path d="M51.2798 48.9306C60.7713 48.9306 68.4658 41.2362 68.4658 31.7446C68.4658 22.253 60.7713 14.5586 51.2798 14.5586C41.7882 14.5586 34.0938 22.253 34.0938 31.7446C34.0938 41.2362 41.7882 48.9306 51.2798 48.9306Z" stroke="#474645" stroke-width="2.749" stroke-linecap="round" stroke-linejoin="round"/>
<path d="M51.2798 48.9306C60.7713 48.9306 68.4658 41.2362 68.4658 31.7446C68.4658 22.253 60.7713 14.5586 51.2798 14.5586C41.7882 14.5586 34.0938 22.253 34.0938 31.7446C34.0938 41.2362 41.7882 48.9306 51.2798 48.9306Z" stroke="#474645" stroke-width="2.749" stroke-linecap="round" stroke-linejoin="round"/>
<path d="M45.0491 34.6348C48.9186 35.9051 53.0972 35.8771 56.949 34.5542C58.3192 34.0938 59.6053 33.4134 60.757 32.5401C61.114 32.2651 61.767 31.6871 62.186 32.2251C62.425 32.5331 62.224 33.0459 62.059 33.3409C61.6009 34.0243 61.004 34.6038 60.307 35.041C59.4524 35.6611 58.5248 36.1735 57.5451 36.5669C55.8793 37.2305 54.1172 37.6211 52.327 37.7232C51.656 37.7682 50.982 37.7798 50.309 37.7588H50.249C49.2912 37.726 48.3368 37.626 47.393 37.459C45.5886 37.1451 43.8505 36.5268 42.253 35.6309C42.08 35.5309 41.907 35.4311 41.737 35.3311C41.1447 35.0362 40.6445 34.5843 40.291 34.0249C40.1601 33.8081 40.1185 33.5487 40.175 33.3018C40.2427 33.1173 40.378 32.9659 40.5535 32.8775C40.729 32.7891 40.9315 32.7708 41.12 32.8262C41.6974 32.9999 42.2447 33.2608 42.7431 33.6001C43.3026 33.9131 43.8821 34.1884 44.478 34.4248C44.666 34.4988 44.8564 34.5688 45.0491 34.6348Z" fill="#474645"/>
<path d="M100.048 38.0201C98.547 37.3912 96.9337 37.074 95.3063 37.088C93.6788 37.1019 92.0712 37.4466 90.5811 38.1011C89.4576 38.5832 88.4309 39.265 87.5511 40.1138C87.2681 40.3888 86.7511 40.9673 86.4151 40.4293C86.3518 40.2468 86.3281 40.0528 86.3453 39.8604C86.3625 39.668 86.4204 39.4814 86.5151 39.3131C86.8577 38.6567 87.3319 38.0779 87.9081 37.6129C88.5687 37.0067 89.3089 36.4934 90.1081 36.087C91.4013 35.4308 92.8119 35.0381 94.2581 34.9312C94.7918 34.8864 95.3278 34.874 95.8631 34.8941H95.9091C96.6738 34.9269 97.4341 35.0271 98.1811 35.1939C99.6526 35.5238 101.043 36.1455 102.27 37.022C102.408 37.122 102.545 37.2218 102.68 37.3218C103.175 37.6447 103.573 38.0963 103.831 38.628C103.936 38.854 103.968 39.1072 103.922 39.3521C103.908 39.4346 103.876 39.5134 103.83 39.5831C103.783 39.6527 103.723 39.7116 103.652 39.7564C103.581 39.8012 103.502 39.831 103.419 39.8433C103.336 39.8556 103.252 39.8505 103.171 39.8282C102.699 39.6468 102.262 39.385 101.88 39.0543C101.441 38.7452 100.98 38.4692 100.5 38.2291C100.349 38.1544 100.198 38.0847 100.048 38.0201Z" fill="#474645"/>
<path d="M46.9523 27.9134C47.1695 26.9932 46.5996 26.0711 45.6794 25.8539C44.7592 25.6367 43.8371 26.2065 43.6199 27.1268C43.4027 28.047 43.9725 28.9691 44.8928 29.1863C45.813 29.4035 46.7351 28.8336 46.9523 27.9134Z" fill="#474645"/>
<path d="M58.9408 27.9145C59.1584 26.9944 58.5887 26.0721 57.6686 25.8546C56.7484 25.6371 55.8262 26.2067 55.6087 27.1269C55.3912 28.047 55.9608 28.9693 56.8809 29.1868C57.8011 29.4043 58.7233 28.8347 58.9408 27.9145Z" fill="#474645"/>
<path d="M116.383 60.6519H53.4065L38.5065 76.6118V60.6519H30.4965C28.4586 60.6519 26.5041 59.8424 25.0631 58.4014C23.6221 56.9603 22.8125 55.0057 22.8125 52.9678V10.0112C22.8125 7.97331 23.6221 6.01867 25.0631 4.57764C26.5041 3.13661 28.4586 2.32715 30.4965 2.32715H116.379C118.416 2.32715 120.371 3.13661 121.812 4.57764C123.253 6.01867 124.063 7.97331 124.062 10.0112V52.9678C124.063 55.005 123.253 56.959 121.813 58.3999C120.373 59.8408 118.42 60.6508 116.383 60.6519Z" stroke="#474645" stroke-width="2.749" stroke-linecap="round" stroke-linejoin="round"/>
<path d="M15.9943 84.3713C21.4967 84.3713 25.9573 79.9107 25.9573 74.4083C25.9573 68.9059 21.4967 64.4453 15.9943 64.4453C10.4918 64.4453 6.03125 68.9059 6.03125 74.4083C6.03125 79.9107 10.4918 84.3713 15.9943 84.3713Z" stroke="#474645" stroke-width="2.749" stroke-linecap="round" stroke-linejoin="round"/>
<path d="M30.6161 102.642C30.1896 99.0634 28.4658 95.7656 25.7711 93.373C23.0765 90.9805 19.5981 89.6592 15.9946 89.6592C12.3911 89.6592 8.91263 90.9805 6.21799 93.373C3.52334 95.7656 1.79955 99.0634 1.37305 102.642" stroke="#474645" stroke-width="2.749" stroke-linecap="round" stroke-linejoin="round"/>
</svg>
