<svg width="99" height="95" viewBox="0 0 99 95" fill="none" xmlns="http://www.w3.org/2000/svg">
<path d="M90.5385 62.9375V9.69336C90.5385 9.45112 90.4908 9.21158 90.3981 8.98779C90.3053 8.764 90.1694 8.5604 89.998 8.38916C89.8267 8.21792 89.6233 8.08236 89.3995 7.98975C89.1756 7.89714 88.9357 7.84948 88.6935 7.84961H10.6165C10.1274 7.84961 9.65823 8.04386 9.31226 8.38965C8.96628 8.73544 8.77175 9.20421 8.77148 9.69336V62.9375H90.5385Z" stroke="white" stroke-width="2.749" stroke-linecap="round" stroke-linejoin="round"/>
<path d="M91.2928 1.63379H8.01683C4.72079 1.63379 2.04883 4.30575 2.04883 7.60179V67.7078C2.04883 71.0038 4.72079 73.6758 8.01683 73.6758H91.2928C94.5889 73.6758 97.2608 71.0038 97.2608 67.7078V7.60179C97.2608 4.30575 94.5889 1.63379 91.2928 1.63379Z" stroke="#474645" stroke-width="2.749" stroke-linecap="round" stroke-linejoin="round"/>
<path d="M90.5385 60.2314V9.69336C90.5385 9.45112 90.4908 9.21158 90.3981 8.98779C90.3053 8.764 90.1694 8.5604 89.998 8.38916C89.8267 8.21792 89.6233 8.08236 89.3995 7.98975C89.1756 7.89714 88.9357 7.84948 88.6935 7.84961H10.6165C10.1274 7.84961 9.65823 8.04386 9.31226 8.38965C8.96628 8.73544 8.77175 9.20421 8.77148 9.69336V60.2314H90.5385Z" stroke="#474645" stroke-width="2.749" stroke-linecap="round" stroke-linejoin="round"/>
<path d="M70.7948 86.8242H28.2628C26.4651 86.8242 25.0078 88.2815 25.0078 90.0792V90.0802C25.0078 91.8779 26.4651 93.3352 28.2628 93.3352H70.7948C72.5925 93.3352 74.0498 91.8779 74.0498 90.0802V90.0792C74.0498 88.2815 72.5925 86.8242 70.7948 86.8242Z" stroke="#474645" stroke-width="2.749" stroke-linecap="round" stroke-linejoin="round"/>
<path d="M41.1576 73.6748C41.1576 73.6748 43.2716 85.8092 31.5176 86.8242H65.5096C65.5096 86.8242 58.0536 85.2168 57.6386 73.6748H41.1576Z" stroke="#474645" stroke-width="2.749" stroke-linecap="round" stroke-linejoin="round"/>
<mask id="mask0_101_298" style="mask-type:luminance" maskUnits="userSpaceOnUse" x="8" y="7" width="83" height="54">
<path d="M90.5385 60.2314V9.69336C90.5385 9.45112 90.4908 9.21158 90.3981 8.98779C90.3053 8.764 90.1694 8.5604 89.998 8.38916C89.8267 8.21792 89.6233 8.08236 89.3995 7.98975C89.1756 7.89714 88.9357 7.84948 88.6935 7.84961H10.6165C10.1274 7.84961 9.65823 8.04386 9.31226 8.38965C8.96628 8.73544 8.77175 9.20421 8.77148 9.69336V60.2314H90.5385Z" fill="white"/>
</mask>
<g mask="url(#mask0_101_298)">
<path d="M55.7053 46.6939C64.5021 46.6939 71.6333 39.5627 71.6333 30.7659C71.6333 21.9691 64.5021 14.8379 55.7053 14.8379C46.9086 14.8379 39.7773 21.9691 39.7773 30.7659C39.7773 39.5627 46.9086 46.6939 55.7053 46.6939Z" fill="#00A9EA"/>
<path d="M55.7053 46.6939C64.5021 46.6939 71.6333 39.5627 71.6333 30.7659C71.6333 21.9691 64.5021 14.8379 55.7053 14.8379C46.9086 14.8379 39.7773 21.9691 39.7773 30.7659C39.7773 39.5627 46.9086 46.6939 55.7053 46.6939Z" stroke="#474645" stroke-width="2.749" stroke-linecap="round" stroke-linejoin="round"/>
<path d="M55.7053 46.6939C64.5021 46.6939 71.6333 39.5627 71.6333 30.7659C71.6333 21.9691 64.5021 14.8379 55.7053 14.8379C46.9086 14.8379 39.7773 21.9691 39.7773 30.7659C39.7773 39.5627 46.9086 46.6939 55.7053 46.6939Z" stroke="#474645" stroke-width="2.749" stroke-linecap="round" stroke-linejoin="round"/>
<path d="M61.3064 37.689C59.6477 39.0316 57.562 39.7338 55.429 39.668C53.2961 39.6021 51.2576 38.7725 49.6849 37.3301C48.1122 35.8877 47.1097 33.9284 46.86 31.8091C46.6103 29.6898 47.13 27.5516 48.3244 25.7832L61.3064 37.689Z" fill="#474645"/>
<path d="M51.2129 22.5376C51.2129 22.5376 55.3199 21.3574 55.5419 25.7314" stroke="#474645" stroke-width="2.749" stroke-linecap="round" stroke-linejoin="round"/>
<path d="M60.9609 30.6294C60.9609 30.6294 65.068 29.4488 65.29 33.8238" stroke="#474645" stroke-width="2.749" stroke-linecap="round" stroke-linejoin="round"/>
<path d="M39.736 78.9316C39.582 78.5886 40.078 78.0834 40.257 77.8594C40.703 77.3014 41.109 76.7177 41.55 76.1597C42.584 74.8507 43.707 73.6193 44.622 72.2183C45.315 71.1553 45.85 69.9293 45.161 68.7183C44.7294 68.0601 44.1818 67.4859 43.5449 67.0234L39.515 63.7144C38.574 62.9424 37.467 61.9505 37.997 60.6055C38.3952 59.7984 39.0339 59.1347 39.825 58.7056C41.41 57.6796 43.5379 56.6667 44.3809 54.8657C45.5559 52.3547 43.521 50.5024 41.875 48.8794C41.3989 48.4945 41.0144 48.0087 40.7491 47.457C40.4838 46.9053 40.3444 46.3016 40.341 45.6895C40.418 45.2314 40.593 44.7955 40.8539 44.4111C41.1148 44.0268 41.4556 43.703 41.853 43.4624C42.65 42.9872 43.5121 42.6307 44.412 42.4043" stroke="#474645" stroke-width="2.749" stroke-linecap="round" stroke-linejoin="round"/>
</g>
</svg>
