<svg width="103" height="117" viewBox="0 0 103 117" fill="none" xmlns="http://www.w3.org/2000/svg">
<path d="M97.6668 108.601H24.4928C23.4868 108.605 22.5202 108.211 21.8047 107.503C21.0891 106.796 20.6832 105.835 20.6758 104.829V6.00053C20.6832 4.99461 21.0891 4.0328 21.8047 3.32572C22.5202 2.61864 23.4868 2.22403 24.4928 2.22855H74.8358C76.3645 2.22723 77.8316 2.83103 78.9168 3.90775L99.8168 24.7134C100.345 25.2374 100.764 25.8605 101.05 26.5469C101.337 27.2334 101.485 27.9696 101.486 28.7134V104.824C101.48 105.831 101.074 106.794 100.358 107.502C99.6419 108.211 98.6739 108.606 97.6668 108.601Z" stroke="#474645" stroke-width="2.749" stroke-linecap="round" stroke-linejoin="round"/>
<path d="M57.478 108.8L23.901 114.83C23.4111 114.921 22.9081 114.914 22.4207 114.811C21.9333 114.708 21.471 114.509 21.0603 114.227C20.6496 113.945 20.2984 113.585 20.027 113.167C19.7555 112.749 19.569 112.282 19.478 111.792L2.01503 14.521C1.92968 14.03 1.94191 13.5272 2.05104 13.041C2.16016 12.5548 2.36405 12.0944 2.65101 11.687C2.93797 11.2796 3.30239 10.933 3.72346 10.6665C4.14453 10.4 4.614 10.2188 5.10502 10.1338L20.675 7.33398" stroke="#474645" stroke-width="2.749" stroke-linecap="round" stroke-linejoin="round"/>
<path d="M76.9953 2.22949L76.9883 4.35156V21.5776C76.996 22.889 77.5242 24.1435 78.4568 25.0654C79.3894 25.9873 80.6499 26.5011 81.9613 26.4937H101.471L76.9953 2.22949Z" fill="#00A9EA"/>
<path d="M76.9953 2.22949L76.9883 4.35156V21.5776C76.996 22.889 77.5242 24.1435 78.4568 25.0654C79.3894 25.9873 80.6499 26.5011 81.9613 26.4937H101.471L76.9953 2.22949Z" stroke="#474645" stroke-width="2.749" stroke-linecap="round" stroke-linejoin="round"/>
<path d="M41.7793 44.1465H64.5513" stroke="#474645" stroke-width="2.749" stroke-linecap="round" stroke-linejoin="round"/>
<path d="M41.7793 58.0225H80.3823" stroke="#474645" stroke-width="2.749" stroke-linecap="round" stroke-linejoin="round"/>
<path d="M41.5488 71.8984H80.6098" stroke="#474645" stroke-width="2.749" stroke-linecap="round" stroke-linejoin="round"/>
<path d="M41.7793 85.7734H80.3823" stroke="#474645" stroke-width="2.749" stroke-linecap="round" stroke-linejoin="round"/>
</svg>
