<svg width="108" height="92" viewBox="0 0 108 92" fill="none" xmlns="http://www.w3.org/2000/svg">
<path d="M87.6362 1.45605H1.36719V69.6761H87.6362V1.45605Z" stroke="#474645" stroke-width="2.749" stroke-linecap="round" stroke-linejoin="round"/>
<path d="M94.0914 20.4707L106.101 21.9834L97.5764 89.6685L11.9844 78.8877L12.7634 72.7056" stroke="#474645" stroke-width="2.749" stroke-linecap="round" stroke-linejoin="round"/>
<path d="M14.5215 59.5796L37.7715 37.8594L48.4785 48.7197" stroke="#474645" stroke-width="2.749" stroke-linecap="round" stroke-linejoin="round"/>
<path d="M39.9141 58.0503L59.4932 37.8594L80.9071 59.5796" stroke="#474645" stroke-width="2.749" stroke-linecap="round" stroke-linejoin="round"/>
<path d="M22.4685 36.3647C26.8575 36.3647 30.4155 32.8067 30.4155 28.4177C30.4155 24.0287 26.8575 20.4707 22.4685 20.4707C18.0795 20.4707 14.5215 24.0287 14.5215 28.4177C14.5215 32.8067 18.0795 36.3647 22.4685 36.3647Z" fill="#00A9EA"/>
<path d="M22.4685 36.3647C26.8575 36.3647 30.4155 32.8067 30.4155 28.4177C30.4155 24.0287 26.8575 20.4707 22.4685 20.4707C18.0795 20.4707 14.5215 24.0287 14.5215 28.4177C14.5215 32.8067 18.0795 36.3647 22.4685 36.3647Z" stroke="#474645" stroke-width="2.749" stroke-linecap="round" stroke-linejoin="round"/>
</svg>
