<svg width="112" height="109" viewBox="0 0 112 109" fill="none" xmlns="http://www.w3.org/2000/svg">
<path d="M83.2608 45.6104C84.4124 45.6104 85.5527 45.8371 86.6166 46.2778C87.6805 46.7185 88.6472 47.3644 89.4615 48.1787C90.2758 48.993 90.9217 49.96 91.3624 51.0239C91.8031 52.0878 92.0299 53.2278 92.0299 54.3794V58.0073C92.0299 58.0073 92.8458 66.0454 83.2608 66.0454C73.6758 66.0454 74.4919 58.0073 74.4919 58.0073V54.3794C74.4919 52.0537 75.4157 49.8232 77.0602 48.1787C78.7048 46.5342 80.9351 45.6104 83.2608 45.6104Z" stroke="#474645" stroke-width="2.749" stroke-linecap="round" stroke-linejoin="round"/>
<path d="M62.8027 76.7847C62.8027 76.7847 63.8578 70.2236 75.3478 67.9146C75.9438 67.799 76.5474 67.7259 77.1538 67.6963C78.8278 67.6033 79.6488 67.5703 79.6488 67.5703C79.6488 67.5703 84.3898 67.7355 88.1118 68.0615C92.2357 68.6288 96.2582 69.7786 100.059 71.4766C101.583 72.1335 102.88 73.2246 103.789 74.6138C104.697 76.003 105.176 77.6288 105.167 79.2886L106.867 95.4126C106.867 95.4126 107.867 105.127 98.5538 104.926L81.6018 102.827" stroke="#474645" stroke-width="2.749" stroke-linecap="round" stroke-linejoin="round"/>
<path d="M94.9474 82.6934L95.5974 93.8105L78.5234 91.4106L84.1315 82.6978" stroke="#474645" stroke-width="2.749" stroke-linecap="round" stroke-linejoin="round"/>
<path d="M59.999 98.1162L55.793 81.291H74.922L82.307 106.929H65.707L59.999 98.1162Z" fill="#00A9EA"/>
<path d="M59.999 98.1162L55.793 81.291H74.922L82.307 106.929H65.707L59.999 98.1162Z" stroke="#474645" stroke-width="2.749" stroke-linecap="round" stroke-linejoin="round"/>
<path d="M59.999 98.1162L55.793 81.291H74.922L82.307 106.929H65.707L59.999 98.1162Z" stroke="#474645" stroke-width="2.749" stroke-linecap="round" stroke-linejoin="round"/>
<path d="M47.2793 90.5055V95.7125C47.2793 95.7125 47.4793 100.921 42.9733 100.921H36.9643C36.9643 100.921 32.0563 100.721 32.0563 95.7125C32.0563 95.7125 32.4563 92.0075 29.5563 90.5055C29.5563 90.5055 26.2513 87.9055 23.3463 90.5055C23.3463 90.5055 19.6463 95.1125 15.0343 91.5055L10.6273 87.0997C10.6273 87.0997 7.82728 84.0995 11.4273 80.0885C12.2757 79.2617 12.8683 78.2086 13.1343 77.0543C13.4003 75.8999 13.3284 74.6933 12.9273 73.5787C12.2806 72.4426 11.298 71.5347 10.1144 70.9796C8.93083 70.4245 7.60432 70.2494 6.31729 70.4786C6.31729 70.4786 1.30936 71.0786 1.71036 65.2706V60.5636C1.71036 60.5636 1.71032 55.0547 6.71732 54.9547C6.71732 54.9547 11.4244 56.0544 13.0274 52.1544C13.0274 52.1544 14.5273 48.2484 12.2273 46.4464C12.2273 46.4464 8.02028 42.4765 10.4273 39.0035L15.3344 34.0274C15.7148 33.6262 16.1729 33.3069 16.6808 33.0885C17.1888 32.8701 17.7359 32.7574 18.2888 32.7574C18.8418 32.7574 19.3889 32.8701 19.8969 33.0885C20.4048 33.3069 20.8629 33.6262 21.2433 34.0274C21.2433 34.0274 25.5503 38.5345 29.2553 36.1275C30.1848 35.472 30.9181 34.5754 31.3763 33.5343C31.8344 32.4931 32 31.3471 31.8554 30.2188C31.8554 30.2188 30.9553 24.1095 39.8673 24.7105C39.8673 24.7105 46.8783 24.6684 47.2793 29.2174C47.2793 29.2174 47.2793 33.6234 49.3793 35.1764C49.3793 35.1764 53.5863 38.6314 56.7903 35.1764C56.7903 35.1764 60.2964 31.0194 64.0014 33.9244L68.2083 37.7296" stroke="#474645" stroke-width="2.749" stroke-linecap="round" stroke-linejoin="round"/>
<path d="M39.3663 76.6838C47.0547 76.6838 53.2873 70.4512 53.2873 62.7628C53.2873 55.0744 47.0547 48.8418 39.3663 48.8418C31.678 48.8418 25.4453 55.0744 25.4453 62.7628C25.4453 70.4512 31.678 76.6838 39.3663 76.6838Z" stroke="#474645" stroke-width="2.749" stroke-linecap="round" stroke-linejoin="round"/>
<path d="M82.6799 39.3305C88.0464 39.3305 92.3969 34.98 92.3969 29.6135C92.3969 24.2469 88.0464 19.8965 82.6799 19.8965C77.3133 19.8965 72.9629 24.2469 72.9629 29.6135C72.9629 34.98 77.3133 39.3305 82.6799 39.3305Z" stroke="#474645" stroke-width="2.749" stroke-linecap="round" stroke-linejoin="round"/>
<path d="M55.6931 28.6125C55.6931 28.6125 55.4932 23.3047 59.3982 23.6047C59.3982 23.6047 62.0982 23.9046 63.4042 22.0046C63.7226 21.6216 63.9561 21.1755 64.0892 20.6955C64.2224 20.2156 64.2522 19.7127 64.1765 19.2204C64.1009 18.7282 63.9216 18.2579 63.6505 17.8401C63.3795 17.4222 63.0228 17.0664 62.6041 16.7966C62.6041 16.7966 59.9041 14.0966 62.1041 11.5886L64.6041 8.98851C64.9472 8.61766 65.3618 8.32015 65.8228 8.11351C66.2838 7.90687 66.7818 7.7957 67.2869 7.78636C67.792 7.77702 68.2938 7.86986 68.7621 8.05931C69.2304 8.24877 69.6556 8.53099 70.0121 8.8889C70.0121 8.8889 72.8121 11.4889 75.2201 10.3889C75.2201 10.3889 77.8202 9.48855 77.4202 5.88255C77.4202 5.88255 76.5202 1.7766 82.9292 2.2766C82.9292 2.2766 88.1362 2.07667 88.2372 5.48167C88.2372 5.48167 87.7371 9.58768 90.6371 10.6897C90.6371 10.6897 93.5422 11.6898 95.1442 9.28978C95.1442 9.28978 97.9442 6.38478 101.654 9.78978C101.654 9.78978 105.76 12.8899 103.454 16.0989C102.743 16.6556 102.205 17.4032 101.904 18.2546C101.603 19.106 101.551 20.0255 101.754 20.9055C101.754 20.9055 101.954 23.9056 105.76 24.1106C105.76 24.1106 109.966 24.211 109.766 29.219C109.766 29.219 109.966 35.1277 105.66 34.6267C105.66 34.6267 102.56 34.3265 101.554 36.9265C101.554 36.9265 100.654 39.8316 102.854 41.2336C102.854 41.2336 106.891 43.9506 102.777 48.4026" stroke="#474645" stroke-width="2.749" stroke-linecap="round" stroke-linejoin="round"/>
</svg>
