<svg id="Capa_1_copia" data-name="Capa 1 copia" xmlns="http://www.w3.org/2000/svg" viewBox="0 0 106.01 120.43"><defs><style>.cls-1,.cls-3{fill:none;stroke:#585857;stroke-linecap:round;stroke-linejoin:round;}.cls-1{stroke-width:2.75px;}.cls-2{fill:#00b6ed;}.cls-3{stroke-width:3.19px;}</style></defs><circle class="cls-1" cx="53.01" cy="70.25" r="12.62"/><path class="cls-1" d="M28.24,119.06A24.77,24.77,0,0,1,53,94.29h0a24.77,24.77,0,0,1,24.77,24.77"/><circle class="cls-1" cx="20.88" cy="71.79" r="9.94"/><path class="cls-1" d="M1.37,110.23A19.51,19.51,0,0,1,20.88,90.72h0a19.41,19.41,0,0,1,12.28,4.35"/><circle class="cls-1" cx="85.13" cy="71.79" r="9.94"/><path class="cls-1" d="M104.64,110.23A19.5,19.5,0,0,0,85.13,90.72h0a19.43,19.43,0,0,0-12.28,4.35"/><circle class="cls-2" cx="53.34" cy="20.89" r="19.51"/><circle class="cls-1" cx="53.34" cy="20.89" r="19.51"/><polyline class="cls-3" points="44.16 20.89 50.33 26.21 61.13 13.25"/></svg>