<svg id="Capa_1_copia" data-name="Capa 1 copia" xmlns="http://www.w3.org/2000/svg" viewBox="0 0 120.55 107.12"><defs><style>.cls-1,.cls-2{fill:none;stroke:#fff;stroke-linecap:round;stroke-linejoin:round;}.cls-1{stroke-width:3.92px;}.cls-2{stroke-width:3.62px;}</style></defs><polyline class="cls-1" points="18.54 53.98 18.54 105.16 102.01 105.16 102.01 53.98"/><polyline class="cls-1" points="1.96 54.15 61.21 1.96 118.59 54.15"/><circle class="cls-1" cx="60.27" cy="63.42" r="23.21"/><line class="cls-2" x1="61.19" y1="48.85" x2="61.19" y2="77.99"/><path class="cls-2" d="M67.25,54.54a10.09,10.09,0,0,0-7.56-2.15c-2.95.35-6,3.11-5,6.43A5.51,5.51,0,0,0,57,61.61c2.11,1.43,4.57,1.9,6.95,2.67a7.76,7.76,0,0,1,3.46,2,4,4,0,0,1-.83,6,9.49,9.49,0,0,1-6.23,1.51,13.91,13.91,0,0,1-6.44-2.39"/></svg>