<svg id="Capa_1_copia" data-name="Capa 1 copia" xmlns="http://www.w3.org/2000/svg" viewBox="0 0 120.47 117.17"><defs><style>.cls-1,.cls-2{fill:none;stroke:#fff;stroke-linecap:round;stroke-linejoin:round;}.cls-1{stroke-width:4.49px;}.cls-2{stroke-width:3.6px;}</style></defs><path class="cls-1" d="M5.2,77.93A54.83,54.83,0,0,1,48.8,6"/><path class="cls-1" d="M98,96.47a54.79,54.79,0,0,1-84.31-2.78"/><path class="cls-1" d="M68.06,6.49a54.83,54.83,0,0,1,39.11,75.72"/><polyline class="cls-1" points="34.03 2.25 48.8 5.99 37.93 16.78"/><polyline class="cls-1" points="118.23 70.84 106.54 83.76 105.03 66.57"/><polyline class="cls-1" points="19.21 110.22 13.71 93.69 28.84 98.45"/><circle class="cls-1" cx="57.02" cy="60.15" r="17.75"/><line class="cls-2" x1="57.72" y1="49.01" x2="57.72" y2="71.29"/><path class="cls-2" d="M62.36,53.36a7.79,7.79,0,0,0-5.79-1.65c-2.25.27-4.61,2.38-3.81,4.92a4.25,4.25,0,0,0,1.72,2.14,20.35,20.35,0,0,0,5.31,2,5.78,5.78,0,0,1,2.64,1.54A3.07,3.07,0,0,1,61.8,67,7.26,7.26,0,0,1,57,68.11a10.64,10.64,0,0,1-4.92-1.83"/><path class="cls-1" d="M95.13,63.23V56.86L84,54.82a27.34,27.34,0,0,0-4.16-10l6.31-9.41-4.51-4.51L72.33,37.3a27.2,27.2,0,0,0-10-4.15L60.11,22H53.73l-2,11.12a27.35,27.35,0,0,0-10,4.17L32.25,31l-4.5,4.5,6.42,9.32a27.37,27.37,0,0,0-4.14,10L18.91,57.06v6.38l11.13,2a27.24,27.24,0,0,0,4.16,10l-6.31,9.4,4.51,4.51L41.71,83a27.37,27.37,0,0,0,10,4.14l2.19,11.12h6.38l2-11.13a27.42,27.42,0,0,0,10-4.17l9.4,6.32,4.51-4.51-6.42-9.31a27.42,27.42,0,0,0,4.14-10Z"/></svg>