<svg id="Capa_1_copia" data-name="Capa 1 copia" xmlns="http://www.w3.org/2000/svg" viewBox="0 0 112.55 98.41"><defs><style>.cls-1{fill:none;stroke:#fff;stroke-linecap:round;stroke-linejoin:round;stroke-width:3.62px;}</style></defs><polyline class="cls-1" points="74.85 22.13 80.73 28.01 101.46 8.82"/><line class="cls-1" x1="76.5" y1="62.35" x2="95.58" y2="81.23"/><line class="cls-1" x1="95.58" y1="62.35" x2="76.5" y2="81.23"/><rect class="cls-1" x="17.29" y="28.57" width="19.1" height="19.1" rx="9.55"/><path class="cls-1" d="M8.57,59.56a20,20,0,0,1,18-11.36h0A20,20,0,0,1,44.93,60.4"/><rect class="cls-1" x="1.81" y="20" width="49.88" height="49.88" rx="24.94"/><polygon class="cls-1" points="110.74 35.23 85.78 35.23 74.64 43.69 74.54 35.23 61.54 35.23 61.54 1.81 110.74 1.81 110.74 35.23"/><polygon class="cls-1" points="61.54 88.14 86.5 88.14 97.64 96.6 97.74 88.14 110.74 88.14 110.74 54.72 61.54 54.72 61.54 88.14"/></svg>