<svg id="Capa_1_copia" data-name="Capa 1 copia" xmlns="http://www.w3.org/2000/svg" viewBox="0 0 90.77 83.59"><defs><style>.cls-1{fill:none;stroke:#fff;stroke-linecap:round;stroke-linejoin:round;stroke-width:4.2px;}</style></defs><path class="cls-1" d="M32.59,78.23a11.72,11.72,0,0,1,4.71,1.39,10,10,0,0,0,6,1.87c10.51,0,21,0,31.54,0a13.34,13.34,0,0,0,1.79-.11,5.88,5.88,0,0,0,3.1-10.29,3.39,3.39,0,0,0-1.1-.45l.35-.57c2.62-.62,4.41-2.1,5-4.75s-.65-4.75-3-6.56c2.89-.71,4.71-2.2,5.25-4.91s-.73-4.71-2.88-6.44c.76-.28,1.28-.44,1.77-.66a5.89,5.89,0,0,0-2.42-11.29c-8.4,0-16.8,0-25.21,0h-1.4c.65-3.93,1.25-7.65,1.88-11.37s1.24-7.62,0-11.46c-1-3.11-1.83-6.28-3.95-8.86a4,4,0,0,0-7,.94,13.44,13.44,0,0,0-.82,3.46C45.64,12.61,44.75,17,42.62,21c-3,5.72-6.26,11.35-9.34,17.05a5.57,5.57,0,0,0-.65,2.46c0,11.07,0,22.14,0,33.21ZM2.1,58.35V78.17c0,2.24.87,3.11,3.11,3.11h21c2.43,0,3.33-.88,3.33-3.28q0-19.71,0-39.42c0-2-1-2.94-2.91-3H5c-2.08,0-2.94.88-2.94,3Z"/></svg>