<svg id="Capa_1_copia" data-name="Capa 1 copia" xmlns="http://www.w3.org/2000/svg" viewBox="0 0 112.83 115.81"><defs><style>.cls-1,.cls-2{fill:none;stroke:#fff;stroke-linejoin:round;}.cls-1{stroke-linecap:round;stroke-width:4px;}.cls-2{stroke-linecap:square;stroke-width:3px;}</style></defs><circle class="cls-1" cx="33.86" cy="81.95" r="14.84"/><path class="cls-1" d="M65.72,84.54V79.21L56.41,77.5a22.91,22.91,0,0,0-3.48-8.39l5.28-7.86-3.77-3.77-7.78,5.37a23,23,0,0,0-8.39-3.46L36.44,50.1H31.11L29.4,59.4A22.87,22.87,0,0,0,21,62.88L13.16,57.6,9.39,61.37l5.37,7.79a22.83,22.83,0,0,0-3.47,8.39L2,79.37V84.7l9.3,1.71a22.8,22.8,0,0,0,3.48,8.38l-5.27,7.87,3.77,3.77,7.78-5.37a22.81,22.81,0,0,0,8.39,3.46l1.83,9.29h5.33l1.71-9.3A22.87,22.87,0,0,0,46.7,101l7.86,5.28,3.77-3.77L53,94.75a22.81,22.81,0,0,0,3.46-8.39Z"/><circle class="cls-2" cx="87.68" cy="59.91" r="11.16"/><path class="cls-2" d="M110.27,68.09l1.06-3.86-6.41-3.08a17.26,17.26,0,0,0-.86-6.77l5.38-4.66-2-3.48-6.71,2.35a17,17,0,0,0-5.4-4.17l.52-7.11L92,36.26l-3.08,6.41a17.29,17.29,0,0,0-6.77.86l-4.66-5.38-3.48,2,2.36,6.71a17.26,17.26,0,0,0-4.18,5.4l-7.1-.51L64,55.6l6.41,3.08a17.11,17.11,0,0,0,.87,6.77l-5.39,4.66,2,3.48,6.71-2.36A17.26,17.26,0,0,0,80,75.41l-.52,7.1,3.87,1.06,3.08-6.41a17.09,17.09,0,0,0,6.77-.87l4.66,5.39,3.48-2L99,73a17.38,17.38,0,0,0,4.17-5.4Z"/><circle class="cls-2" cx="50.94" cy="25.22" r="11.16"/><path class="cls-2" d="M72.53,14.68l-2-3.45-6.67,2.46A17.37,17.37,0,0,0,58.35,9.6l.4-7.11-3.88-1L51.89,8a17.24,17.24,0,0,0-6.75,1L40.39,3.62,37,5.66l2.46,6.68a17,17,0,0,0-4.09,5.46l-7.11-.4-1,3.88,6.46,3a17.3,17.3,0,0,0,1,6.76l-5.31,4.74,2,3.45,6.67-2.46a17.22,17.22,0,0,0,5.47,4.09L43.12,48l3.88,1,3-6.46a17.06,17.06,0,0,0,6.75-1l4.75,5.31,3.45-2L62.46,38.1a16.92,16.92,0,0,0,4.09-5.46l7.11.4,1-3.88-6.46-3a17.12,17.12,0,0,0-1-6.76Z"/></svg>