<svg id="Capa_1_copia" data-name="Capa 1 copia" xmlns="http://www.w3.org/2000/svg" viewBox="0 0 120.26 120.21"><defs><style>.cls-1,.cls-2{fill:none;stroke:#fff;stroke-linecap:round;stroke-linejoin:round;}.cls-1{stroke-width:4.49px;}.cls-2{stroke-width:3.39px;}</style></defs><path class="cls-1" d="M113.68,100.83H6.58A4.33,4.33,0,0,1,2.25,96.5V6.58A4.33,4.33,0,0,1,6.58,2.25h107.1A4.34,4.34,0,0,1,118,6.58V96.5A4.34,4.34,0,0,1,113.68,100.83Z"/><line class="cls-1" x1="118.02" y1="76.84" x2="2.25" y2="76.84"/><circle class="cls-1" cx="60.13" cy="88.33" r="3.83"/><polyline class="cls-1" points="50.35 117.97 50.35 100.83 69.91 100.83 69.91 117.97"/><line class="cls-1" x1="82.69" y1="117.97" x2="37.57" y2="117.97"/><path class="cls-2" d="M60.11,58.22h6.65c3.14,0,6.28,0,9.41,0a4.72,4.72,0,0,0,3-.71,1.5,1.5,0,0,0,.38-1.85c-.36-.81-1.21-1.24-1.85-1.81A13.8,13.8,0,0,1,74,47.63a28.43,28.43,0,0,1-.65-4.52c0-.48,0-1-.06-1.57"/><path class="cls-2" d="M60.48,58.22H53.83c-3.14,0-6.28,0-9.41,0a4.71,4.71,0,0,1-3-.71A1.5,1.5,0,0,1,41,55.66c.36-.81,1.21-1.24,1.84-1.81a13.73,13.73,0,0,0,3.74-6.22,28.43,28.43,0,0,0,.65-4.52c0-1.25.11-2.87.13-4.28a33.85,33.85,0,0,1,.2-4.94c.63-3,2.78-8.19,10.06-9.6a19.69,19.69,0,0,1,7.7.15"/><path class="cls-2" d="M66,58.85a5.84,5.84,0,0,1-11.68,0"/><circle class="cls-2" cx="75.72" cy="29.98" r="12.08"/><polyline class="cls-2" points="73.34 26.23 76.3 26.23 76.3 35.09"/></svg>