<svg id="Capa_1_copia" data-name="Capa 1 copia" xmlns="http://www.w3.org/2000/svg" viewBox="0 0 118.74 118.74"><defs><style>.cls-1,.cls-2{fill:none;stroke:#fff;stroke-linecap:round;stroke-linejoin:round;}.cls-1{stroke-width:4.49px;}.cls-2{stroke-width:3px;}</style></defs><path class="cls-1" d="M87.22,96.52v10.74A9.24,9.24,0,0,1,78,116.5H11.48a9.24,9.24,0,0,1-9.23-9.24V27.32L27.62,2.25H78c5.1,0,9.23,4.13,9.23,15.18v34.4"/><polyline class="cls-1" points="36.33 89.17 47.29 89.17 47.29 52.54 36.33 52.54"/><line class="cls-1" x1="63.95" y1="56.59" x2="47.29" y2="56.59"/><path class="cls-1" d="M48.19,84.22h4.5s7,11.24,8,13.57a4.85,4.85,0,0,0,5.15,2.43"/><path class="cls-1" d="M67.55,91.59a34.83,34.83,0,0,0,3.79,6.61c1.91,2.3,3.53,1.27,3.53,1.27"/><path class="cls-1" d="M74,85.87s4.08,8.16,5.68,9.94c3.18,3.55,7.53-.35,7.53-.35"/><path class="cls-1" d="M81.67,81.52s6.63,10.35,8,12.36c2.17,3.25,8.53-.69,6-5.55C94.35,85.73,83.92,65.9,83.92,65.9l-6.67-.33L69.5,73.09c-4.14,4-9.55-.53-9.4-3C66.47,61.37,73,54,74.76,54H90.22l14.87,6.51"/><polyline class="cls-1" points="116.5 55.39 105.09 55.39 105.09 92.25 116.5 92.25"/><line class="cls-1" x1="95.68" y1="88.33" x2="105.09" y2="88.33"/><line class="cls-1" x1="36.33" y1="20.26" x2="70.56" y2="20.26"/><line class="cls-1" x1="36.33" y1="35.43" x2="70.56" y2="35.43"/><circle class="cls-2" cx="39.74" cy="79.53" r="1.58"/><circle class="cls-2" cx="113.26" cy="83.14" r="1.58"/><path class="cls-1" d="M2.25,27.32H20.34A7.28,7.28,0,0,0,27.62,20V2.25"/></svg>