<svg id="Capa_1_copia" data-name="Capa 1 copia" xmlns="http://www.w3.org/2000/svg" viewBox="0 0 121.02 121.81"><defs><style>.cls-1{fill:none;stroke:#fff;stroke-linecap:round;stroke-linejoin:round;stroke-width:3.92px;}</style></defs><path class="cls-1" d="M78.32,46a3.87,3.87,0,0,1-3.87,3.87H46.57A3.88,3.88,0,0,1,42.69,46V12.47L53.33,2H74.45c2.14,0,3.87,1.73,3.87,6.37Z"/><line class="cls-1" x1="66.43" y1="39.49" x2="59.44" y2="39.49"/><line class="cls-1" x1="68.63" y1="12.64" x2="61.65" y2="12.64"/><line class="cls-1" x1="54.85" y1="24.26" x2="69.2" y2="24.26"/><line class="cls-1" x1="54.85" y1="30.62" x2="69.2" y2="30.62"/><path class="cls-1" d="M42.69,12.47h7.59a3,3,0,0,0,3-3.05V2"/><circle class="cls-1" cx="18.96" cy="102.85" r="17"/><circle class="cls-1" cx="60.51" cy="102.85" r="17"/><circle class="cls-1" cx="102.06" cy="102.85" r="17"/><polyline class="cls-1" points="100.77 76.99 100.77 61.17 20.58 61.17 20.58 76.99"/><line class="cls-1" x1="60.51" y1="50.91" x2="60.51" y2="76.99"/></svg>