<svg id="Capa_1_copia" data-name="Capa 1 copia" xmlns="http://www.w3.org/2000/svg" viewBox="0 0 117.97 117.77"><defs><style>.cls-1{fill:none;stroke:#fff;stroke-linecap:round;stroke-linejoin:round;stroke-width:4.49px;}</style></defs><path class="cls-1" d="M59.66,16.2H78.51A13.28,13.28,0,0,1,88,20.13l27.77,28"/><line class="cls-1" x1="115.72" y1="79.78" x2="88.69" y2="52.36"/><line class="cls-1" x1="36.01" y1="57.97" x2="36.01" y2="73.4"/><polyline class="cls-1" points="42.2 68.13 36.01 74.32 29.82 68.13"/><line class="cls-1" x1="2.25" y1="92.66" x2="18.14" y2="92.66"/><path class="cls-1" d="M18.14,98.58S16.52,83.38,32.07,83h18.1s2.55,8-8.71,9.63H31.83s-.58,9,9.75,9.4H61.77L72.33,91.5s7.31-7.31,14.27-1.16L71.52,109.59a15.44,15.44,0,0,1-12.17,5.93H2.71"/><path class="cls-1" d="M50.75,101.13,60.84,90.46s6.1-6.38,12.74,0"/><path class="cls-1" d="M58.92,34.67a23.09,23.09,0,1,1,1.95-10.2"/><line class="cls-1" x1="38.71" y1="10.84" x2="38.71" y2="39.83"/><path class="cls-1" d="M44.74,16.51a10.05,10.05,0,0,0-7.53-2.14c-2.93.34-6,3.09-5,6.39a5.41,5.41,0,0,0,2.24,2.78C36.58,25,39,25.43,41.4,26.19a7.77,7.77,0,0,1,3.44,2,4,4,0,0,1-.82,6,9.55,9.55,0,0,1-6.2,1.5,13.93,13.93,0,0,1-6.4-2.38"/><path class="cls-1" d="M79.1,25.13H51.44s-1.39,8.47,7.31,9.29h7.31s.93,9.16,13.81,9.16"/><path class="cls-1" d="M56.48,39.77a36.59,36.59,0,0,0,8.37,9.64c4.58,3.69,11.42,2.87,11.42,2.87H93.79"/></svg>