<svg width="52" height="53" viewBox="0 0 52 53" fill="none" xmlns="http://www.w3.org/2000/svg">
<path d="M46.7351 22.6172V48.6377C46.7348 49.4778 46.4009 50.2839 45.8069 50.8779C45.2128 51.472 44.4073 51.8054 43.5671 51.8057H4.56714C3.72701 51.8054 2.92133 51.472 2.32727 50.8779C1.73321 50.2839 1.39943 49.4778 1.39917 48.6377V23.29C1.39917 22.4497 1.73282 21.6441 2.3269 21.0498C2.92099 20.4555 3.72684 20.1214 4.56714 20.1211H24.0001" stroke="white" stroke-width="2.301" stroke-linecap="round" stroke-linejoin="round"/>
<path d="M4.40015 23.7383L21.3892 40.7256C21.7878 41.1243 22.262 41.4399 22.7839 41.6533C23.3059 41.8667 23.865 41.974 24.4288 41.9688C24.9927 41.9635 25.5499 41.8461 26.0677 41.623C26.5856 41.4 27.0538 41.076 27.4451 40.6699L40.1511 27.4814" stroke="white" stroke-width="2.301" stroke-linecap="round" stroke-linejoin="round"/>
<path d="M16.3873 35.9639L4.63428 48.0129" stroke="white" stroke-width="2.301" stroke-linecap="round" stroke-linejoin="round"/>
<path d="M32.1233 36.333L43.5163 48.013" stroke="white" stroke-width="2.301" stroke-linecap="round" stroke-linejoin="round"/>
<path d="M35.879 27.8371C43.0609 27.8371 48.883 22.015 48.883 14.8331C48.883 7.65119 43.0609 1.8291 35.879 1.8291C28.6971 1.8291 22.875 7.65119 22.875 14.8331C22.875 22.015 28.6971 27.8371 35.879 27.8371Z" stroke="white" stroke-width="2.301" stroke-linecap="round" stroke-linejoin="round"/>
<path d="M29.468 12.0801L36.146 18.2891L50.146 4.34766" stroke="white" stroke-width="2.301" stroke-linecap="round" stroke-linejoin="round"/>
</svg>
