<svg width="112" height="114" viewBox="0 0 112 114" fill="none" xmlns="http://www.w3.org/2000/svg">
<path d="M71.7499 78.2783V85.8691C71.7496 87.5987 71.0624 89.2576 69.8393 90.4805C68.6162 91.7034 66.9575 92.3896 65.2279 92.3896H18.2459C17.3894 92.3898 16.5413 92.2212 15.75 91.8936C14.9586 91.5659 14.2396 91.086 13.6339 90.4805C13.0281 89.8749 12.5476 89.1565 12.2198 88.3652C11.8919 87.574 11.723 86.7256 11.7229 85.8691V29.3936L29.6469 11.6826H65.2279C68.8279 11.6826 71.7499 14.6031 71.7499 22.4121V46.707" stroke="white" stroke-width="3.384" stroke-linecap="round" stroke-linejoin="round"/>
<path d="M35.7979 24.4102H59.9779" stroke="white" stroke-width="3.384" stroke-linecap="round" stroke-linejoin="round"/>
<path d="M35.7979 35.1221H59.9779" stroke="white" stroke-width="3.384" stroke-linecap="round" stroke-linejoin="round"/>
<path d="M11.7229 29.3945H24.4999C25.8642 29.3945 27.1726 28.8534 28.1373 27.8887C29.102 26.924 29.6439 25.6153 29.6439 24.251V11.6836" stroke="white" stroke-width="3.384" stroke-linecap="round" stroke-linejoin="round"/>
<path d="M32.0808 50.9747C32.0808 48.855 30.3625 47.1367 28.2428 47.1367C26.1231 47.1367 24.4048 48.855 24.4048 50.9747C24.4048 53.0944 26.1231 54.8127 28.2428 54.8127C30.3625 54.8127 32.0808 53.0944 32.0808 50.9747Z" fill="#90B409"/>
<path d="M32.0808 63.9386C32.0808 61.8189 30.3625 60.1006 28.2428 60.1006C26.1231 60.1006 24.4048 61.8189 24.4048 63.9386C24.4048 66.0583 26.1231 67.7766 28.2428 67.7766C30.3625 67.7766 32.0808 66.0583 32.0808 63.9386Z" fill="#90B409"/>
<path d="M32.0808 76.9015C32.0808 74.7818 30.3625 73.0635 28.2428 73.0635C26.1231 73.0635 24.4048 74.7818 24.4048 76.9015C24.4048 79.0211 26.1231 80.7395 28.2428 80.7395C30.3625 80.7395 32.0808 79.0211 32.0808 76.9015Z" fill="#90B409"/>
<path d="M54.061 54.8232L67.689 66.9531L87.882 42.4883" stroke="#90B409" stroke-width="7.396" stroke-linecap="round" stroke-linejoin="round"/>
</svg>
