<svg width="52" height="54" viewBox="0 0 52 54" fill="none" xmlns="http://www.w3.org/2000/svg">
<path d="M40.0761 19.6553V28.4717C40.0761 32.1954 38.597 35.7672 35.964 38.4004C33.331 41.0336 29.7599 42.5124 26.0361 42.5127C22.3122 42.5127 18.7409 41.0336 16.1077 38.4004C13.4745 35.7672 11.9951 32.1956 11.9951 28.4717V19.6553" stroke="white" stroke-width="2.146" stroke-linecap="round" stroke-linejoin="round"/>
<path d="M1.19312 49.3105L19.9731 43.96V41.2461" stroke="white" stroke-width="2.146" stroke-linecap="round" stroke-linejoin="round"/>
<path d="M50.548 49.3105L31.7681 43.96V41.4785" stroke="white" stroke-width="2.146" stroke-linecap="round" stroke-linejoin="round"/>
<path d="M19.9731 44.335L26.0571 52.3848L31.7672 44.2412" stroke="white" stroke-width="2.146" stroke-linecap="round" stroke-linejoin="round"/>
<path d="M41.2901 46.3938C44.0671 42.1758 45.1271 36.6797 45.6441 31.7337C46.3901 24.5917 46.8442 16.7165 42.9792 10.3225C37.6582 1.52854 25.5942 -1.02482 16.6792 3.50418C13.6023 5.03565 11.0151 7.39766 9.21018 10.3225C5.34118 16.7175 5.79914 24.5927 6.54514 31.7337C7.06214 36.6797 8.12215 42.1758 10.8991 46.3938" stroke="white" stroke-width="2.146" stroke-linecap="round" stroke-linejoin="round"/>
<path d="M30.5002 10.8438C30.3603 12.0626 29.8831 13.2182 29.1222 14.1807C25.8222 18.5647 19.0272 18.4272 14.1162 19.0762C12.2382 19.1821 10.3994 19.6556 8.70416 20.4707C7.87269 20.9436 7.18628 21.635 6.71905 22.4697C6.25183 23.3044 6.02156 24.251 6.05316 25.207C6.05316 25.207 6.00218 30.3514 11.7582 30.6074" stroke="white" stroke-width="2.146" stroke-linecap="round" stroke-linejoin="round"/>
<path d="M19.3892 21.8965V24.0355" stroke="white" stroke-width="2.146" stroke-linecap="round" stroke-linejoin="round"/>
<path d="M32.6821 21.8965V24.0355" stroke="white" stroke-width="2.146" stroke-linecap="round" stroke-linejoin="round"/>
<path d="M27.8051 37.1741C28.9019 37.1741 29.7911 36.285 29.7911 35.1881C29.7911 34.0913 28.9019 33.2021 27.8051 33.2021C26.7083 33.2021 25.8191 34.0913 25.8191 35.1881C25.8191 36.285 26.7083 37.1741 27.8051 37.1741Z" stroke="white" stroke-width="2.146" stroke-linecap="round" stroke-linejoin="round"/>
<path d="M29.791 35.1895C29.791 35.1895 37.533 35.9533 39.927 30.1973" stroke="white" stroke-width="2.146" stroke-linecap="round" stroke-linejoin="round"/>
<path d="M21.0491 33.0693C21.8651 33.8333 23.756 35.3405 25.819 35.1895" stroke="white" stroke-width="2.146" stroke-linecap="round" stroke-linejoin="round"/>
<path d="M30.546 10.749C30.546 10.749 29.731 17.4162 37.313 19.0752C39.126 19.4752 41.087 19.5217 42.725 20.4697C43.5566 20.9425 44.2432 21.634 44.7105 22.4688C45.1777 23.3035 45.4078 24.25 45.376 25.2061C45.376 25.2061 45.882 30.2382 40.127 30.4922" stroke="white" stroke-width="2.146" stroke-linecap="round" stroke-linejoin="round"/>
</svg>
