<svg width="52" height="56" viewBox="0 0 52 56" fill="none" xmlns="http://www.w3.org/2000/svg">
<path d="M9.71594 15.3378C9.4013 14.8261 8.90392 14.4534 8.32459 14.2948C7.74525 14.1362 7.1273 14.2042 6.59595 14.4843C3.91795 15.9143 -0.162044 19.2405 2.31696 25.5575C7.06896 37.6705 17.2509 47.6687 28.9359 53.2187C28.9359 53.2187 37.091 57.1769 41.426 50.1649C41.7141 49.6851 41.8178 49.117 41.7179 48.5663C41.618 48.0156 41.3212 47.5198 40.8829 47.1718L37.0289 44.0722C36.616 43.7399 36.102 43.5585 35.572 43.5585C35.042 43.5585 34.5278 43.7399 34.1149 44.0722L33.098 44.8866C33.098 44.8866 29.2139 48.1553 24.5569 43.7753C24.5569 43.7753 11.9769 31.6126 11.5569 30.6386C10.7674 29.6357 10.2877 28.4247 10.1767 27.1532C10.0657 25.8817 10.3282 24.6058 10.9319 23.4813L12.064 21.8417C12.3262 21.4614 12.4719 21.0134 12.4833 20.5517C12.4946 20.0899 12.3711 19.6348 12.1279 19.2421L9.71594 15.3378Z" stroke="white" stroke-width="2.301" stroke-linecap="round" stroke-linejoin="round"/>
<path d="M47.527 23.96H33.844L24.91 30.3115L25.81 23.96H23.621C22.8377 23.96 22.0865 23.6485 21.5325 23.0947C20.9786 22.541 20.6673 21.7901 20.667 21.0068V4.25684C20.667 3.47339 20.9782 2.72195 21.5322 2.16797C22.0862 1.61399 22.8375 1.30273 23.621 1.30273H47.529C48.3124 1.30273 49.0638 1.61399 49.6178 2.16797C50.1718 2.72195 50.483 3.47339 50.483 4.25684V21.0068C50.483 21.3949 50.4065 21.7792 50.2579 22.1377C50.1093 22.4962 49.8915 22.8215 49.617 23.0957C49.3425 23.37 49.0166 23.5881 48.658 23.7363C48.2993 23.8846 47.915 23.9604 47.527 23.96Z" stroke="white" stroke-width="2.301" stroke-linecap="round" stroke-linejoin="round"/>
<path d="M29.2839 14.057C30.0709 14.057 30.7089 13.419 30.7089 12.632C30.7089 11.845 30.0709 11.207 29.2839 11.207C28.4969 11.207 27.8589 11.845 27.8589 12.632C27.8589 13.419 28.4969 14.057 29.2839 14.057Z" fill="white"/>
<path d="M35.5729 14.057C36.36 14.057 36.9979 13.419 36.9979 12.632C36.9979 11.845 36.36 11.207 35.5729 11.207C34.7859 11.207 34.1479 11.845 34.1479 12.632C34.1479 13.419 34.7859 14.057 35.5729 14.057Z" fill="white"/>
<path d="M41.863 14.057C42.65 14.057 43.288 13.419 43.288 12.632C43.288 11.845 42.65 11.207 41.863 11.207C41.076 11.207 40.438 11.845 40.438 12.632C40.438 13.419 41.076 14.057 41.863 14.057Z" fill="white"/>
</svg>
