<svg width="66" height="98" viewBox="0 0 66 98" fill="none" xmlns="http://www.w3.org/2000/svg">
<path d="M1.78286 96.3999V86.7209C1.78286 86.7209 1.06786 72.4209 15.9159 71.2849C15.9159 71.2849 25.2278 72.4181 25.9828 61.9741" stroke="#474645" stroke-width="2.275" stroke-linecap="round" stroke-linejoin="round"/>
<path d="M24.1489 67.7471C24.1489 67.7471 29.5059 71.9111 36.049 70.6521" stroke="#474645" stroke-width="2.275" stroke-linecap="round" stroke-linejoin="round"/>
<path d="M41.8379 66.751C41.8379 66.751 43.2219 71.407 50.0169 71.533C50.0169 71.533 63.9839 71.7851 64.7389 86.1331V96.3999" stroke="#474645" stroke-width="2.275" stroke-linecap="round" stroke-linejoin="round"/>
<path d="M44.7319 91.0371H50.3939" stroke="#474645" stroke-width="2.275" stroke-linecap="round" stroke-linejoin="round"/>
<path d="M13.2737 28.7502C13.2737 28.7502 14.1547 20.1934 22.0817 20.1934H44.0997C44.0997 20.1934 53.2858 20.3192 53.2858 28.7502V43.5693C53.2858 43.5693 53.6628 62.8513 34.2858 62.8513C34.2858 62.8513 13.2717 63.6723 13.2717 43.5693L13.2737 28.7502Z" stroke="#474645" stroke-width="2.275" stroke-linecap="round" stroke-linejoin="round"/>
<path d="M13.2739 43.5691C13.2739 43.5691 8.23989 42.969 8.23989 36.169C8.23989 36.169 6.35289 15.281 16.7969 7.35305C16.7969 7.35305 30.3869 -3.59392 48.8839 5.46608C48.8839 5.46608 45.9899 5.84305 44.7319 7.35305C44.7319 7.35305 56.9379 8.23392 62.4739 17.5459C62.4739 17.5459 59.2029 20.063 58.6989 26.732" stroke="#474645" stroke-width="2.275" stroke-linecap="round" stroke-linejoin="round"/>
</svg>
