<svg width="81" height="84" viewBox="0 0 81 84" fill="none" xmlns="http://www.w3.org/2000/svg">
<path d="M1.64111 82.42L2.96014 68.0439C3.09531 66.5706 3.73078 65.1878 4.76086 64.1257C5.79095 63.0636 7.15357 62.3862 8.62213 62.2061H13.6761L26.6081 75.775H34.0621C34.4985 75.7749 34.9305 75.8607 35.3337 76.0276C35.7368 76.1945 36.1032 76.4392 36.4118 76.7477C36.7204 77.0562 36.9651 77.4223 37.1321 77.8254C37.2991 78.2285 37.3851 78.6607 37.3851 79.097C37.3851 79.9784 37.035 80.8235 36.4119 81.4467C35.7887 82.0698 34.9434 82.42 34.0621 82.42H21.0331C20.5568 82.4206 20.086 82.3168 19.6541 82.1158C19.2222 81.9149 18.8396 81.6217 18.5331 81.257L12.4151 73.978" stroke="#474645" stroke-width="2.275" stroke-linecap="round" stroke-linejoin="round"/>
<path d="M17.1081 57.264C21.4623 57.264 24.9921 52.9238 24.9921 47.57C24.9921 42.2161 21.4623 37.876 17.1081 37.876C12.7539 37.876 9.22412 42.2161 9.22412 47.57C9.22412 52.9238 12.7539 57.264 17.1081 57.264Z" stroke="#474645" stroke-width="2.275" stroke-linecap="round" stroke-linejoin="round"/>
<path d="M28.4001 70.3855L35.2251 60.1855H66.6581L56.9581 77.0325H40.6181" stroke="#474645" stroke-width="2.275" stroke-linecap="round" stroke-linejoin="round"/>
<path d="M73.6871 43.0847H49.0601L39.0001 53.8618V43.0847H33.592C32.2158 43.0847 30.896 42.5381 29.9229 41.5649C28.9498 40.5918 28.4031 39.272 28.4031 37.8958V6.78174C28.4033 5.4057 28.9501 4.08619 29.9232 3.11328C30.8963 2.14037 32.216 1.59375 33.592 1.59375H73.686C75.0621 1.59375 76.3818 2.14037 77.3549 3.11328C78.328 4.08619 78.8748 5.4057 78.8751 6.78174V37.8998C78.874 39.2751 78.327 40.5938 77.3542 41.566C76.3814 42.5383 75.0624 43.0845 73.6871 43.0847Z" stroke="#474645" stroke-width="2.275" stroke-linecap="round" stroke-linejoin="round"/>
<path d="M53.4232 24.3328C56.8894 24.3328 59.6992 21.5229 59.6992 18.0568C59.6992 14.5906 56.8894 11.7808 53.4232 11.7808C49.9571 11.7808 47.1472 14.5906 47.1472 18.0568C47.1472 21.5229 49.9571 24.3328 53.4232 24.3328Z" stroke="#474645" stroke-width="2.275" stroke-linecap="round" stroke-linejoin="round"/>
<path d="M62.6332 35.8396C62.3639 33.586 61.2779 31.5095 59.5805 30.0028C57.8831 28.4962 55.6923 27.6641 53.4227 27.6641C51.1531 27.6641 48.9623 28.4962 47.2649 30.0028C45.5675 31.5095 44.4814 33.586 44.2122 35.8396" stroke="#474645" stroke-width="2.275" stroke-linecap="round" stroke-linejoin="round"/>
</svg>
