<svg width="85" height="88" viewBox="0 0 85 88" fill="none" xmlns="http://www.w3.org/2000/svg">
<path d="M42.5039 57.9741C47.9627 57.9741 52.3879 53.5488 52.3879 48.0901C52.3879 42.6313 47.9627 38.2061 42.5039 38.2061C37.0451 38.2061 32.6199 42.6313 32.6199 48.0901C32.6199 53.5488 37.0451 57.9741 42.5039 57.9741Z" stroke="#474645" stroke-width="2.275" stroke-linecap="round" stroke-linejoin="round"/>
<path d="M42.7641 28.01C50.0332 28.01 55.9261 22.1172 55.9261 14.848C55.9261 7.57886 50.0332 1.68604 42.7641 1.68604C35.4949 1.68604 29.6021 7.57886 29.6021 14.848C29.6021 22.1172 35.4949 28.01 42.7641 28.01Z" stroke="#474645" stroke-width="2.275" stroke-linecap="round" stroke-linejoin="round"/>
<path d="M36.5728 14.8483L40.7347 18.4382L48.0177 9.69824" stroke="#474645" stroke-width="2.275" stroke-linecap="round" stroke-linejoin="round"/>
<path d="M23.0999 86.3279C23.0999 81.1814 25.1443 76.2456 28.7834 72.6064C32.4226 68.9673 37.3584 66.9229 42.5049 66.9229C47.6514 66.9229 52.5872 68.9673 56.2263 72.6064C59.8655 76.2456 61.9099 81.1814 61.9099 86.3279H23.0999Z" stroke="#474645" stroke-width="2.275" stroke-linecap="round" stroke-linejoin="round"/>
<path d="M17.3377 57.0797C21.6367 57.0797 25.1217 53.5947 25.1217 49.2957C25.1217 44.9967 21.6367 41.5117 17.3377 41.5117C13.0387 41.5117 9.55371 44.9967 9.55371 49.2957C9.55371 53.5947 13.0387 57.0797 17.3377 57.0797Z" stroke="#474645" stroke-width="2.275" stroke-linecap="round" stroke-linejoin="round"/>
<path d="M19.7229 79.4091H2.05591C2.05591 75.356 3.66593 71.469 6.53186 68.603C9.39779 65.7371 13.2849 64.127 17.3379 64.127C20.842 64.1219 24.2405 65.326 26.9598 67.536" stroke="#474645" stroke-width="2.275" stroke-linecap="round" stroke-linejoin="round"/>
<path d="M67.6697 57.0797C71.9687 57.0797 75.4537 53.5947 75.4537 49.2957C75.4537 44.9967 71.9687 41.5117 67.6697 41.5117C63.3708 41.5117 59.8857 44.9967 59.8857 49.2957C59.8857 53.5947 63.3708 57.0797 67.6697 57.0797Z" stroke="#474645" stroke-width="2.275" stroke-linecap="round" stroke-linejoin="round"/>
<path d="M65.2849 79.4091H82.9519C82.9519 75.356 81.3418 71.469 78.4758 68.603C75.6099 65.7371 71.723 64.127 67.6699 64.127C64.1661 64.1219 60.7678 65.3261 58.0488 67.536" stroke="#474645" stroke-width="2.275" stroke-linecap="round" stroke-linejoin="round"/>
</svg>
