<svg width="97" height="98" viewBox="0 0 97 98" fill="none" xmlns="http://www.w3.org/2000/svg">
<path d="M48.57 96.3953C74.6693 96.3953 95.827 75.2377 95.827 49.1383C95.827 23.039 74.6693 1.88135 48.57 1.88135C22.4707 1.88135 1.31299 23.039 1.31299 49.1383C1.31299 75.2377 22.4707 96.3953 48.57 96.3953Z" stroke="#474645" stroke-width="2.275" stroke-linecap="round" stroke-linejoin="round"/>
<path d="M5.31104 31.417L7.77008 39C7.91344 39.5508 8.15383 40.0717 8.48004 40.5381C8.81353 40.9146 9.2068 41.2334 9.64404 41.4819C11.579 42.7142 13.5893 43.824 15.6631 44.8049C15.9447 44.979 16.2781 45.0497 16.6061 45.0049C16.8759 44.9062 17.1045 44.7197 17.2551 44.4751C18.0607 43.2961 18.3995 41.8596 18.2056 40.4448C18.0118 39.0301 17.2991 37.738 16.2061 36.8191C15.7613 36.5561 15.3921 36.1827 15.134 35.7351C15.0341 35.4256 15.0001 35.0984 15.0341 34.7749L15.108 32.3701C15.0818 32.0873 15.1653 31.8051 15.3411 31.582C15.5298 31.4374 15.7614 31.36 15.9991 31.3621C17.7731 31.1951 19.5631 31.3189 21.3391 31.1699C23.834 30.944 26.2523 30.1899 28.4333 28.9575C30.6144 27.7251 32.5082 26.0426 33.9891 24.022C35.5281 21.895 36.6081 19.394 38.5571 17.636C40.0171 16.32 41.8811 15.936 43.3921 14.676C44.1598 14.0329 44.679 13.142 44.86 12.157C44.9688 11.7108 44.958 11.2437 44.8286 10.803C44.6992 10.3623 44.4558 9.96356 44.123 9.64697C43.4581 9.23187 42.6819 9.03059 41.899 9.07007C38.121 8.85607 34.078 8.05404 31.493 5.29004" stroke="#474645" stroke-width="2.275" stroke-linecap="round" stroke-linejoin="round"/>
<path d="M14.5999 49.9334C14.0929 51.9414 14.729 54.0422 15.359 56.0152C15.92 57.7712 16.604 59.6852 18.205 60.5982C19.7 61.4512 21.5759 61.1804 23.2249 61.6724C23.6992 61.7819 24.1249 62.0426 24.438 62.4153C24.651 62.7547 24.7828 63.1387 24.823 63.5374C25.532 67.8164 24.6229 72.2162 25.1129 76.5262C25.393 78.9974 26.1263 81.396 27.276 83.6014C28.0376 85.3701 29.438 86.7867 31.198 87.5684C31.5299 87.7301 31.9054 87.7795 32.268 87.7098C32.6306 87.64 32.9607 87.4545 33.209 87.1812C33.385 86.8263 33.4504 86.4268 33.3969 86.0342C33.3139 84.1342 33.1349 82.0932 34.0869 80.4422C35.6429 77.7422 39.729 76.9643 40.627 73.9803C41.182 72.1333 40.2689 70.0013 41.1209 68.2713C42.0859 66.3113 44.808 65.8653 46.042 64.0643C46.5225 63.2703 46.8163 62.3774 46.901 61.4532C46.988 60.8612 47.868 56.1852 47.215 55.8882C45.197 54.9732 43.309 55.8514 41.583 54.1224C40.094 52.6304 39.59 50.3283 37.989 48.9563C35.864 47.1343 32.708 47.5884 29.909 47.6124C28.8896 47.6821 27.8692 47.4925 26.943 47.0613C25.7893 46.241 24.8666 45.1371 24.2639 43.8562C23.8109 43.1232 22.636 41.1404 21.528 41.5484C21.1833 41.7082 20.8818 41.9481 20.649 42.2483C18.665 44.4463 15.3509 46.9454 14.5999 49.9334Z" stroke="#474645" stroke-width="2.275" stroke-linecap="round" stroke-linejoin="round"/>
<path d="M67.8271 7.04395C65.1621 9.55795 62.6381 10.054 58.9741 10.051C58.0071 10.051 56.8931 10.0099 56.2511 10.7329C55.9588 11.1199 55.7622 11.5707 55.6771 12.0481L54.7231 15.7141C54.617 16.0089 54.5941 16.3271 54.6571 16.634C54.8311 17.205 55.5101 17.421 56.0931 17.551C56.869 17.7559 57.6659 17.871 58.4681 17.894C60.2351 17.876 61.8961 16.9721 63.6621 16.9131C65.6781 16.8461 67.5411 17.8731 69.4351 18.5681C73.8471 20.1871 79.3631 19.79 82.5251 16.313" stroke="#474645" stroke-width="2.275" stroke-linecap="round" stroke-linejoin="round"/>
<path d="M89.413 25.7453C86.213 25.7613 83.413 27.8241 80.313 28.5971C77.4472 29.138 74.4997 29.0699 71.662 28.3972C70.524 28.1972 69.25 27.8743 68.679 26.8703C68.29 26.1863 68.32 25.3172 67.896 24.6542C67.255 23.6542 65.877 23.5051 64.689 23.4711C63.3357 23.4325 61.983 23.4085 60.631 23.3991C59.5553 23.3343 58.4764 23.4521 57.44 23.7473C56.159 24.2933 55.0084 25.1047 54.064 26.1281C53.4302 26.6579 52.8973 27.298 52.491 28.0173C52.1431 28.8635 51.9827 29.775 52.021 30.6892C51.9771 32.9467 52.1128 35.2041 52.427 37.4401C52.4691 38.0253 52.6435 38.5933 52.937 39.1013C53.4067 39.6736 54.0254 40.1047 54.725 40.3471C57.3528 41.576 60.0773 42.5864 62.871 43.3681C64.0837 43.7728 65.3807 43.8555 66.635 43.6081C67.528 43.3661 68.327 42.8263 69.235 42.6423C71.088 42.2673 72.87 43.4241 74.408 44.5241C74.7699 44.7476 75.082 45.0432 75.325 45.3923C75.5356 45.8098 75.6432 46.2716 75.639 46.7392C75.817 49.7212 75.491 52.9093 76.965 55.5073C77.565 56.5723 78.44 57.4602 79.132 58.4702C81.132 61.3962 81.502 65.1211 81.58 68.6701C81.5494 69.3777 81.6493 70.085 81.875 70.7563C82.2157 71.4522 82.7097 72.0618 83.32 72.5393C84.331 73.4354 85.4 74.2638 86.52 75.0192" stroke="#474645" stroke-width="2.275" stroke-linecap="round" stroke-linejoin="round"/>
</svg>
