<svg width="78" height="89" viewBox="0 0 78 89" fill="none" xmlns="http://www.w3.org/2000/svg">
<path d="M61.2318 12.6721C61.2318 12.6721 53.3987 1.68506 39.7247 1.68506C26.0507 1.68506 18.2188 12.6721 18.2188 12.6721C6.99777 27.2821 15.8808 40.606 15.8808 40.606L39.7247 77.189L63.5687 40.606C63.5687 40.606 71.6328 28.3331 61.2318 12.6721Z" stroke="#474645" stroke-width="2.275" stroke-linecap="round" stroke-linejoin="round"/>
<path d="M39.7249 40.1021C45.6857 40.1021 50.5179 35.2699 50.5179 29.3091C50.5179 23.3483 45.6857 18.5161 39.7249 18.5161C33.7641 18.5161 28.9319 23.3483 28.9319 29.3091C28.9319 35.2699 33.7641 40.1021 39.7249 40.1021Z" stroke="#474645" stroke-width="2.275" stroke-linecap="round" stroke-linejoin="round"/>
<path d="M50.2329 61.0679L39.7249 77.1887L29.1499 60.9639C13.2699 62.5419 1.60986 67.7639 1.60986 73.9749C1.60986 81.4309 18.4359 87.4749 39.1929 87.4749C59.9499 87.4749 76.7749 81.4309 76.7749 73.9749C76.7749 67.8999 65.5999 62.7619 50.2329 61.0679Z" stroke="#474645" stroke-width="2.275" stroke-linecap="round" stroke-linejoin="round"/>
</svg>
