<svg width="99" height="86" viewBox="0 0 99 86" fill="none" xmlns="http://www.w3.org/2000/svg">
<path d="M30.6139 21.614C34.8913 21.614 38.3589 18.1465 38.3589 13.869C38.3589 9.59158 34.8913 6.12402 30.6139 6.12402C26.3365 6.12402 22.8689 9.59158 22.8689 13.869C22.8689 18.1465 26.3365 21.614 30.6139 21.614Z" stroke="#474645" stroke-width="2.275" stroke-linecap="round" stroke-linejoin="round"/>
<path d="M38.3599 24.8569H67.1799C67.6334 24.8411 68.0851 24.9215 68.5052 25.0929C68.9254 25.2643 69.3046 25.5227 69.6177 25.8512C69.9308 26.1797 70.1708 26.5707 70.3218 26.9986C70.4728 27.4266 70.5315 27.8816 70.4939 28.3338C70.4939 28.3338 70.6269 31.5209 67.5729 31.5209H44.9999C44.9999 31.5209 40.8839 31.6539 41.1489 35.5049V80.9169C41.1489 80.9169 41.6809 84.2358 39.0249 84.2358H22.8689C22.8689 84.2358 20.5689 84.3688 20.7009 81.0488V34.4419L2.64184 14.7909C2.64184 14.7909 -0.0131809 12.2679 2.24182 9.61192C2.24182 9.61192 5.02985 7.08891 7.55285 9.87791L30.5249 33.1149L38.3599 24.8569Z" stroke="#474645" stroke-width="2.275" stroke-linecap="round" stroke-linejoin="round"/>
<path d="M30.9248 54.2271V83.5721" stroke="#474645" stroke-width="2.275" stroke-linecap="round" stroke-linejoin="round"/>
<path d="M66.9089 84.369V1.64502H81.3818L83.9049 6.02698V21.7H67.3049" stroke="#474645" stroke-width="2.275" stroke-linecap="round" stroke-linejoin="round"/>
<path d="M83.9058 21.6998V24.6208L85.3667 28.0729H97.0518L89.8817 18.9138L97.0518 8.56982H84.4377" stroke="#474645" stroke-width="2.275" stroke-linecap="round" stroke-linejoin="round"/>
</svg>
