<svg width="88" height="89" viewBox="0 0 88 89" fill="none" xmlns="http://www.w3.org/2000/svg">
<path d="M37.3279 49.9312H3.21695C2.1549 49.9312 1.29395 50.7921 1.29395 51.8542V54.3612C1.29395 55.4232 2.1549 56.2842 3.21695 56.2842H37.3279C38.39 56.2842 39.2509 55.4232 39.2509 54.3612V51.8542C39.2509 50.7921 38.39 49.9312 37.3279 49.9312Z" stroke="#474645" stroke-width="2.275" stroke-linecap="round" stroke-linejoin="round"/>
<path d="M35.723 24.6621H4.82202V49.9321H35.723V24.6621Z" stroke="#474645" stroke-width="2.275" stroke-linecap="round" stroke-linejoin="round"/>
<path d="M18.1069 2.64526L2.5789 19.7783C2.19904 20.1976 1.94908 20.7181 1.8593 21.2766C1.76952 21.8352 1.84381 22.4077 2.07317 22.9248C2.30252 23.442 2.67702 23.8815 3.15129 24.1899C3.62556 24.4984 4.17919 24.6625 4.74492 24.6624H35.7999C36.3656 24.6623 36.9191 24.4979 37.3932 24.1895C37.8673 23.881 38.2417 23.4414 38.4709 22.9243C38.7002 22.4072 38.7744 21.8348 38.6846 21.2764C38.5947 20.7179 38.3448 20.1975 37.965 19.7783L22.4369 2.64526C22.1631 2.34293 21.829 2.1014 21.4561 1.93604C21.0832 1.77067 20.6798 1.68506 20.2719 1.68506C19.864 1.68506 19.4606 1.77067 19.0878 1.93604C18.7149 2.1014 18.3807 2.34293 18.1069 2.64526Z" stroke="#474645" stroke-width="2.275" stroke-linecap="round" stroke-linejoin="round"/>
<path d="M20.273 43.6583C23.9037 43.6583 26.847 40.715 26.847 37.0843C26.847 33.4535 23.9037 30.5103 20.273 30.5103C16.6423 30.5103 13.699 33.4535 13.699 37.0843C13.699 40.715 16.6423 43.6583 20.273 43.6583Z" stroke="#474645" stroke-width="2.275" stroke-linecap="round" stroke-linejoin="round"/>
<path d="M5.14209 56.2852H11.9291V85.4212C11.9291 85.6909 11.876 85.958 11.7727 86.2072C11.6695 86.4564 11.5182 86.6828 11.3275 86.8736C11.1368 87.0643 10.9103 87.2156 10.6611 87.3188C10.4119 87.422 10.1448 87.4752 9.87509 87.4752H7.19609C6.92635 87.4752 6.65926 87.422 6.41006 87.3188C6.16086 87.2156 5.93442 87.0643 5.74369 86.8736C5.55296 86.6828 5.40166 86.4564 5.29844 86.2072C5.19522 85.958 5.14209 85.6909 5.14209 85.4212V56.2852Z" stroke="#474645" stroke-width="2.275" stroke-linecap="round" stroke-linejoin="round"/>
<path d="M28.6162 56.2852H35.4032V85.4212C35.4032 85.6909 35.3501 85.958 35.2469 86.2072C35.1436 86.4564 34.9923 86.6828 34.8016 86.8736C34.6109 87.0643 34.3844 87.2156 34.1352 87.3188C33.886 87.422 33.6189 87.4752 33.3492 87.4752H30.6702C30.4005 87.4752 30.1334 87.422 29.8842 87.3188C29.635 87.2156 29.4085 87.0643 29.2178 86.8736C29.0271 86.6828 28.8758 86.4564 28.7726 86.2072C28.6693 85.958 28.6162 85.6909 28.6162 85.4212V56.2852Z" stroke="#474645" stroke-width="2.275" stroke-linecap="round" stroke-linejoin="round"/>
<path d="M11.928 64.2275H28.616" stroke="#474645" stroke-width="2.275" stroke-linecap="round" stroke-linejoin="round"/>
<path d="M11.928 71.8799H28.616" stroke="#474645" stroke-width="2.275" stroke-linecap="round" stroke-linejoin="round"/>
<path d="M11.928 79.5332H28.616" stroke="#474645" stroke-width="2.275" stroke-linecap="round" stroke-linejoin="round"/>
<path d="M35.7229 63.6491C43.3929 62.0381 48.9849 69.6291 53.6049 74.4611C58.8953 79.9688 65.5856 83.932 72.9579 85.9252C75.8498 86.7142 78.815 87.2049 81.8069 87.39C82.2597 87.4137 82.7126 87.3449 83.1378 87.1874C83.5631 87.03 83.9517 86.7874 84.2799 86.4745C84.6081 86.1617 84.869 85.785 85.0466 85.3678C85.2242 84.9506 85.3148 84.5017 85.3129 84.0483V70.2702C85.2998 69.4623 84.9995 68.6856 84.4657 68.079C83.9319 67.4725 83.1996 67.0757 82.3999 66.9601C71.0179 64.9801 68.8249 59.7602 63.0659 54.5292C56.6959 48.7432 47.7819 43.0482 38.9849 42.5912C37.8961 42.5299 36.8041 42.5703 35.7229 42.7121" stroke="#474645" stroke-width="2.275" stroke-linecap="round" stroke-linejoin="round"/>
<path d="M59.033 51.1213H81.033C82.4736 51.1213 83.8553 50.5489 84.874 49.5302C85.8927 48.5115 86.465 47.1298 86.465 45.6891C86.465 44.2485 85.8927 42.8668 84.874 41.8481C83.8553 40.8294 82.4736 40.2573 81.033 40.2573H78.043C78.1812 39.4463 78.2498 38.6249 78.2479 37.8022C78.2458 33.9456 76.7873 30.232 74.1644 27.4047C71.5414 24.5774 67.9475 22.845 64.1019 22.5541C64.1109 22.3201 64.14 22.0902 64.14 21.8542C64.14 11.3232 55.1529 2.78606 44.0679 2.78606C41.174 2.76758 38.3091 3.36299 35.6621 4.53289C33.0151 5.70279 30.6463 7.42068 28.7119 9.57317" stroke="#474645" stroke-width="2.275" stroke-linecap="round" stroke-linejoin="round"/>
</svg>
