<svg width="94" height="84" viewBox="0 0 94 84" fill="none" xmlns="http://www.w3.org/2000/svg">
<path d="M36.9 23.338H13.632C13.632 23.338 9.177 22.8429 9.177 27.7929V74" stroke="#474645" stroke-width="2.275" stroke-linecap="round" stroke-linejoin="round"/>
<path d="M1.58691 74.4912H38.8779L42.1779 76.3063H50.429L53.7289 74.4912H92.176C92.176 74.4912 91.3509 82.2462 83.4299 82.2462H9.17694C7.20472 82.0449 5.36536 81.1589 3.9787 79.7421C2.59204 78.3253 1.74573 76.4673 1.58691 74.4912Z" stroke="#474645" stroke-width="2.275" stroke-linecap="round" stroke-linejoin="round"/>
<path d="M28.8121 56.5041C33.2773 56.5041 36.8971 52.0717 36.8971 46.6041C36.8971 41.1365 33.2773 36.7041 28.8121 36.7041C24.3468 36.7041 20.7271 41.1365 20.7271 46.6041C20.7271 52.0717 24.3468 56.5041 28.8121 56.5041Z" stroke="#474645" stroke-width="2.275" stroke-linecap="round" stroke-linejoin="round"/>
<path d="M41.023 68.2189C41.023 68.2189 43.664 56.5049 28.813 56.5049C13.962 56.5049 16.602 68.2189 16.602 68.2189" stroke="#474645" stroke-width="2.275" stroke-linecap="round" stroke-linejoin="round"/>
<path d="M83.7051 47.8691V73.9951" stroke="#474645" stroke-width="2.275" stroke-linecap="round" stroke-linejoin="round"/>
<path d="M58.3339 21.1429C61.5482 21.1429 64.1539 18.5372 64.1539 15.3229C64.1539 12.1086 61.5482 9.50293 58.3339 9.50293C55.1196 9.50293 52.5139 12.1086 52.5139 15.3229C52.5139 18.5372 55.1196 21.1429 58.3339 21.1429Z" stroke="#474645" stroke-width="2.275" stroke-linecap="round" stroke-linejoin="round"/>
<path d="M76.5578 35.2113C79.7721 35.2113 82.3778 32.6056 82.3778 29.3913C82.3778 26.177 79.7721 23.5713 76.5578 23.5713C73.3435 23.5713 70.7378 26.177 70.7378 29.3913C70.7378 32.6056 73.3435 35.2113 76.5578 35.2113Z" stroke="#474645" stroke-width="2.275" stroke-linecap="round" stroke-linejoin="round"/>
<path d="M78.7778 8.80127L55.9458 35.7633" stroke="#474645" stroke-width="2.275" stroke-linecap="round" stroke-linejoin="round"/>
<path d="M42.5158 6.71124C42.5158 6.71124 42.0678 1.48817 48.1858 1.78717H86.3858C86.3858 1.78717 92.1738 1.18724 92.1738 6.71124V35.7621C92.1738 35.7621 92.3548 42.9732 84.7448 42.9732H64.1528L52.5138 54.1652V43.1221H48.1858C48.1858 43.1221 42.5078 43.5702 42.5078 36.7042L42.5158 6.71124Z" stroke="#474645" stroke-width="2.275" stroke-linecap="round" stroke-linejoin="round"/>
</svg>
