<svg width="106" height="86" viewBox="0 0 106 86" fill="none" xmlns="http://www.w3.org/2000/svg">
<path d="M79.8618 40.0566C87.7429 40.0566 94.1318 33.6677 94.1318 25.7866C94.1318 17.9055 87.7429 11.5166 79.8618 11.5166C71.9807 11.5166 65.5918 17.9055 65.5918 25.7866C65.5918 33.6677 71.9807 40.0566 79.8618 40.0566Z" stroke="#474645" stroke-width="2.275" stroke-linecap="round" stroke-linejoin="round"/>
<path d="M75.6127 24.8614C75.536 24.8615 75.46 24.8464 75.3891 24.8171C75.3182 24.7877 75.2539 24.7446 75.1997 24.6904L72.1066 21.5975C72.0028 21.4868 71.9461 21.34 71.9486 21.1883C71.951 21.0366 72.0124 20.8918 72.1198 20.7846C72.2272 20.6774 72.372 20.6161 72.5238 20.6138C72.6755 20.6116 72.8221 20.6684 72.9327 20.7724L76.0257 23.8654C76.1089 23.9467 76.1659 24.0511 76.1893 24.1651C76.2127 24.2791 76.2015 24.3974 76.1571 24.5049C76.1127 24.6125 76.0371 24.7044 75.9401 24.7686C75.8431 24.8329 75.729 24.8665 75.6127 24.8654V24.8614Z" fill="#474645"/>
<path d="M72.5197 24.8613C72.4034 24.8624 72.2894 24.8287 72.1924 24.7645C72.0953 24.7002 72.0197 24.6085 71.9753 24.5009C71.9309 24.3934 71.9197 24.2749 71.9431 24.161C71.9665 24.047 72.0235 23.9426 72.1068 23.8613L75.1998 20.7683C75.2533 20.7112 75.3177 20.6655 75.3893 20.6339C75.4608 20.6022 75.5379 20.5853 75.6161 20.5841C75.6944 20.5828 75.7721 20.5972 75.8446 20.6265C75.9171 20.6559 75.983 20.6994 76.0383 20.7547C76.0936 20.81 76.1373 20.8758 76.1667 20.9483C76.1962 21.0208 76.2107 21.0985 76.2095 21.1767C76.2084 21.2549 76.1915 21.3321 76.1599 21.4036C76.1284 21.4752 76.0827 21.5397 76.0258 21.5933L72.9328 24.6864C72.8789 24.7413 72.8147 24.7851 72.7438 24.8151C72.6729 24.8452 72.5967 24.8608 72.5197 24.8613Z" fill="#474645"/>
<path d="M87.4996 24.8614C87.4229 24.8615 87.3469 24.8464 87.276 24.8171C87.2052 24.7877 87.1408 24.7446 87.0866 24.6904L83.9936 21.5975C83.8897 21.4868 83.8331 21.34 83.8355 21.1883C83.838 21.0366 83.8994 20.8918 84.0067 20.7846C84.1141 20.6774 84.259 20.6161 84.4107 20.6138C84.5624 20.6116 84.7091 20.6684 84.8196 20.7724L87.9126 23.8654C87.9958 23.9467 88.0528 24.0511 88.0762 24.1651C88.0997 24.2791 88.0885 24.3974 88.0441 24.5049C87.9996 24.6125 87.924 24.7044 87.827 24.7686C87.73 24.8329 87.6159 24.8665 87.4996 24.8654V24.8614Z" fill="#474645"/>
<path d="M84.3996 24.8615C84.2833 24.8626 84.1692 24.8289 84.0722 24.7647C83.9752 24.7005 83.8996 24.6087 83.8552 24.5012C83.8108 24.3936 83.7995 24.2752 83.823 24.1612C83.8464 24.0472 83.9034 23.9428 83.9866 23.8615L87.0796 20.7685C87.1901 20.6645 87.3368 20.6077 87.4885 20.6099C87.6402 20.6122 87.7851 20.6735 87.8925 20.7807C87.9998 20.8879 88.0612 21.0328 88.0637 21.1845C88.0661 21.3362 88.0095 21.4829 87.9056 21.5936L84.8126 24.6866C84.7587 24.7416 84.6945 24.7853 84.6236 24.8154C84.5527 24.8454 84.4766 24.8611 84.3996 24.8615Z" fill="#474645"/>
<path d="M43.4468 40.0566C51.3279 40.0566 57.7168 33.6677 57.7168 25.7866C57.7168 17.9055 51.3279 11.5166 43.4468 11.5166C35.5657 11.5166 29.1768 17.9055 29.1768 25.7866C29.1768 33.6677 35.5657 40.0566 43.4468 40.0566Z" stroke="#474645" stroke-width="2.275" stroke-linecap="round" stroke-linejoin="round"/>
<path d="M38.2698 28.1857C41.4831 29.241 44.9532 29.2174 48.1518 28.1187C49.29 27.7369 50.3583 27.1722 51.3148 26.4467C51.6148 26.2187 52.1538 25.7386 52.5008 26.1846C52.7008 26.4406 52.5328 26.8667 52.3958 27.1117C52.0151 27.6788 51.5194 28.1596 50.9408 28.5227C50.2315 29.0383 49.461 29.4638 48.6468 29.7896C47.2641 30.3413 45.8012 30.6656 44.3148 30.7497C43.7578 30.7877 43.1978 30.7977 42.6398 30.7807H42.5918C41.7964 30.7553 41.0037 30.6734 40.2198 30.5357C38.7216 30.2746 37.2784 29.7613 35.9518 29.0177C35.8078 28.9357 35.6648 28.8527 35.5238 28.7667C35.0326 28.5209 34.6177 28.1458 34.3238 27.6817C34.2138 27.5023 34.1779 27.2871 34.2238 27.0817C34.279 26.9277 34.3908 26.8005 34.5365 26.7262C34.6822 26.6518 34.8508 26.636 35.0078 26.6817C35.4873 26.8261 35.9419 27.0429 36.3558 27.3247C36.8203 27.5843 37.3013 27.8131 37.7958 28.0097C37.9545 28.0704 38.1125 28.1291 38.2698 28.1857Z" fill="#474645"/>
<path d="M83.9409 31.0004C82.6945 30.4781 81.3549 30.2148 80.0035 30.2263C78.6521 30.2378 77.3172 30.524 76.0799 31.0675C75.1469 31.4678 74.2944 32.0343 73.5639 32.7395C73.3289 32.9675 72.8969 33.4474 72.6209 33.0014C72.5684 32.8498 72.5487 32.6887 72.5632 32.5289C72.5777 32.3691 72.626 32.2141 72.7049 32.0744C72.9891 31.5293 73.383 31.0489 73.8619 30.6634C74.4091 30.1596 75.0228 29.7334 75.6859 29.3964C76.76 28.8522 77.9311 28.5259 79.1319 28.4365C79.5751 28.3987 80.0203 28.3883 80.4649 28.4055H80.5029C81.1379 28.4312 81.7694 28.5132 82.3899 28.6505C83.6114 28.9251 84.7657 29.4412 85.7849 30.1684C85.8989 30.2504 86.0129 30.3334 86.1249 30.4194C86.5363 30.6874 86.8668 31.0626 87.0809 31.5045C87.168 31.6917 87.1946 31.9014 87.1569 32.1044C87.1454 32.1733 87.1195 32.239 87.0811 32.2973C87.0426 32.3556 86.9924 32.4051 86.9336 32.4428C86.8748 32.4805 86.8088 32.5055 86.7398 32.5161C86.6707 32.5267 86.6003 32.5227 86.5329 32.5045C86.1411 32.3537 85.7784 32.1361 85.4609 31.8614C85.0966 31.6047 84.7135 31.3758 84.3149 31.1765C84.1909 31.1095 84.0659 31.0514 83.9409 31.0004Z" fill="#474645"/>
<path d="M39.8546 22.6073C40.0353 21.843 39.5622 21.077 38.7979 20.8963C38.0336 20.7156 37.2676 21.1888 37.0869 21.9531C36.9062 22.7173 37.3793 23.4834 38.1436 23.664C38.9079 23.8447 39.6739 23.3716 39.8546 22.6073Z" fill="#474645"/>
<path d="M49.8085 22.6063C49.9889 21.842 49.5156 21.0761 48.7512 20.8957C47.9869 20.7153 47.221 21.1886 47.0406 21.953C46.8601 22.7173 47.3335 23.4832 48.0978 23.6636C48.8622 23.844 49.6281 23.3707 49.8085 22.6063Z" fill="#474645"/>
<path d="M97.5059 49.7893H45.2138L32.8459 63.0414V49.7893H26.1999C25.3619 49.7894 24.5322 49.6245 23.758 49.304C22.9839 48.9834 22.2804 48.5135 21.6879 47.921C21.0953 47.3286 20.6253 46.6252 20.3046 45.8511C19.9839 45.077 19.8188 44.2473 19.8188 43.4094V7.74036C19.8188 6.90244 19.9839 6.07271 20.3046 5.29858C20.6253 4.52446 21.0953 3.82109 21.6879 3.22864C22.2804 2.63619 22.9839 2.16627 23.758 1.8457C24.5322 1.52514 25.3619 1.36022 26.1999 1.36035H97.5108C99.2029 1.36035 100.826 2.03252 102.022 3.229C103.219 4.42549 103.891 6.04828 103.891 7.74036V43.4094C103.891 44.2477 103.726 45.0777 103.405 45.8521C103.084 46.6264 102.613 47.33 102.02 47.9225C101.427 48.515 100.724 48.9848 99.9489 49.3052C99.1743 49.6255 98.3441 49.79 97.5059 49.7893Z" stroke="#474645" stroke-width="2.275" stroke-linecap="round" stroke-linejoin="round"/>
<path d="M14.1497 69.4855C18.7188 69.4855 22.4227 65.7815 22.4227 61.2125C22.4227 56.6434 18.7188 52.9395 14.1497 52.9395C9.58066 52.9395 5.87671 56.6434 5.87671 61.2125C5.87671 65.7815 9.58066 69.4855 14.1497 69.4855Z" stroke="#474645" stroke-width="2.275" stroke-linecap="round" stroke-linejoin="round"/>
<path d="M26.2898 84.6548C25.9365 81.6831 24.5055 78.9442 22.268 76.9569C20.0305 74.9697 17.1419 73.8721 14.1493 73.8721C11.1567 73.8721 8.26802 74.9697 6.03052 76.9569C3.79301 78.9442 2.36209 81.6831 2.00879 84.6548" stroke="#474645" stroke-width="2.275" stroke-linecap="round" stroke-linejoin="round"/>
</svg>
