<svg width="92" height="95" viewBox="0 0 92 95" fill="none" xmlns="http://www.w3.org/2000/svg">
<path d="M79.6758 18.8003C72.7588 8.74229 58.3388 1.4873 45.1248 1.4873C37.8827 1.49162 30.7541 3.28694 24.374 6.71362C17.9939 10.1403 12.5604 15.0919 8.55742 21.1272C4.55447 27.1625 2.10638 34.0941 1.43123 41.3047C0.756085 48.5152 1.87483 55.7809 4.68782 62.4543" stroke="#474645" stroke-width="2.275" stroke-linecap="round" stroke-linejoin="round"/>
<path d="M68.8259 18.8052H79.6759V6.57031" stroke="#474645" stroke-width="2.275" stroke-linecap="round" stroke-linejoin="round"/>
<path d="M9.43384 71.8203C16.3508 81.8793 30.7698 89.1343 43.9848 89.1343C47.3221 89.1364 50.6489 88.759 53.9008 88.0093" stroke="#474645" stroke-width="2.275" stroke-linecap="round" stroke-linejoin="round"/>
<path d="M86.5419 56.0002C88.8686 46.7358 88.1242 36.9662 84.4209 28.1611" stroke="#474645" stroke-width="2.275" stroke-linecap="round" stroke-linejoin="round"/>
<path d="M20.2828 71.8213H9.43286V84.0562" stroke="#474645" stroke-width="2.275" stroke-linecap="round" stroke-linejoin="round"/>
<path d="M38.4438 38.0532V28.6382C38.4438 28.6382 39.8818 22.8382 53.4808 22.4932C53.4808 22.4932 63.8099 22.4493 67.3809 28.1663V49.7332C67.3809 49.7332 64.2998 56.3483 53.8998 56.0003" stroke="#474645" stroke-width="2.275" stroke-linecap="round" stroke-linejoin="round"/>
<path d="M38.6179 31.0791C38.6179 31.0791 52.3039 40.2321 67.2099 31.0791" stroke="#474645" stroke-width="2.275" stroke-linecap="round" stroke-linejoin="round"/>
<path d="M20.3118 60.6006V49.2105C20.3118 49.2105 21.7508 43.4104 35.3488 43.0654C35.3488 43.0654 45.6787 43.0215 49.2487 48.7395V59.8455C49.2487 59.8455 46.1677 66.4604 35.7657 66.1174C35.7697 66.1174 22.8108 66.4126 20.3118 60.6006Z" stroke="#474645" stroke-width="2.275" stroke-linecap="round" stroke-linejoin="round"/>
<path d="M20.4868 51.6514C20.4868 51.6514 34.1718 60.8044 49.0788 51.6514" stroke="#474645" stroke-width="2.275" stroke-linecap="round" stroke-linejoin="round"/>
<path d="M67.2097 41.3652C67.2097 41.3652 63.6357 45.4653 53.6987 45.4653" stroke="#474645" stroke-width="2.275" stroke-linecap="round" stroke-linejoin="round"/>
<path d="M63.0259 93.6673L86.2129 65.9473" stroke="#474645" stroke-width="2.275" stroke-linecap="round" stroke-linejoin="round"/>
<path d="M65.2919 78.4999C68.662 78.4999 71.3939 75.7679 71.3939 72.3979C71.3939 69.0279 68.662 66.2959 65.2919 66.2959C61.9219 66.2959 59.1899 69.0279 59.1899 72.3979C59.1899 75.7679 61.9219 78.4999 65.2919 78.4999Z" stroke="#474645" stroke-width="2.275" stroke-linecap="round" stroke-linejoin="round"/>
<path d="M84.5529 93.1024C87.923 93.1024 90.6549 90.3705 90.6549 87.0004C90.6549 83.6304 87.923 80.8984 84.5529 80.8984C81.1829 80.8984 78.4509 83.6304 78.4509 87.0004C78.4509 90.3705 81.1829 93.1024 84.5529 93.1024Z" stroke="#474645" stroke-width="2.275" stroke-linecap="round" stroke-linejoin="round"/>
</svg>
