<svg width="93" height="93" viewBox="0 0 93 93" fill="none" xmlns="http://www.w3.org/2000/svg">
<path d="M19.4661 1.34033L22.5761 12.1063" stroke="#474645" stroke-width="2.275" stroke-linecap="round" stroke-linejoin="round"/>
<path d="M6.30811 10.3125L16.1171 17.1315" stroke="#474645" stroke-width="2.275" stroke-linecap="round" stroke-linejoin="round"/>
<path d="M3.67603 28.1359L14.562 25.5039" stroke="#474645" stroke-width="2.275" stroke-linecap="round" stroke-linejoin="round"/>
<path d="M77.2441 58.8779H86.6941" stroke="#474645" stroke-width="2.275" stroke-linecap="round" stroke-linejoin="round"/>
<path d="M75.5688 67.252L83.5838 74.071" stroke="#474645" stroke-width="2.275" stroke-linecap="round" stroke-linejoin="round"/>
<path d="M68.8701 70.6611V80.0511" stroke="#474645" stroke-width="2.275" stroke-linecap="round" stroke-linejoin="round"/>
<path d="M48.4949 10.3113L55.9109 5.12817L59.3399 9.59424C59.748 10.1562 60.3183 10.5797 60.9742 10.8079C61.6301 11.036 62.3402 11.0578 63.0089 10.8704C63.6051 10.5768 64.1076 10.1226 64.4598 9.55908C64.8121 8.99554 65.0002 8.34475 65.0029 7.68018L65.9599 2.18018L74.9709 3.69531L74.2529 9.43726C74.2529 9.43726 73.7749 11.9894 75.5289 12.7874C76.152 13.0509 76.8386 13.127 77.5044 13.0066C78.1702 12.8862 78.7865 12.5743 79.2779 12.1091L83.7429 8.87915L89.3259 16.2961L85.3379 19.1672C84.7131 19.5097 84.1958 20.0192 83.8439 20.6387C83.4919 21.2582 83.3191 21.9633 83.3448 22.6753C83.4873 23.4063 83.857 24.0735 84.4011 24.582C84.9452 25.0906 85.6359 25.4145 86.3749 25.5073L91.6389 26.4243L90.4389 35.1162L85.1389 34.3162C85.1389 34.3162 82.7069 33.8774 81.7099 35.5164C81.3128 36.104 81.1227 36.807 81.1696 37.5146C81.2165 38.2223 81.4977 38.8943 81.9689 39.4243L85.2589 44.2092L78.2409 49.5522L74.7319 45.1663C74.4008 44.5732 73.8914 44.0995 73.2759 43.8123C72.6604 43.5251 71.97 43.4389 71.3029 43.5662C70.6438 43.769 70.062 44.1673 69.6346 44.7085C69.2072 45.2497 68.9544 45.9081 68.9099 46.5962L67.9529 52.2583L59.0999 50.9001L59.5789 45.6372C59.5789 45.6372 60.2169 43.0453 58.5789 41.8093C58.0102 41.4238 57.3297 41.238 56.644 41.2812C55.9584 41.3245 55.3066 41.5944 54.7909 42.0483L50.1649 45.7173L44.5829 38.3801L49.2079 34.7913C49.7415 34.3999 50.1372 33.8493 50.3379 33.2188C50.5386 32.5882 50.5341 31.9101 50.3249 31.2822C50.0639 30.7354 49.6732 30.2607 49.1867 29.8994C48.7003 29.5381 48.1328 29.3011 47.5339 29.2092L41.8188 28.4912L43.2269 19.4802L48.9689 20.1973C48.9689 20.1973 51.2019 20.4373 52.1589 18.8423C52.517 18.2712 52.6866 17.6019 52.6437 16.9292C52.6008 16.2565 52.3476 15.6143 51.9199 15.0933L48.4949 10.3113Z" stroke="#474645" stroke-width="2.275" stroke-linecap="round" stroke-linejoin="round"/>
<path d="M66.7639 38.3242C72.844 38.3242 77.7729 33.3953 77.7729 27.3152C77.7729 21.235 72.844 16.3062 66.7639 16.3062C60.6838 16.3062 55.7549 21.235 55.7549 27.3152C55.7549 33.3953 60.6838 38.3242 66.7639 38.3242Z" stroke="#474645" stroke-width="2.275" stroke-linecap="round" stroke-linejoin="round"/>
<path d="M50.4481 8.75667C50.4481 8.75667 21.3801 5.04863 19.7051 36.9876C19.7051 36.9876 19.5861 50.6245 30.7111 58.4005C30.7111 58.4005 36.8111 61.2715 36.8111 67.9705V73.1136C36.8111 73.1136 36.9311 77.7796 41.3571 77.7796H53.4391C53.4391 77.7796 58.4631 77.6595 58.4631 72.5155V66.7735C58.4736 65.1761 58.8979 63.6087 59.6946 62.2242C60.4914 60.8397 61.6333 59.6853 63.0091 58.8736C63.0091 58.8736 65.0421 57.5577 65.8801 57.0797" stroke="#474645" stroke-width="2.275" stroke-linecap="round" stroke-linejoin="round"/>
<path d="M55.1139 77.4199H39.9219V83.7599H55.1139V77.4199Z" stroke="#474645" stroke-width="2.275" stroke-linecap="round" stroke-linejoin="round"/>
<path d="M35.854 19.5225C35.854 19.5225 27.361 23.4704 27.361 37.5854C27.361 37.5854 27.002 48.5914 40.761 55.1704C40.761 55.1704 47.461 57.8025 47.461 64.9795" stroke="#474645" stroke-width="2.275" stroke-linecap="round" stroke-linejoin="round"/>
<path d="M47.3379 69.2852V72.5152" stroke="#474645" stroke-width="2.275" stroke-linecap="round" stroke-linejoin="round"/>
<path d="M39.9499 83.7603C39.9319 83.8791 39.9225 83.999 39.9219 84.1191V88.3914C39.9219 89.0666 40.1901 89.7142 40.6676 90.1917C41.1451 90.6691 41.7927 90.9373 42.4679 90.9373H52.5679C53.2431 90.9373 53.8907 90.6691 54.3682 90.1917C54.8456 89.7142 55.1139 89.0666 55.1139 88.3914V84.1191C55.1127 83.999 55.1033 83.8791 55.0859 83.7603H39.9499Z" stroke="#474645" stroke-width="2.275" stroke-linecap="round" stroke-linejoin="round"/>
<path d="M31.686 58.9683C31.3731 58.7588 31.0475 58.569 30.711 58.4001C19.586 50.6241 19.705 36.9873 19.705 36.9873C19.719 36.7333 19.739 36.4873 19.755 36.2393L17.055 36.1533L16.902 40.2412C16.9653 40.7239 16.8929 41.2147 16.6927 41.6584C16.4926 42.1022 16.1727 42.4812 15.769 42.7532C15.302 42.9548 14.7845 43.0087 14.2859 42.9077C13.7874 42.8067 13.3317 42.5557 12.98 42.1882L10.052 39.2883L5.17902 43.7812L8.13898 46.9163C8.50126 47.2525 8.74862 47.6942 8.84607 48.1787C8.94352 48.6633 8.88615 49.1661 8.68201 49.6162C8.46124 50.0026 8.14429 50.3254 7.76196 50.5532C7.37964 50.781 6.94492 50.9061 6.5 50.9163L2.26099 50.9612L2.12598 57.6401L6.34497 57.5994C6.78883 57.6068 7.22414 57.7226 7.61285 57.937C8.00157 58.1514 8.3319 58.4579 8.57501 58.8293C8.78868 59.2644 8.85877 59.7559 8.77521 60.2334C8.69165 60.7109 8.45872 61.1497 8.10999 61.4863L5.10999 64.5461L9.88501 69.3223L12.885 66.2043C13.215 65.8246 13.6615 65.5648 14.1547 65.4658C14.648 65.3668 15.1601 65.4342 15.611 65.6572C16.919 66.3932 16.711 68.3372 16.711 68.3372L16.882 72.2053L23.441 72.3171L23.578 68.1172C23.5429 67.6134 23.6616 67.1108 23.9183 66.676C24.1751 66.2412 24.5579 65.8946 25.016 65.6821C25.4873 65.5239 25.9965 65.5181 26.4714 65.6653C26.9463 65.8125 27.3628 66.1052 27.662 66.5022L30.641 69.3403L35.209 64.7712L32.35 61.6223C31.9811 61.301 31.7196 60.8742 31.6009 60.3997C31.4822 59.9251 31.5118 59.4254 31.686 58.9683Z" stroke="#474645" stroke-width="2.275" stroke-linecap="round" stroke-linejoin="round"/>
<path d="M21.59 46.3935C20.0377 46.104 18.4347 46.2766 16.9797 46.8899C15.5247 47.5032 14.2818 48.5304 13.4052 49.8437C12.5286 51.1571 12.0569 52.6989 12.0487 54.2778C12.0405 55.8568 12.4961 57.4034 13.3589 58.7258C14.2217 60.0482 15.4538 61.0881 16.9023 61.7165C18.3509 62.345 19.952 62.5345 21.5072 62.2612C23.0623 61.9879 24.503 61.2639 25.6505 60.1792C26.798 59.0945 27.6016 57.6968 27.9619 56.1594C25.1193 53.434 22.9395 50.0932 21.59 46.3935Z" stroke="#474645" stroke-width="2.275" stroke-linecap="round" stroke-linejoin="round"/>
</svg>
