<svg width="77" height="93" viewBox="0 0 77 93" fill="none" xmlns="http://www.w3.org/2000/svg">
<path d="M38.3308 68.6343V79.6323" stroke="#474645" stroke-width="2.275" stroke-linecap="round" stroke-linejoin="round"/>
<path d="M38.3307 90.9373C39.4728 90.9373 40.3987 90.0114 40.3987 88.8693C40.3987 87.7271 39.4728 86.8013 38.3307 86.8013C37.1886 86.8013 36.2627 87.7271 36.2627 88.8693C36.2627 90.0114 37.1886 90.9373 38.3307 90.9373Z" stroke="#474645" stroke-width="2.275" stroke-linecap="round" stroke-linejoin="round"/>
<path d="M30.6438 64.9385V75.9365" stroke="#474645" stroke-width="2.275" stroke-linecap="round" stroke-linejoin="round"/>
<path d="M30.6437 87.2415C31.7858 87.2415 32.7117 86.3156 32.7117 85.1735C32.7117 84.0313 31.7858 83.1055 30.6437 83.1055C29.5016 83.1055 28.5757 84.0313 28.5757 85.1735C28.5757 86.3156 29.5016 87.2415 30.6437 87.2415Z" stroke="#474645" stroke-width="2.275" stroke-linecap="round" stroke-linejoin="round"/>
<path d="M45.8628 64.9385V75.9365" stroke="#474645" stroke-width="2.275" stroke-linecap="round" stroke-linejoin="round"/>
<path d="M45.8629 87.2415C47.005 87.2415 47.9309 86.3156 47.9309 85.1735C47.9309 84.0313 47.005 83.1055 45.8629 83.1055C44.7208 83.1055 43.7949 84.0313 43.7949 85.1735C43.7949 86.3156 44.7208 87.2415 45.8629 87.2415Z" stroke="#474645" stroke-width="2.275" stroke-linecap="round" stroke-linejoin="round"/>
<path d="M38.3309 50.9003H26.9619C26.8439 45.1053 23.0618 43.1005 23.0618 43.1005C13.6008 36.0005 14.4288 24.4154 14.4288 24.4154C14.4288 17.0074 17.0288 9.78525 23.4288 5.64025C36.9988 -3.14775 57.8859 1.69934 60.9409 18.9493C61.2508 20.7546 61.402 22.5837 61.3928 24.4154C61.3928 24.4154 62.2208 36.0045 52.7608 43.1005C52.7608 43.1005 48.9758 45.1103 48.8608 50.9003H38.3309Z" stroke="#474645" stroke-width="2.275" stroke-linecap="round" stroke-linejoin="round"/>
<path d="M49.0827 38.3545C49.0827 38.3545 50.5828 30.2975 45.2328 24.1655L38.3327 17.1064L31.4327 24.1655C26.0847 30.2975 27.5818 38.3545 27.5818 38.3545" stroke="#474645" stroke-width="2.275" stroke-linecap="round" stroke-linejoin="round"/>
<path d="M38.3307 41.4915C40.6934 41.4915 42.6087 39.5762 42.6087 37.2135C42.6087 34.8509 40.6934 32.9355 38.3307 32.9355C35.9681 32.9355 34.0527 34.8509 34.0527 37.2135C34.0527 39.5762 35.9681 41.4915 38.3307 41.4915Z" stroke="#474645" stroke-width="2.275" stroke-linecap="round" stroke-linejoin="round"/>
<path d="M26.9618 50.9004V59.3115C26.9618 59.3115 26.0788 64.1035 30.6438 64.1035H45.4437C45.4437 64.1035 48.8568 64.0245 48.8568 59.6255V50.9004" stroke="#474645" stroke-width="2.275" stroke-linecap="round" stroke-linejoin="round"/>
<path d="M38.3296 56.084V64.098" stroke="#474645" stroke-width="2.275" stroke-linecap="round" stroke-linejoin="round"/>
<path d="M49.2759 60.4053H59.2499C59.2499 60.4053 64.7499 60.3272 61.4099 54.1992C61.4099 54.1992 59.9099 50.9443 55.2439 48.0713" stroke="#474645" stroke-width="2.275" stroke-linecap="round" stroke-linejoin="round"/>
<path d="M26.8827 60.4053H16.9087C16.9087 60.4053 11.4087 60.3272 14.7487 54.1992C14.7487 54.1992 16.2487 50.9443 20.9157 48.0713" stroke="#474645" stroke-width="2.275" stroke-linecap="round" stroke-linejoin="round"/>
<path d="M6.61572 43.2003L13.2067 38.8003" stroke="#474645" stroke-width="2.275" stroke-linecap="round" stroke-linejoin="round"/>
<path d="M1.42578 24.7373H9.91078" stroke="#474645" stroke-width="2.275" stroke-linecap="round" stroke-linejoin="round"/>
<path d="M6.61572 5.41113L13.2067 10.1251" stroke="#474645" stroke-width="2.275" stroke-linecap="round" stroke-linejoin="round"/>
<path d="M69.7697 43.2003L63.1787 38.8003" stroke="#474645" stroke-width="2.275" stroke-linecap="round" stroke-linejoin="round"/>
<path d="M74.9586 24.7373H66.4736" stroke="#474645" stroke-width="2.275" stroke-linecap="round" stroke-linejoin="round"/>
<path d="M69.7697 5.41113L63.1787 10.1251" stroke="#474645" stroke-width="2.275" stroke-linecap="round" stroke-linejoin="round"/>
<path d="M8.99976 90.6501C8.99976 90.6501 8.99978 78.2731 19.3738 80.6711" stroke="#474645" stroke-width="2.275" stroke-linecap="round" stroke-linejoin="round"/>
<path d="M19.3766 83.56C19.3766 83.56 17.9316 71.6109 29.7496 72.1359" stroke="#474645" stroke-width="2.275" stroke-linecap="round" stroke-linejoin="round"/>
<path d="M68.4868 90.6501C68.4868 90.6501 68.4868 78.2731 58.1128 80.6711" stroke="#474645" stroke-width="2.275" stroke-linecap="round" stroke-linejoin="round"/>
<path d="M58.1128 83.56C58.1128 83.56 59.5577 71.6109 47.7397 72.1359" stroke="#474645" stroke-width="2.275" stroke-linecap="round" stroke-linejoin="round"/>
</svg>
