<svg width="90" height="88" viewBox="0 0 90 88" fill="none" xmlns="http://www.w3.org/2000/svg">
<path d="M29.3181 64.4743H60.8901C61.1902 58.653 63.423 53.0978 67.2351 48.6882C71.5996 44.2066 74.0903 38.229 74.1991 31.9743C74.1991 31.9743 76.4761 1.83424 45.2591 1.17424C45.2591 1.17424 16.0071 0.70911 16.0091 30.8881C16.0091 30.8881 15.6991 41.1031 24.6751 50.3881C27.8822 54.3637 29.5326 59.3709 29.3181 64.4743Z" stroke="#474645" stroke-width="2.275" stroke-linecap="round" stroke-linejoin="round"/>
<path d="M45.259 11.3901C45.259 11.3901 63.985 12.6292 63.985 30.2712" stroke="#474645" stroke-width="2.275" stroke-linecap="round" stroke-linejoin="round"/>
<path d="M3.16309 14.6401L7.72809 19.2051" stroke="#474645" stroke-width="2.275" stroke-linecap="round" stroke-linejoin="round"/>
<path d="M1.77002 33.0571H9.35302" stroke="#474645" stroke-width="2.275" stroke-linecap="round" stroke-linejoin="round"/>
<path d="M2.854 51.1643L8.116 45.9023" stroke="#474645" stroke-width="2.275" stroke-linecap="round" stroke-linejoin="round"/>
<path d="M87.3531 14.6401L82.7881 19.2051" stroke="#474645" stroke-width="2.275" stroke-linecap="round" stroke-linejoin="round"/>
<path d="M88.7461 33.0571H81.1631" stroke="#474645" stroke-width="2.275" stroke-linecap="round" stroke-linejoin="round"/>
<path d="M87.6631 51.1643L82.4011 45.9023" stroke="#474645" stroke-width="2.275" stroke-linecap="round" stroke-linejoin="round"/>
<path d="M29.3181 64.4746H60.8891V67.1946C60.8891 69.0387 60.1566 70.8072 58.8526 72.1111C57.5487 73.4151 55.7802 74.1476 53.9361 74.1476H36.2711C34.4271 74.1476 32.6585 73.4151 31.3546 72.1111C30.0507 70.8072 29.3181 69.0387 29.3181 67.1946V64.4746Z" stroke="#474645" stroke-width="2.275" stroke-linecap="round" stroke-linejoin="round"/>
<path d="M33.946 74.1475C33.946 74.2575 33.938 74.3675 33.938 74.4785C33.938 77.53 35.1502 80.4563 37.3079 82.614C39.4656 84.7717 42.392 85.9839 45.4435 85.9839C48.4949 85.9839 51.4214 84.7717 53.5791 82.614C55.7368 80.4563 56.949 77.53 56.949 74.4785C56.949 74.3675 56.944 74.2575 56.941 74.1475H33.946Z" stroke="#474645" stroke-width="2.275" stroke-linecap="round" stroke-linejoin="round"/>
</svg>
