<svg width="94" height="91" viewBox="0 0 94 91" fill="none" xmlns="http://www.w3.org/2000/svg">
<path d="M81.6019 1.38135H12.2929C6.34037 1.38135 1.51489 6.20682 1.51489 12.1593V59.3563C1.51489 65.3089 6.34037 70.1343 12.2929 70.1343H81.6019C87.5544 70.1343 92.3799 65.3089 92.3799 59.3563V12.1593C92.3799 6.20682 87.5544 1.38135 81.6019 1.38135Z" stroke="#474645" stroke-width="2.275" stroke-linecap="round" stroke-linejoin="round"/>
<path d="M85.9639 57.3005V9.07056C85.9641 8.83935 85.9187 8.61038 85.8303 8.39673C85.7419 8.18308 85.6122 7.98898 85.4488 7.82544C85.2853 7.6619 85.0913 7.53211 84.8777 7.4436C84.6641 7.35509 84.4352 7.30957 84.2039 7.30957H9.68994C9.45873 7.30957 9.22977 7.35509 9.01617 7.4436C8.80258 7.53211 8.60851 7.6619 8.44507 7.82544C8.28162 7.98898 8.15202 8.18308 8.06363 8.39673C7.97524 8.61038 7.9298 8.83935 7.92993 9.07056V57.3005H85.9639Z" stroke="#474645" stroke-width="2.275" stroke-linecap="round" stroke-linejoin="round"/>
<path d="M21.6899 21.5952H65.9919" stroke="#474645" stroke-width="2.275" stroke-linecap="round" stroke-linejoin="round"/>
<path d="M37.6679 30.7949H30.6469C28.842 30.7949 27.3789 32.2581 27.3789 34.0629C27.3789 35.8678 28.842 37.3309 30.6469 37.3309H37.6679C39.4728 37.3309 40.9359 35.8678 40.9359 34.0629C40.9359 32.2581 39.4728 30.7949 37.6679 30.7949Z" stroke="#474645" stroke-width="2.275" stroke-linecap="round" stroke-linejoin="round"/>
<path d="M41.6619 64.042H51.9509" stroke="#474645" stroke-width="2.275" stroke-linecap="round" stroke-linejoin="round"/>
<path d="M67.1218 82.6821H26.5318C24.8159 82.6821 23.4248 84.0732 23.4248 85.7891C23.4248 87.5051 24.8159 88.8961 26.5318 88.8961H67.1218C68.8378 88.8961 70.2288 87.5051 70.2288 85.7891C70.2288 84.0732 68.8378 82.6821 67.1218 82.6821Z" stroke="#474645" stroke-width="2.275" stroke-linecap="round" stroke-linejoin="round"/>
<path d="M64.1768 46.9346L69.0988 51.5344L73.4568 46.9346L68.8167 41.8506L71.8427 38.9456L56.5107 34.0635L61.0298 49.6785L64.1768 46.9346Z" stroke="#474645" stroke-width="2.275" stroke-linecap="round" stroke-linejoin="round"/>
<path d="M38.838 70.1343C38.838 70.1343 40.8549 81.7141 29.6379 82.6821H62.0769C62.0769 82.6821 54.9619 81.1493 54.5659 70.1343H38.838Z" stroke="#474645" stroke-width="2.275" stroke-linecap="round" stroke-linejoin="round"/>
<path d="M56.51 34.0635L65.992 37.0825V15.9414C65.992 15.3545 65.7589 14.7917 65.3438 14.3767C64.9288 13.9617 64.3659 13.7285 63.779 13.7285H23.9C23.6094 13.7285 23.3216 13.7858 23.0531 13.897C22.7846 14.0082 22.5407 14.1712 22.3352 14.3767C22.1297 14.5822 21.9667 14.8262 21.8555 15.0947C21.7443 15.3632 21.687 15.6508 21.687 15.9414V41.2915C21.687 41.5821 21.7443 41.8699 21.8555 42.1384C21.9667 42.4069 22.1297 42.6507 22.3352 42.8562C22.5407 43.0617 22.7846 43.2247 23.0531 43.3359C23.3216 43.4472 23.6094 43.5044 23.9 43.5044H59.24L56.51 34.0635Z" stroke="#474645" stroke-width="2.275" stroke-linecap="round" stroke-linejoin="round"/>
</svg>
