<svg width="76" height="87" viewBox="0 0 76 87" fill="none" xmlns="http://www.w3.org/2000/svg">
<path d="M16.2688 27.833H33.7998" stroke="#474645" stroke-width="2.275" stroke-linecap="round" stroke-linejoin="round"/>
<path d="M16.2688 38.5151H45.9868" stroke="#474645" stroke-width="2.275" stroke-linecap="round" stroke-linejoin="round"/>
<path d="M16.2688 49.1982H40.8068" stroke="#474645" stroke-width="2.275" stroke-linecap="round" stroke-linejoin="round"/>
<path d="M53.3619 83.5403H4.06189C3.29276 83.5403 2.55515 83.2348 2.01129 82.6909C1.46744 82.1471 1.16187 81.4093 1.16187 80.6401V4.55933C1.16187 3.7902 1.46744 3.0524 2.01129 2.50854C2.55515 1.96469 3.29276 1.65918 4.06189 1.65918H42.3619C42.9382 1.65967 43.5088 1.77412 44.0408 1.99585C44.5728 2.21758 45.0557 2.54219 45.4619 2.95117L61.3619 18.9683C62.1747 19.7881 62.6308 20.8958 62.6309 22.0503V53.9001" stroke="#474645" stroke-width="2.275" stroke-linecap="round" stroke-linejoin="round"/>
<path d="M43.9999 1.65234L43.9949 3.28516V16.5474C43.9949 17.5509 44.3936 18.5133 45.1032 19.2229C45.8128 19.9325 46.7753 20.3313 47.7789 20.3313H62.6219" stroke="#474645" stroke-width="2.275" stroke-linecap="round" stroke-linejoin="round"/>
<path d="M72.5198 64.8821L60.4418 52.8C59.5026 51.8612 58.229 51.3338 56.9011 51.334C55.5731 51.3342 54.2996 51.8619 53.3608 52.801C52.4219 53.7402 51.8945 55.0139 51.8947 56.3418C51.8949 57.6697 52.4226 58.9432 53.3618 59.8821L56.8918 63.4109H33.8088C32.4808 63.4109 31.2072 63.9384 30.2682 64.8774C29.3293 65.8164 28.8018 67.09 28.8018 68.418C28.8018 69.7459 29.3293 71.0195 30.2682 71.9585C31.2072 72.8975 32.4808 73.425 33.8088 73.425H56.8918L53.3618 76.9551C52.8967 77.42 52.5278 77.9719 52.2761 78.5793C52.0244 79.1868 51.8948 79.8378 51.8947 80.4954C51.8946 81.1529 52.024 81.8039 52.2756 82.4114C52.5271 83.0189 52.8959 83.5709 53.3608 84.0359C53.8257 84.5009 54.3775 84.8699 54.985 85.1216C55.5924 85.3733 56.2435 85.5028 56.9011 85.5029C57.5586 85.503 58.2097 85.3736 58.8172 85.1221C59.4247 84.8705 59.9768 84.502 60.4418 84.0371L72.5198 71.959C72.9849 71.494 73.3538 70.942 73.6055 70.3345C73.8572 69.7269 73.9868 69.0756 73.9868 68.418C73.9868 67.7603 73.8572 67.109 73.6055 66.5015C73.3538 65.8939 72.9849 65.3419 72.5198 64.877V64.8821Z" stroke="#474645" stroke-width="2.275" stroke-linecap="round" stroke-linejoin="round"/>
</svg>
