<svg width="94" height="94" viewBox="0 0 94 94" fill="none" xmlns="http://www.w3.org/2000/svg">
<path d="M18.9539 20.4941L28.796 27.2451L10.3309 49.9391L1.22095 41.9672" stroke="#474645" stroke-width="2.357" stroke-linecap="round" stroke-linejoin="round"/>
<path d="M91.9181 40.7491L82.7261 48.5581L65.644 27.0841L76.381 20.4141" stroke="#474645" stroke-width="2.357" stroke-linecap="round" stroke-linejoin="round"/>
<path d="M23.916 7.07324L36.605 19.9252" stroke="#474645" stroke-width="2.357" stroke-linecap="round" stroke-linejoin="round"/>
<path d="M46.6108 8.86328V20.3323" stroke="#474645" stroke-width="2.357" stroke-linecap="round" stroke-linejoin="round"/>
<path d="M69.5489 6.99219L56.4529 20.0882" stroke="#474645" stroke-width="2.357" stroke-linecap="round" stroke-linejoin="round"/>
<path d="M46.6099 3.57518C47.5532 3.57518 48.3179 2.81048 48.3179 1.86718C48.3179 0.923877 47.5532 0.15918 46.6099 0.15918C45.6666 0.15918 44.9019 0.923877 44.9019 1.86718C44.9019 2.81048 45.6666 3.57518 46.6099 3.57518Z" fill="#474645"/>
<path d="M51.166 77.9219L56.128 82.5589" stroke="#474645" stroke-width="2.357" stroke-linecap="round" stroke-linejoin="round"/>
<path d="M54.582 67.7539L62.554 75.7259" stroke="#474645" stroke-width="2.357" stroke-linecap="round" stroke-linejoin="round"/>
<path d="M57.1851 57.0171L69.3051 69.2181" stroke="#474645" stroke-width="2.357" stroke-linecap="round" stroke-linejoin="round"/>
<path d="M31.888 50.5908C35.873 52.8688 38.151 48.9639 38.151 48.9639L43.601 39.6909L53.606 40.4229L74.348 60.8398C75.0696 61.4257 75.7147 62.1001 76.268 62.8469L82.727 48.5579L65.645 27.0829L51.41 26.9199L38.476 29.9299L30.261 43.6769C27.577 48.4759 31.888 50.5908 31.888 50.5908Z" stroke="#474645" stroke-width="2.357" stroke-linecap="round" stroke-linejoin="round"/>
<path d="M28.181 67.2312L24.816 70.5962C23.9381 71.4027 22.776 71.8279 21.5849 71.7784C20.3938 71.7289 19.271 71.2088 18.463 70.3323C17.5863 69.5244 17.066 68.4017 17.0164 67.2105C16.9667 66.0194 17.3916 64.8573 18.198 63.9792L21.563 60.6142C22.4409 59.8078 23.603 59.3826 24.7941 59.4321C25.9852 59.4816 27.108 60.0017 27.916 60.8783C28.7927 61.6861 29.313 62.8087 29.3627 63.9999C29.4124 65.191 28.9874 66.3531 28.181 67.2312Z" stroke="#474645" stroke-width="2.357" stroke-linecap="round" stroke-linejoin="round"/>
<path d="M48.2521 87.3002L44.8871 90.6651C44.009 91.4715 42.8469 91.8965 41.6558 91.8468C40.4647 91.7971 39.3419 91.2768 38.5341 90.4001C37.6574 89.5923 37.1371 88.4695 37.0874 87.2784C37.0377 86.0873 37.4627 84.9252 38.2691 84.0471L41.634 80.6821C42.5127 79.8768 43.6747 79.4525 44.8656 79.5019C46.0565 79.5514 47.1792 80.0707 47.988 80.9461C48.8635 81.755 49.3828 82.8777 49.4323 84.0686C49.4817 85.2595 49.0574 86.4215 48.2521 87.3002Z" stroke="#474645" stroke-width="2.357" stroke-linecap="round" stroke-linejoin="round"/>
<path d="M35.9339 72.7361L30.7179 77.9531C29.8398 78.7595 28.6777 79.1844 27.4865 79.1347C26.2954 79.0851 25.1727 78.5648 24.3648 77.6881C23.4883 76.8801 22.9682 75.7574 22.9187 74.5663C22.8692 73.3752 23.2944 72.213 24.1009 71.3351L29.3169 66.1191C30.1948 65.3126 31.3568 64.8875 32.548 64.937C33.7391 64.9865 34.8618 65.5066 35.6698 66.3832C36.5464 67.1912 37.0665 68.3139 37.116 69.505C37.1655 70.6961 36.7404 71.8581 35.9339 72.7361Z" stroke="#474645" stroke-width="2.357" stroke-linecap="round" stroke-linejoin="round"/>
<path d="M42.8179 79.4579L37.4689 84.8069C36.5681 85.6328 35.3766 86.0681 34.1555 86.0173C32.9343 85.9665 31.7831 85.4338 30.9539 84.5359C30.0559 83.7068 29.523 82.5557 29.472 81.3346C29.4211 80.1134 29.8561 78.9218 30.6819 78.0208L36.0309 72.6718C36.9317 71.8456 38.1232 71.4102 39.3444 71.461C40.5656 71.5118 41.7169 72.0447 42.546 72.9428C43.444 73.7719 43.9768 74.923 44.0278 76.1441C44.0788 77.3653 43.6438 78.5569 42.8179 79.4579Z" stroke="#474645" stroke-width="2.357" stroke-linecap="round" stroke-linejoin="round"/>
<path d="M74.3481 60.8401L53.6061 40.4231L43.6011 39.6912L38.1511 48.9641C38.1511 48.9641 35.8731 52.8691 31.8881 50.5911C31.8881 50.5911 27.577 48.4761 30.261 43.6771L38.4761 29.9302L28.7971 27.2461L10.332 49.9401L19.4421 61.8162L19.9191 62.2571L21.563 60.6141C22.4644 59.8679 23.6118 59.4847 24.7807 59.5396C25.9496 59.5944 27.056 60.0834 27.8835 60.9108C28.711 61.7382 29.2002 62.8444 29.2552 64.0133C29.3102 65.1822 28.9272 66.3296 28.1811 67.2311L26.7961 68.6171L26.808 68.6282L29.3171 66.1191C30.195 65.3127 31.3571 64.8875 32.5482 64.937C33.7393 64.9865 34.8621 65.5066 35.67 66.3832C36.5466 67.1912 37.0667 68.3139 37.1162 69.505C37.1657 70.6961 36.7406 71.8582 35.9341 72.7361L33.6841 74.9872L33.701 75.0021L36.0311 72.6721C36.9529 71.8904 38.1349 71.4839 39.3426 71.5334C40.5502 71.583 41.6951 72.0849 42.5498 72.9395C43.4045 73.794 43.9066 74.9387 43.9563 76.1464C44.006 77.354 43.5997 78.5362 42.8181 79.4581L40.7521 81.5231L40.7751 81.5441L41.634 80.6852C42.5127 79.8799 43.6747 79.4555 44.8656 79.505C46.0565 79.5545 47.1792 80.0737 47.988 80.9491C48.8635 81.758 49.3828 82.8808 49.4323 84.0717C49.4817 85.2625 49.0574 86.4244 48.2521 87.3031L47.652 87.9031L48.6451 88.8221C48.6451 88.8221 52.387 92.1571 55.722 89.3911C55.722 89.3911 58.8131 86.1381 56.1291 82.5591C56.1291 82.5591 59.87 85.5681 62.717 82.6401C62.717 82.6401 65.6461 79.7121 62.5551 75.7261C62.5551 75.7261 66.6221 79.0611 69.3871 76.0511C69.3871 76.0511 72.7221 73.2041 69.3061 69.2181C69.3061 69.2181 73.2111 72.7181 76.4641 68.8931C76.4631 68.8931 79.7171 65.3141 74.3481 60.8401Z" stroke="#474645" stroke-width="2.357" stroke-linecap="round" stroke-linejoin="round"/>
</svg>
