<svg width="103" height="88" viewBox="0 0 103 88" fill="none" xmlns="http://www.w3.org/2000/svg">
<path d="M34.466 18.4824L43.506 24.6824L26.547 45.5264L18.179 38.2046" stroke="#474645" stroke-width="2.275" stroke-linecap="round" stroke-linejoin="round"/>
<path d="M101.482 37.0852L93.04 44.2573L77.351 24.5332L87.213 18.4072" stroke="#474645" stroke-width="2.275" stroke-linecap="round" stroke-linejoin="round"/>
<path d="M46.345 46.1248C50.006 48.2168 52.098 44.6309 52.098 44.6309L57.104 36.1128L66.293 36.7856L85.345 55.5378C86.0072 56.0766 86.5995 56.6961 87.108 57.3818L93.04 44.2568L77.35 24.5327L64.276 24.3838L52.397 27.1477L44.851 39.7737C42.386 44.1817 46.345 46.1248 46.345 46.1248Z" stroke="#474645" stroke-width="2.275" stroke-linecap="round" stroke-linejoin="round"/>
<path d="M42.941 61.4086L39.85 64.4987C39.0433 65.2389 37.9761 65.629 36.8822 65.5834C35.7884 65.5379 34.7573 65.0605 34.015 64.2558C33.2105 63.5133 32.7332 62.4821 32.6877 61.3884C32.6421 60.2946 33.032 59.2273 33.772 58.4206L36.862 55.3298C37.669 54.59 38.7363 54.2002 39.8302 54.2458C40.924 54.2913 41.9552 54.7684 42.698 55.5727C43.5023 56.3154 43.9794 57.3468 44.0249 58.4406C44.0705 59.5344 43.6807 60.6016 42.941 61.4086Z" stroke="#474645" stroke-width="2.275" stroke-linecap="round" stroke-linejoin="round"/>
<path d="M61.376 79.8439L58.285 82.934C57.4782 83.6739 56.411 84.0638 55.3172 84.0182C54.2235 83.9727 53.1924 83.4953 52.45 82.6908C51.6453 81.9485 51.1679 80.9175 51.1223 79.8237C51.0767 78.7298 51.4668 77.6625 52.207 76.8559L55.297 73.7648C56.1041 73.0253 57.1714 72.6358 58.2652 72.6813C59.3589 72.7269 60.3901 73.2039 61.133 74.008C61.9373 74.7507 62.4144 75.7818 62.4599 76.8757C62.5055 77.9695 62.1157 79.0369 61.376 79.8439Z" stroke="#474645" stroke-width="2.275" stroke-linecap="round" stroke-linejoin="round"/>
<path d="M50.062 66.4653L45.271 71.2563C44.4641 71.996 43.3969 72.3856 42.3033 72.34C41.2096 72.2945 40.1785 71.8173 39.436 71.0131C38.6317 70.2705 38.1547 69.2396 38.1091 68.1459C38.0636 67.0522 38.4533 65.985 39.193 65.1781L43.984 60.3871C44.7906 59.6469 45.8579 59.2569 46.9517 59.3024C48.0455 59.348 49.0766 59.8254 49.819 60.63C50.6234 61.3725 51.1007 62.4037 51.1463 63.4975C51.1918 64.5912 50.8019 65.6585 50.062 66.4653Z" stroke="#474645" stroke-width="2.275" stroke-linecap="round" stroke-linejoin="round"/>
<path d="M56.384 72.6382L51.471 77.5513C50.6436 78.31 49.5492 78.7098 48.4276 78.6631C47.3059 78.6164 46.2485 78.1271 45.487 77.3023C44.6624 76.5406 44.1731 75.4832 44.1265 74.3616C44.0798 73.24 44.4795 72.1459 45.238 71.3184L50.151 66.4053C50.9785 65.6468 52.0729 65.247 53.1945 65.2937C54.316 65.3404 55.3734 65.8297 56.135 66.6543C56.9599 67.4158 57.4492 68.4731 57.4959 69.5947C57.5426 70.7164 57.1427 71.8108 56.384 72.6382Z" stroke="#474645" stroke-width="2.275" stroke-linecap="round" stroke-linejoin="round"/>
<path d="M85.345 55.5386L66.293 36.7864L57.104 36.1135L52.098 44.6316C52.098 44.6316 50.006 48.2175 46.345 46.1255C46.345 46.1255 42.386 44.1824 44.851 39.7744L52.397 27.1484L43.506 24.6836L26.547 45.5276L34.915 56.4355L35.353 56.8406L36.862 55.3306C37.6877 54.6303 38.7467 54.2662 39.8285 54.3105C40.9103 54.3549 41.9358 54.8045 42.7014 55.5701C43.467 56.3357 43.9166 57.3613 43.961 58.4431C44.0054 59.5249 43.6413 60.5837 42.941 61.4094L41.668 62.6814L41.68 62.6914L43.98 60.3916C44.7866 59.6515 45.8538 59.2613 46.9475 59.3066C48.0413 59.352 49.0724 59.8292 49.815 60.6335C50.6195 61.376 51.0968 62.407 51.1423 63.5007C51.1879 64.5945 50.7979 65.6617 50.058 66.4685L47.991 68.5354L48.007 68.5496L50.147 66.4084C50.994 65.693 52.079 65.3218 53.1868 65.3684C54.2946 65.415 55.3445 65.8759 56.1285 66.6599C56.9126 67.4439 57.3735 68.494 57.4201 69.6018C57.4667 70.7096 57.0955 71.7945 56.38 72.6416L54.48 74.5415L54.501 74.5615L55.29 73.7715C56.0971 73.032 57.1644 72.6424 58.2582 72.688C59.3519 72.7335 60.3831 73.2104 61.126 74.0144C61.9303 74.7572 62.4075 75.7885 62.453 76.8823C62.4985 77.9762 62.1088 79.0435 61.369 79.8506L60.817 80.4014L61.729 81.2456C61.729 81.2456 65.166 84.3086 68.229 81.7686C68.229 81.7686 71.068 78.7794 68.602 75.4924C68.602 75.4924 72.039 78.2574 74.654 75.5674C74.654 75.5674 77.343 72.8776 74.504 69.2166C74.504 69.2166 78.24 72.2806 80.78 69.5166C80.78 69.5166 83.843 66.9015 80.705 63.2415C80.705 63.2415 84.292 66.4534 87.28 62.9414C87.287 62.9354 90.275 59.6476 85.345 55.5386Z" stroke="#474645" stroke-width="2.275" stroke-linecap="round" stroke-linejoin="round"/>
<path d="M15.123 86.5193C22.3922 86.5193 28.285 80.6265 28.285 73.3573C28.285 66.0881 22.3922 60.1953 15.123 60.1953C7.85383 60.1953 1.961 66.0881 1.961 73.3573C1.961 80.6265 7.85383 86.5193 15.123 86.5193Z" fill="#474645" stroke="#474645" stroke-width="2.275" stroke-linecap="round" stroke-linejoin="round"/>
<path d="M8.93201 73.3569L13.094 76.947L20.377 68.207" stroke="white" stroke-width="2.275" stroke-linecap="round" stroke-linejoin="round"/>
</svg>
