<svg width="77" height="92" viewBox="0 0 77 92" fill="none" xmlns="http://www.w3.org/2000/svg">
<path d="M38.266 68.5156V79.5136" stroke="#474645" stroke-width="2.275" stroke-linecap="round" stroke-linejoin="round"/>
<path d="M38.266 90.8186C39.4081 90.8186 40.334 89.8927 40.334 88.7506C40.334 87.6085 39.4081 86.6826 38.266 86.6826C37.1239 86.6826 36.198 87.6085 36.198 88.7506C36.198 89.8927 37.1239 90.8186 38.266 90.8186Z" stroke="#474645" stroke-width="2.275" stroke-linecap="round" stroke-linejoin="round"/>
<path d="M30.579 64.8203V75.8183" stroke="#474645" stroke-width="2.275" stroke-linecap="round" stroke-linejoin="round"/>
<path d="M31.393 88.7523C32.9847 88.7523 34.275 87.462 34.275 85.8703C34.275 84.2786 32.9847 82.9883 31.393 82.9883C29.8013 82.9883 28.511 84.2786 28.511 85.8703C28.511 87.462 29.8013 88.7523 31.393 88.7523Z" stroke="#474645" stroke-width="2.275" stroke-linecap="round" stroke-linejoin="round"/>
<path d="M45.798 64.8203V75.8183" stroke="#474645" stroke-width="2.275" stroke-linecap="round" stroke-linejoin="round"/>
<path d="M45.798 87.1243C46.9401 87.1243 47.866 86.1984 47.866 85.0563C47.866 83.9142 46.9401 82.9883 45.798 82.9883C44.6559 82.9883 43.73 83.9142 43.73 85.0563C43.73 86.1984 44.6559 87.1243 45.798 87.1243Z" stroke="#474645" stroke-width="2.275" stroke-linecap="round" stroke-linejoin="round"/>
<path d="M38.266 50.777H26.9C26.782 44.977 23 42.9718 23 42.9718C13.539 35.8768 14.367 24.287 14.367 24.287C14.367 16.879 16.967 9.65683 23.367 5.51183C36.937 -3.27617 57.824 1.57092 60.879 18.8209C61.1889 20.6262 61.3401 22.4553 61.331 24.287C61.331 24.287 62.159 35.8768 52.698 42.9718C52.698 42.9718 48.914 44.982 48.798 50.777H38.266Z" stroke="#474645" stroke-width="2.275" stroke-linecap="round" stroke-linejoin="round"/>
<path d="M49.018 38.2354C49.018 38.2354 50.5179 30.1784 45.1679 24.0464L38.268 16.9883L31.368 24.0464C26.021 30.1784 27.518 38.2354 27.518 38.2354" stroke="#474645" stroke-width="2.275" stroke-linecap="round" stroke-linejoin="round"/>
<path d="M38.266 41.3724C40.6287 41.3724 42.544 39.4571 42.544 37.0944C42.544 34.7317 40.6287 32.8164 38.266 32.8164C35.9033 32.8164 33.988 34.7317 33.988 37.0944C33.988 39.4571 35.9033 41.3724 38.266 41.3724Z" fill="#474645" stroke="#474645" stroke-width="2.275" stroke-linecap="round" stroke-linejoin="round"/>
<path d="M26.9 50.7773V59.1882C26.9 59.1882 26.017 63.9802 30.582 63.9802H45.382C45.382 63.9802 48.795 63.9022 48.795 59.5022V50.7773" stroke="#474645" stroke-width="2.275" stroke-linecap="round" stroke-linejoin="round"/>
<path d="M38.265 55.9668V63.9808" stroke="#474645" stroke-width="2.275" stroke-linecap="round" stroke-linejoin="round"/>
<path d="M55.178 47.9526C59.846 50.8256 61.345 54.0808 61.345 54.0808C64.682 60.2088 59.185 60.2878 59.185 60.2878H48.8V50.4119C48.8 50.4119 48.633 46.7317 50.7 45.3027L55.178 47.9526Z" fill="#474645" stroke="#474645" stroke-width="2.275" stroke-linecap="round" stroke-linejoin="round"/>
<path d="M20.85 47.9531C16.183 50.8261 14.684 54.0813 14.684 54.0813C11.347 60.2093 16.843 60.2883 16.843 60.2883H26.818V50.4163C26.818 50.4163 26.88 47.2002 25.423 45.4492L20.85 47.9531Z" fill="#474645" stroke="#474645" stroke-width="2.275" stroke-linecap="round" stroke-linejoin="round"/>
<path d="M6.55096 43.0816L13.142 38.6816" stroke="#474645" stroke-width="2.275" stroke-linecap="round" stroke-linejoin="round"/>
<path d="M1.36096 24.6191H9.84596" stroke="#474645" stroke-width="2.275" stroke-linecap="round" stroke-linejoin="round"/>
<path d="M6.55096 5.29297L13.142 10.007" stroke="#474645" stroke-width="2.275" stroke-linecap="round" stroke-linejoin="round"/>
<path d="M69.705 43.0816L63.114 38.6816" stroke="#474645" stroke-width="2.275" stroke-linecap="round" stroke-linejoin="round"/>
<path d="M74.8939 24.6191H66.4089" stroke="#474645" stroke-width="2.275" stroke-linecap="round" stroke-linejoin="round"/>
<path d="M69.705 5.29297L63.114 10.007" stroke="#474645" stroke-width="2.275" stroke-linecap="round" stroke-linejoin="round"/>
<path d="M8.93799 90.5324C8.93799 90.5324 8.93801 78.1544 19.312 80.5524" stroke="#474645" stroke-width="2.275" stroke-linecap="round" stroke-linejoin="round"/>
<path d="M19.312 83.4416C19.312 83.4416 17.867 71.4928 29.685 72.0178" stroke="#474645" stroke-width="2.275" stroke-linecap="round" stroke-linejoin="round"/>
<path d="M68.422 90.5324C68.422 90.5324 68.422 78.1544 58.048 80.5524" stroke="#474645" stroke-width="2.275" stroke-linecap="round" stroke-linejoin="round"/>
<path d="M58.0479 83.4416C58.0479 83.4416 59.4919 71.4928 47.6749 72.0178" stroke="#474645" stroke-width="2.275" stroke-linecap="round" stroke-linejoin="round"/>
</svg>
