<svg width="93" height="95" viewBox="0 0 93 95" fill="none" xmlns="http://www.w3.org/2000/svg">
<path d="M80.5591 18.5845C73.6421 8.52647 59.223 1.27148 46.008 1.27148C38.7658 1.27547 31.6371 3.0707 25.2568 6.49731C18.8765 9.92393 13.4429 14.8755 9.43997 20.9109C5.43703 26.9463 2.9891 33.8782 2.31424 41.0889C1.63937 48.2995 2.75856 55.5652 5.57205 62.2385" stroke="white" stroke-width="2.275" stroke-linecap="round" stroke-linejoin="round"/>
<path d="M69.71 18.5845H80.56V6.34961" stroke="white" stroke-width="2.275" stroke-linecap="round" stroke-linejoin="round"/>
<path d="M10.317 71.5996C17.234 81.6586 31.653 88.9136 44.868 88.9136C48.2056 88.9156 51.5326 88.5381 54.785 87.7886" stroke="white" stroke-width="2.275" stroke-linecap="round" stroke-linejoin="round"/>
<path d="M87.426 55.7842C89.751 46.5196 89.0067 36.7508 85.305 27.9453" stroke="white" stroke-width="2.275" stroke-linecap="round" stroke-linejoin="round"/>
<path d="M21.167 71.5996H10.317V83.8345" stroke="white" stroke-width="2.275" stroke-linecap="round" stroke-linejoin="round"/>
<path d="M39.327 37.8325V28.4175C39.327 28.4175 40.765 22.6175 54.364 22.2725C54.364 22.2725 64.694 22.2286 68.264 27.9456V49.5125C68.264 49.5125 65.183 56.1274 54.781 55.7844" stroke="white" stroke-width="2.275" stroke-linecap="round" stroke-linejoin="round"/>
<path d="M39.5 30.8584C39.5 30.8584 53.185 40.0114 68.091 30.8584" stroke="white" stroke-width="2.275" stroke-linecap="round" stroke-linejoin="round"/>
<path d="M21.2 60.3809V48.9898C21.2 48.9898 22.638 43.1897 36.237 42.8447C36.237 42.8447 46.566 42.8008 50.137 48.5188V59.6248C50.137 59.6248 47.056 66.2397 36.654 65.8967C36.653 65.8997 23.7 66.1919 21.2 60.3809Z" stroke="white" stroke-width="2.275" stroke-linecap="round" stroke-linejoin="round"/>
<path d="M21.37 51.4303C21.37 51.4303 35.056 60.5833 49.962 51.4303L50.136 48.5185C48.3312 46.6711 46.1662 45.2142 43.7752 44.2382C41.3841 43.2621 38.818 42.7877 36.236 42.8444C36.236 42.8444 21.989 44.0114 21.199 48.9894C20.409 53.9674 21.37 51.4303 21.37 51.4303Z" fill="white" stroke="white" stroke-width="2.275" stroke-linecap="round" stroke-linejoin="round"/>
<path d="M68.093 41.1445C68.093 41.1445 64.519 45.2446 54.582 45.2446" stroke="white" stroke-width="2.275" stroke-linecap="round" stroke-linejoin="round"/>
<path d="M63.909 93.4466L87.096 65.7266" stroke="white" stroke-width="2.275" stroke-linecap="round" stroke-linejoin="round"/>
<path d="M66.176 78.2792C69.546 78.2792 72.278 75.5472 72.278 72.1772C72.278 68.8072 69.546 66.0752 66.176 66.0752C62.8059 66.0752 60.074 68.8072 60.074 72.1772C60.074 75.5472 62.8059 78.2792 66.176 78.2792Z" stroke="white" stroke-width="2.275" stroke-linecap="round" stroke-linejoin="round"/>
<path d="M85.436 92.8817C88.806 92.8817 91.538 90.1498 91.538 86.7797C91.538 83.4097 88.806 80.6777 85.436 80.6777C82.0659 80.6777 79.334 83.4097 79.334 86.7797C79.334 90.1498 82.0659 92.8817 85.436 92.8817Z" stroke="white" stroke-width="2.275" stroke-linecap="round" stroke-linejoin="round"/>
</svg>
