<svg width="90" height="88" viewBox="0 0 90 88" fill="none" xmlns="http://www.w3.org/2000/svg">
<path d="M29.1999 64.9147H60.7719C61.072 59.0934 63.3047 53.5383 67.1169 49.1286C71.4814 44.647 73.9722 38.6695 74.081 32.4147C74.081 32.4147 76.3579 2.27467 45.1409 1.61467C45.1409 1.61467 15.8889 1.14978 15.8909 31.3288C15.8909 31.3288 15.581 41.5438 24.557 50.8288C27.7637 54.8045 29.4141 59.8114 29.1999 64.9147Z" stroke="white" stroke-width="2.275" stroke-linecap="round" stroke-linejoin="round"/>
<path d="M45.144 11.8311C45.144 11.8311 63.87 13.0689 63.87 30.7119" stroke="white" stroke-width="2.275" stroke-linecap="round" stroke-linejoin="round"/>
<path d="M3.04797 15.0811L7.61297 19.6461" stroke="white" stroke-width="2.275" stroke-linecap="round" stroke-linejoin="round"/>
<path d="M1.65503 33.498H9.23803" stroke="white" stroke-width="2.275" stroke-linecap="round" stroke-linejoin="round"/>
<path d="M2.73901 51.6048L8.00101 46.3428" stroke="white" stroke-width="2.275" stroke-linecap="round" stroke-linejoin="round"/>
<path d="M87.238 15.0811L82.673 19.6461" stroke="white" stroke-width="2.275" stroke-linecap="round" stroke-linejoin="round"/>
<path d="M88.631 33.498H81.048" stroke="white" stroke-width="2.275" stroke-linecap="round" stroke-linejoin="round"/>
<path d="M87.548 51.6048L82.286 46.3428" stroke="white" stroke-width="2.275" stroke-linecap="round" stroke-linejoin="round"/>
<path d="M29.203 64.915H60.774V67.635C60.774 69.4791 60.0415 71.2476 58.7375 72.5516C57.4336 73.8555 55.6651 74.588 53.821 74.588H36.156C34.312 74.588 32.5434 73.8555 31.2395 72.5516C29.9355 71.2476 29.203 69.4791 29.203 67.635V64.915Z" stroke="white" stroke-width="2.275" stroke-linecap="round" stroke-linejoin="round"/>
<path d="M33.8311 74.5869C33.8311 74.6979 33.823 74.8079 33.823 74.9189C33.823 77.9704 35.0352 80.897 37.1929 83.0547C39.3506 85.2124 42.277 86.4246 45.3285 86.4246C48.3799 86.4246 51.3064 85.2124 53.4641 83.0547C55.6218 80.897 56.834 77.9704 56.834 74.9189C56.834 74.8079 56.8291 74.6979 56.826 74.5869H33.8311Z" fill="white" stroke="white" stroke-width="2.275" stroke-linecap="round" stroke-linejoin="round"/>
</svg>
