<svg class="svg" width="105" height="86" viewBox="0 0 105 86" fill="none" xmlns="http://www.w3.org/2000/svg">
<path d="M79.407 39.874C87.2881 39.874 93.677 33.4851 93.677 25.604C93.677 17.7229 87.2881 11.334 79.407 11.334C71.5259 11.334 65.137 17.7229 65.137 25.604C65.137 33.4851 71.5259 39.874 79.407 39.874Z" stroke="#474645" stroke-width="2.275" stroke-linecap="round" stroke-linejoin="round"/>
<path d="M75.1579 24.6787C75.0812 24.6789 75.0052 24.6639 74.9343 24.6345C74.8634 24.6052 74.7991 24.5622 74.7449 24.5078L71.6519 21.4148C71.5978 21.3606 71.5548 21.2964 71.5255 21.2256C71.4962 21.1548 71.4811 21.0788 71.4811 21.0022C71.4811 20.9256 71.4962 20.8498 71.5255 20.7791C71.5548 20.7083 71.5978 20.644 71.6519 20.5898C71.7061 20.5357 71.7704 20.4927 71.8412 20.4634C71.912 20.4341 71.9878 20.4189 72.0645 20.4189C72.1411 20.4189 72.2169 20.4341 72.2877 20.4634C72.3585 20.4927 72.4228 20.5357 72.4769 20.5898L75.5699 23.6829C75.6531 23.7641 75.7101 23.8683 75.7336 23.9822C75.757 24.0961 75.7459 24.2143 75.7016 24.3218C75.6573 24.4293 75.5819 24.5211 75.485 24.5854C75.3881 24.6498 75.2742 24.6838 75.1579 24.6829V24.6787Z" fill="#474645"/>
<path d="M72.0649 24.679C71.9486 24.6801 71.8345 24.6465 71.7375 24.5823C71.6405 24.518 71.5649 24.4262 71.5205 24.3186C71.476 24.2111 71.4648 24.0927 71.4883 23.9788C71.5117 23.8648 71.5687 23.7603 71.6519 23.679L74.7449 20.5859C74.8543 20.4765 75.0027 20.415 75.1574 20.415C75.3121 20.415 75.4605 20.4765 75.5699 20.5859C75.6793 20.6953 75.7408 20.8438 75.7408 20.9985C75.7408 21.1533 75.6793 21.3015 75.5699 21.4109L72.4769 24.5039C72.4232 24.5589 72.3592 24.6028 72.2885 24.6328C72.2177 24.6629 72.1418 24.6785 72.0649 24.679Z" fill="#474645"/>
<path d="M87.042 24.6787C86.9653 24.6788 86.8893 24.6639 86.8184 24.6345C86.7476 24.6052 86.6832 24.5621 86.629 24.5078L83.536 21.4148C83.4266 21.3054 83.3651 21.1569 83.3651 21.0022C83.3651 20.8475 83.4266 20.6992 83.536 20.5898C83.6454 20.4804 83.7937 20.4189 83.9485 20.4189C84.1032 20.4189 84.2516 20.4804 84.361 20.5898L87.455 23.6829C87.5382 23.7642 87.5952 23.8684 87.6186 23.9824C87.642 24.0964 87.6308 24.2147 87.5864 24.3223C87.542 24.4298 87.4664 24.5217 87.3694 24.5859C87.2724 24.6502 87.1583 24.684 87.042 24.6829V24.6787Z" fill="#474645"/>
<path d="M83.949 24.6793C83.8326 24.6804 83.7186 24.6468 83.6215 24.5826C83.5245 24.5184 83.4489 24.4265 83.4045 24.3189C83.3601 24.2114 83.3489 24.0931 83.3723 23.9791C83.3957 23.8651 83.4527 23.7606 83.536 23.6793L86.6289 20.5862C86.7395 20.4823 86.8861 20.4255 87.0379 20.4278C87.1896 20.4301 87.3344 20.4912 87.4418 20.5985C87.5491 20.7057 87.6106 20.8505 87.613 21.0023C87.6155 21.154 87.5588 21.3006 87.4549 21.4112L84.3609 24.5042C84.3072 24.5592 84.2432 24.6031 84.1725 24.6331C84.1017 24.6632 84.0258 24.6788 83.949 24.6793Z" fill="#474645"/>
<path d="M42.9919 39.874C50.873 39.874 57.2619 33.4851 57.2619 25.604C57.2619 17.7229 50.873 11.334 42.9919 11.334C35.1108 11.334 28.7219 17.7229 28.7219 25.604C28.7219 33.4851 35.1108 39.874 42.9919 39.874Z" stroke="#474645" stroke-width="2.275" stroke-linecap="round" stroke-linejoin="round"/>
<path class="carita" d="M37.8149 28.0006C41.0282 29.0559 44.4983 29.0325 47.6969 27.9337C48.8351 27.5519 49.9034 26.9871 50.8599 26.2616C51.1599 26.0336 51.6979 25.5536 52.0459 25.9996C52.2459 26.2556 52.077 26.6816 51.946 26.9266C51.5652 27.4937 51.0695 27.9744 50.4909 28.3375C49.7813 28.8527 49.0108 29.2783 48.1969 29.6046C46.8142 30.1564 45.3513 30.4806 43.8649 30.5646C43.3079 30.6026 42.7479 30.6126 42.1889 30.5956H42.1409C41.3458 30.5701 40.5535 30.4883 39.7699 30.3507C38.2717 30.0896 36.8286 29.5762 35.502 28.8326C35.358 28.7506 35.2149 28.6676 35.0729 28.5816C34.5818 28.3357 34.167 27.9606 33.8729 27.4967C33.7635 27.3171 33.7277 27.102 33.773 26.8966C33.8283 26.7425 33.9403 26.6154 34.0862 26.5411C34.232 26.4668 34.4008 26.4509 34.558 26.4967C35.0374 26.641 35.492 26.8577 35.9059 27.1395C36.3705 27.3991 36.8515 27.628 37.346 27.8246C37.5006 27.8899 37.6569 27.9486 37.8149 28.0006Z" fill="#474645"/>
<path class="carita" d="M83.4859 30.815C82.2395 30.2926 80.8999 30.0293 79.5486 30.0408C78.1972 30.0523 76.8623 30.3386 75.625 30.8821C74.6919 31.2824 73.8394 31.8488 73.109 32.554C72.874 32.782 72.4419 33.2619 72.1659 32.8159C72.1134 32.6643 72.0938 32.5034 72.1083 32.3435C72.1227 32.1837 72.171 32.0287 72.25 31.8889C72.5338 31.3436 72.9278 30.8633 73.407 30.4781C73.9542 29.9743 74.5679 29.5479 75.2309 29.211C76.305 28.6666 77.4762 28.3404 78.677 28.251C79.1202 28.2131 79.5654 28.2027 80.01 28.22H80.048C80.6829 28.246 81.3144 28.3281 81.9349 28.4651C83.1562 28.7396 84.3102 29.2555 85.329 29.9829C85.444 30.0649 85.558 30.1479 85.67 30.2339C86.0814 30.5019 86.4119 30.8773 86.626 31.3191C86.7126 31.5065 86.7392 31.7159 86.7019 31.919C86.6904 31.9878 86.6646 32.0536 86.6261 32.1118C86.5877 32.1701 86.5374 32.2197 86.4787 32.2574C86.4199 32.295 86.3538 32.32 86.2848 32.3306C86.2158 32.3412 86.1453 32.3374 86.078 32.3191C85.686 32.1686 85.3233 31.9509 85.006 31.6761C84.6414 31.4198 84.2583 31.1908 83.8599 30.991C83.7359 30.927 83.6109 30.869 83.4859 30.815Z" fill="#474645"/>
<path d="M39.3998 22.4247C39.5804 21.6604 39.1073 20.8944 38.343 20.7137C37.5787 20.533 36.8127 21.0061 36.6321 21.7704C36.4514 22.5347 36.9245 23.3008 37.6888 23.4814C38.4531 23.6621 39.2191 23.189 39.3998 22.4247Z" fill="#474645"/>
<path d="M49.3538 22.4247C49.5344 21.6604 49.0613 20.8944 48.297 20.7137C47.5327 20.533 46.7667 21.0061 46.586 21.7704C46.4054 22.5347 46.8785 23.3008 47.6428 23.4814C48.4071 23.6621 49.1731 23.189 49.3538 22.4247Z" fill="#474645"/>
<path d="M97.05 49.6067H44.759L32.39 62.8586V49.6067H25.739C24.0469 49.6067 22.4241 48.9345 21.2277 47.738C20.0312 46.5416 19.359 44.9189 19.359 43.2268V7.55786C19.359 5.86578 20.0312 4.24287 21.2277 3.04639C22.4241 1.8499 24.0469 1.17773 25.739 1.17773H97.05C97.8879 1.1776 98.7176 1.34252 99.4918 1.66309C100.266 1.98365 100.969 2.45369 101.562 3.04614C102.155 3.63859 102.625 4.34184 102.945 5.11597C103.266 5.89009 103.431 6.71994 103.431 7.55786V43.2268C103.431 44.0647 103.266 44.8943 102.945 45.6685C102.625 46.4426 102.155 47.1461 101.562 47.7385C100.969 48.331 100.266 48.8008 99.4918 49.1213C98.7176 49.4419 97.8879 49.6068 97.05 49.6067Z" stroke="#474645" stroke-width="2.275" stroke-linecap="round" stroke-linejoin="round"/>
<path class="cabeza" d="M13.695 69.3028C18.264 69.3028 21.968 65.5989 21.968 61.0298C21.968 56.4608 18.264 52.7568 13.695 52.7568C9.12595 52.7568 5.422 56.4608 5.422 61.0298C5.422 65.5989 9.12595 69.3028 13.695 69.3028Z" fill="#474645" stroke="#474645" stroke-width="2.275" stroke-linecap="round" stroke-linejoin="round"/>
<path d="M25.835 84.4717C25.4807 81.5006 24.0493 78.7627 21.8118 76.7761C19.5743 74.7896 16.6861 73.6924 13.694 73.6924C10.7019 73.6924 7.8136 74.7896 5.57611 76.7761C3.33862 78.7627 1.90723 81.5006 1.55298 84.4717" stroke="#474645" stroke-width="2.275" stroke-linecap="round" stroke-linejoin="round"/>
</svg>
