<svg width="85" height="88" viewBox="0 0 85 88" fill="none" xmlns="http://www.w3.org/2000/svg">
<path d="M42.508 58.3266C47.9668 58.3266 52.392 53.9014 52.392 48.4426C52.392 42.9838 47.9668 38.5586 42.508 38.5586C37.0492 38.5586 32.624 42.9838 32.624 48.4426C32.624 53.9014 37.0492 58.3266 42.508 58.3266Z" stroke="#474645" stroke-width="2.275" stroke-linecap="round" stroke-linejoin="round"/>
<path d="M42.768 28.3631C50.0371 28.3631 55.93 22.4702 55.93 15.2011C55.93 7.93189 50.0371 2.03906 42.768 2.03906C35.4988 2.03906 29.606 7.93189 29.606 15.2011C29.606 22.4702 35.4988 28.3631 42.768 28.3631Z" fill="#474645" stroke="#474645" stroke-width="2.275" stroke-linecap="round" stroke-linejoin="round"/>
<path d="M36.577 15.1997L40.739 18.7898L48.022 10.0498" stroke="white" stroke-width="2.275" stroke-linecap="round" stroke-linejoin="round"/>
<path d="M23.1 86.6804C23.1 81.5339 25.1444 76.5981 28.7836 72.959C32.4227 69.3198 37.3585 67.2754 42.505 67.2754C47.6507 67.2767 52.5851 69.3219 56.2231 72.9609C59.8612 76.5999 61.905 81.5348 61.905 86.6804H23.1Z" stroke="#474645" stroke-width="2.275" stroke-linecap="round" stroke-linejoin="round"/>
<path d="M17.342 57.4332C21.641 57.4332 25.126 53.9482 25.126 49.6492C25.126 45.3502 21.641 41.8652 17.342 41.8652C13.043 41.8652 9.55798 45.3502 9.55798 49.6492C9.55798 53.9482 13.043 57.4332 17.342 57.4332Z" stroke="#474645" stroke-width="2.275" stroke-linecap="round" stroke-linejoin="round"/>
<path d="M19.7271 79.7625H2.06006C2.06006 75.7094 3.67008 71.8225 6.53601 68.9566C9.40194 66.0906 13.289 64.4805 17.342 64.4805C20.8462 64.4751 24.2448 65.6792 26.964 67.8894" stroke="#474645" stroke-width="2.275" stroke-linecap="round" stroke-linejoin="round"/>
<path d="M67.674 57.4332C71.973 57.4332 75.458 53.9482 75.458 49.6492C75.458 45.3502 71.973 41.8652 67.674 41.8652C63.375 41.8652 59.89 45.3502 59.89 49.6492C59.89 53.9482 63.375 57.4332 67.674 57.4332Z" stroke="#474645" stroke-width="2.275" stroke-linecap="round" stroke-linejoin="round"/>
<path d="M65.2889 79.7625H82.9561C82.9561 75.7094 81.3459 71.8225 78.48 68.9566C75.614 66.0906 71.727 64.4805 67.674 64.4805C64.1698 64.4751 60.7712 65.6792 58.052 67.8894" stroke="#474645" stroke-width="2.275" stroke-linecap="round" stroke-linejoin="round"/>
</svg>
