<svg width="67" height="98" viewBox="0 0 67 98" fill="none" xmlns="http://www.w3.org/2000/svg">
<path d="M2.01701 96.6174V86.9385C2.01701 86.9385 1.30101 72.6384 16.15 71.5034C16.15 71.5034 25.461 72.6354 26.216 62.1914" stroke="white" stroke-width="2.275" stroke-linecap="round" stroke-linejoin="round"/>
<path d="M24.3831 67.9688C24.3831 67.9688 29.7401 72.1318 36.2831 70.8738" stroke="white" stroke-width="2.275" stroke-linecap="round" stroke-linejoin="round"/>
<path d="M42.071 66.9727C42.071 66.9727 43.455 71.6287 50.25 71.7537C50.25 71.7537 64.218 72.0058 64.973 86.3538V96.6199" stroke="white" stroke-width="2.275" stroke-linecap="round" stroke-linejoin="round"/>
<path d="M44.965 91.2588H50.627" stroke="white" stroke-width="2.275" stroke-linecap="round" stroke-linejoin="round"/>
<path d="M13.507 28.9709C13.507 28.9709 14.388 20.415 22.316 20.415H44.336C44.336 20.415 53.522 20.5399 53.522 28.9709V43.79C53.522 43.79 53.9 63.072 34.522 63.072C34.522 63.072 13.508 63.894 13.508 43.79L13.507 28.9709Z" stroke="white" stroke-width="2.275" stroke-linecap="round" stroke-linejoin="round"/>
<path d="M13.507 43.7901C13.507 43.7901 8.47405 43.19 8.47405 36.39C8.47405 36.39 6.58606 15.502 17.0311 7.57501C17.0311 7.57501 30.6201 -3.37293 49.1181 5.68707C49.1181 5.68707 46.224 6.06501 44.965 7.57501C44.965 7.57501 57.1711 8.45615 62.7081 17.7671C62.7081 17.7671 54.0261 23.8272 53.5231 30.4962C53.5231 30.4962 54.2141 20.41 44.336 20.41H22.3161C22.3161 20.41 13.507 19.1671 13.507 31.4761V43.7901Z" fill="white" stroke="white" stroke-width="2.275" stroke-linecap="round" stroke-linejoin="round"/>
</svg>
