<svg width="95" height="99" viewBox="0 0 95 99" fill="none" xmlns="http://www.w3.org/2000/svg">
<path d="M1.35901 97.4775H93.658" stroke="#474645" stroke-width="2.275" stroke-linecap="round" stroke-linejoin="round"/>
<path d="M77.5081 46.6133V87.8193H69.108V46.6133" stroke="#474645" stroke-width="2.275" stroke-linecap="round" stroke-linejoin="round"/>
<path d="M26.1311 78.4258H16.7371V87.8198H26.1311V78.4258Z" stroke="#474645" stroke-width="2.275" stroke-linecap="round" stroke-linejoin="round"/>
<path d="M43.216 71.501H33.822V87.819H43.216V71.501Z" stroke="#474645" stroke-width="2.275" stroke-linecap="round" stroke-linejoin="round"/>
<path d="M60.29 61.0225H50.896V88.0515H60.29V61.0225Z" fill="#474645" stroke="#474645" stroke-width="2.275" stroke-linecap="round" stroke-linejoin="round"/>
<path d="M64.05 48.957H57.442C57.442 48.957 57.98 41.544 63.55 36.915" stroke="#474645" stroke-width="2.275" stroke-linecap="round" stroke-linejoin="round"/>
<path d="M81.7309 41.053C88.3899 16.303 73.254 1.91992 73.254 1.91992C73.254 1.91992 58.039 16.303 64.698 41.053" stroke="#474645" stroke-width="2.275" stroke-linecap="round" stroke-linejoin="round"/>
<path d="M82.3781 48.957H88.9871C88.9871 48.957 88.459 41.677 83.028 37.041" stroke="#474645" stroke-width="2.275" stroke-linecap="round" stroke-linejoin="round"/>
<path d="M66.376 12.4414H80.092" stroke="#474645" stroke-width="2.275" stroke-linecap="round" stroke-linejoin="round"/>
<path d="M73.215 22.1024C74.6521 22.1024 75.817 20.9375 75.817 19.5004C75.817 18.0634 74.6521 16.8984 73.215 16.8984C71.778 16.8984 70.613 18.0634 70.613 19.5004C70.613 20.9375 71.778 22.1024 73.215 22.1024Z" fill="#474746"/>
<path d="M73.215 31.4149C74.6521 31.4149 75.817 30.25 75.817 28.8129C75.817 27.3759 74.6521 26.2109 73.215 26.2109C71.778 26.2109 70.613 27.3759 70.613 28.8129C70.613 30.25 71.778 31.4149 73.215 31.4149Z" fill="#474746"/>
<path d="M73.215 40.7284C74.6521 40.7284 75.817 39.5635 75.817 38.1264C75.817 36.6894 74.6521 35.5244 73.215 35.5244C71.778 35.5244 70.613 36.6894 70.613 38.1264C70.613 39.5635 71.778 40.7284 73.215 40.7284Z" fill="#474746"/>
</svg>
