<svg width="94" height="84" viewBox="0 0 94 84" fill="none" xmlns="http://www.w3.org/2000/svg">
<path d="M37.186 23.3207H13.92C13.92 23.3207 9.46503 22.8208 9.46503 27.7768V73.9767" stroke="white" stroke-width="2.275" stroke-linecap="round" stroke-linejoin="round"/>
<path d="M1.87402 74.4746H39.166L42.466 76.2896H50.717L54.017 74.4746H92.464C92.464 74.4746 91.639 82.2295 83.718 82.2295H9.46503C7.4927 82.0282 5.65319 81.1421 4.26636 79.7253C2.87953 78.3086 2.03307 76.4508 1.87402 74.4746Z" fill="white" stroke="white" stroke-width="2.275" stroke-linecap="round" stroke-linejoin="round"/>
<path d="M29.1 56.4875C33.5652 56.4875 37.185 52.0551 37.185 46.5875C37.185 41.1199 33.5652 36.6875 29.1 36.6875C24.6348 36.6875 21.015 41.1199 21.015 46.5875C21.015 52.0551 24.6348 56.4875 29.1 56.4875Z" stroke="white" stroke-width="2.275" stroke-linecap="round" stroke-linejoin="round"/>
<path d="M41.311 68.2002C41.311 68.2002 43.951 56.4854 29.101 56.4854C14.251 56.4854 16.89 68.2002 16.89 68.2002" stroke="white" stroke-width="2.275" stroke-linecap="round" stroke-linejoin="round"/>
<path d="M83.993 47.8535V73.9795" stroke="white" stroke-width="2.275" stroke-linecap="round" stroke-linejoin="round"/>
<path d="M58.622 21.1263C61.8363 21.1263 64.442 18.5206 64.442 15.3063C64.442 12.092 61.8363 9.48633 58.622 9.48633C55.4077 9.48633 52.802 12.092 52.802 15.3063C52.802 18.5206 55.4077 21.1263 58.622 21.1263Z" stroke="white" stroke-width="2.275" stroke-linecap="round" stroke-linejoin="round"/>
<path d="M76.846 35.1937C80.0603 35.1937 82.666 32.588 82.666 29.3737C82.666 26.1594 80.0603 23.5537 76.846 23.5537C73.6317 23.5537 71.026 26.1594 71.026 29.3737C71.026 32.588 73.6317 35.1937 76.846 35.1937Z" stroke="white" stroke-width="2.275" stroke-linecap="round" stroke-linejoin="round"/>
<path d="M79.066 8.78418L56.234 35.7462" stroke="white" stroke-width="2.275" stroke-linecap="round" stroke-linejoin="round"/>
<path d="M42.8 6.70001C42.8 6.70001 42.352 1.47696 48.47 1.77496H86.67C86.67 1.77496 92.458 1.17501 92.458 6.70001V35.7501C92.458 35.7501 92.6391 42.962 85.0291 42.962H64.435L52.796 54.1541V43.1111H48.468C48.468 43.1111 42.79 43.558 42.79 36.692L42.8 6.70001Z" stroke="white" stroke-width="2.275" stroke-linecap="round" stroke-linejoin="round"/>
</svg>
