<svg width="89" height="90" viewBox="0 0 89 90" fill="none" xmlns="http://www.w3.org/2000/svg">
<path d="M37.913 50.3721H3.80203C2.73998 50.3721 1.87903 51.233 1.87903 52.2951V54.8021C1.87903 55.8641 2.73998 56.7251 3.80203 56.7251H37.913C38.9751 56.7251 39.836 55.8641 39.836 54.8021V52.2951C39.836 51.233 38.9751 50.3721 37.913 50.3721Z" stroke="white" stroke-width="2.275" stroke-linecap="round" stroke-linejoin="round"/>
<path d="M36.308 25.1035H5.40698V50.3735H36.308V25.1035Z" stroke="white" stroke-width="2.275" stroke-linecap="round" stroke-linejoin="round"/>
<path d="M18.692 3.08521L3.16403 20.2192C2.78422 20.6384 2.53424 21.1588 2.44442 21.7173C2.35461 22.2758 2.42882 22.8484 2.65804 23.3655C2.88727 23.8826 3.26168 24.3219 3.7358 24.6304C4.20993 24.9389 4.76336 25.1032 5.329 25.1033H36.385C36.9507 25.1032 37.5041 24.9389 37.9782 24.6304C38.4524 24.3219 38.8268 23.8826 39.056 23.3655C39.2852 22.8484 39.3594 22.2758 39.2696 21.7173C39.1798 21.1588 38.9298 20.6384 38.55 20.2192L23.022 3.08521C22.748 2.78315 22.4138 2.5419 22.041 2.37671C21.6681 2.21152 21.2648 2.12598 20.857 2.12598C20.4492 2.12598 20.0459 2.21152 19.6731 2.37671C19.3002 2.5419 18.966 2.78315 18.692 3.08521Z" fill="white" stroke="white" stroke-width="2.275" stroke-linecap="round" stroke-linejoin="round"/>
<path d="M20.857 44.0992C24.4877 44.0992 27.431 41.1559 27.431 37.5252C27.431 33.8945 24.4877 30.9512 20.857 30.9512C17.2263 30.9512 14.283 33.8945 14.283 37.5252C14.283 41.1559 17.2263 44.0992 20.857 44.0992Z" stroke="white" stroke-width="2.275" stroke-linecap="round" stroke-linejoin="round"/>
<path d="M5.72699 56.7266H12.514V85.8626C12.514 86.1323 12.4609 86.3994 12.3576 86.6486C12.2544 86.8978 12.1031 87.1242 11.9124 87.315C11.7217 87.5057 11.4952 87.657 11.246 87.7602C10.9968 87.8634 10.7297 87.9166 10.46 87.9166H7.78099C7.51125 87.9166 7.24416 87.8634 6.99496 87.7602C6.74576 87.657 6.51932 87.5057 6.32859 87.315C6.13786 87.1242 5.98656 86.8978 5.88334 86.6486C5.78012 86.3994 5.72699 86.1323 5.72699 85.8626V56.7266Z" stroke="white" stroke-width="2.275" stroke-linecap="round" stroke-linejoin="round"/>
<path d="M29.201 56.7266H35.988V85.8626C35.988 86.1323 35.9349 86.3994 35.8316 86.6486C35.7284 86.8978 35.5771 87.1242 35.3864 87.315C35.1957 87.5057 34.9692 87.657 34.72 87.7602C34.4708 87.8634 34.2037 87.9166 33.934 87.9166H31.255C30.9853 87.9166 30.7182 87.8634 30.469 87.7602C30.2198 87.657 29.9933 87.5057 29.8026 87.315C29.6119 87.1242 29.4606 86.8978 29.3573 86.6486C29.2541 86.3994 29.201 86.1323 29.201 85.8626V56.7266Z" stroke="white" stroke-width="2.275" stroke-linecap="round" stroke-linejoin="round"/>
<path d="M12.513 64.668H29.201" stroke="white" stroke-width="2.275" stroke-linecap="round" stroke-linejoin="round"/>
<path d="M12.513 72.3213H29.201" stroke="white" stroke-width="2.275" stroke-linecap="round" stroke-linejoin="round"/>
<path d="M12.513 79.9746H29.201" stroke="white" stroke-width="2.275" stroke-linecap="round" stroke-linejoin="round"/>
<path d="M36.308 64.09C43.978 62.479 49.569 70.07 54.19 74.902C59.4807 80.4094 66.1709 84.3723 73.543 86.3659C76.4349 87.155 79.4001 87.646 82.392 87.831C82.8448 87.8545 83.2976 87.7853 83.7228 87.6278C84.1479 87.4703 84.5365 87.2278 84.8647 86.9149C85.1929 86.6021 85.4538 86.2256 85.6315 85.8085C85.8091 85.3914 85.8998 84.9423 85.898 84.4889V70.7108C85.8849 69.903 85.5846 69.1262 85.0508 68.5197C84.517 67.9131 83.7846 67.5164 82.985 67.4008C71.603 65.4208 69.41 60.2009 63.651 54.9699C57.281 49.1839 48.367 43.4889 39.57 43.0309C38.4813 42.9707 37.3893 43.0113 36.308 43.152" stroke="white" stroke-width="2.275" stroke-linecap="round" stroke-linejoin="round"/>
<path d="M59.618 51.5619H81.618C83.0586 51.5619 84.4403 50.9896 85.459 49.9709C86.4777 48.9522 87.05 47.5705 87.05 46.1298C87.05 44.6892 86.4777 43.3077 85.459 42.289C84.4403 41.2703 83.0586 40.6979 81.618 40.6979H78.629C78.7656 39.8868 78.8324 39.0654 78.829 38.2428C78.8258 34.3884 77.3679 30.6773 74.7467 27.8512C72.1256 25.0252 68.5343 23.2927 64.691 22.9999C64.7 22.7659 64.729 22.536 64.729 22.3C64.729 11.769 55.742 3.23186 44.657 3.23186C41.7631 3.21338 38.8981 3.80879 36.2512 4.97869C33.6042 6.14859 31.2354 7.86648 29.301 10.019" stroke="white" stroke-width="2.275" stroke-linecap="round" stroke-linejoin="round"/>
</svg>
