<svg id="Capa_1_copia" data-name="Capa 1 copia" xmlns="http://www.w3.org/2000/svg" viewBox="0 0 104.15 85.57"><defs><style>.cls-1,.cls-3{fill:none;}.cls-1,.cls-2{stroke:#fff;}.cls-1,.cls-2,.cls-3{stroke-linecap:round;stroke-linejoin:round;}.cls-1{stroke-width:2.27px;}.cls-2{fill:#fff;}.cls-2,.cls-3{stroke-width:2.41px;}.cls-3{stroke:#595958;}</style></defs><polyline class="cls-1" points="35.06 18.2 44.22 24.47 27.05 45.58 18.57 38.16"/><polyline class="cls-1" points="102.91 37.03 94.36 44.29 78.48 24.32 88.47 18.12"/><line class="cls-1" x1="39.68" y1="5.71" x2="51.48" y2="17.67"/><line class="cls-1" x1="60.78" y1="0.87" x2="60.78" y2="18.04"/><line class="cls-1" x1="82.11" y1="5.64" x2="69.93" y2="17.82"/><line class="cls-1" x1="65.02" y1="71.6" x2="69.63" y2="75.91"/><line class="cls-1" x1="68.19" y1="62.14" x2="75.61" y2="69.56"/><line class="cls-1" x1="70.61" y1="52.16" x2="81.88" y2="63.5"/><path class="cls-1" d="M47.09,46.18c3.71,2.12,5.82-1.51,5.82-1.51L58,36.05l9.31.68,19.28,19a10.21,10.21,0,0,1,1.79,1.87l6-13.29-15.89-20-13.24-.15-12,2.8L45.58,39.75C43.08,44.22,47.09,46.18,47.09,46.18Z"/><path class="cls-1" d="M43.64,61.66l-3.13,3.13a4.18,4.18,0,0,1-5.9-.25h0a4.19,4.19,0,0,1-.25-5.91l3.13-3.13a4.19,4.19,0,0,1,5.91.25h0A4.18,4.18,0,0,1,43.64,61.66Z"/><path class="cls-1" d="M62.31,80.32l-3.13,3.13a4.19,4.19,0,0,1-5.91-.25h0A4.18,4.18,0,0,1,53,77.3l3.13-3.13a4.18,4.18,0,0,1,5.91.24h0A4.19,4.19,0,0,1,62.31,80.32Z"/><path class="cls-1" d="M50.85,66.78,46,71.63a4.19,4.19,0,0,1-5.91-.25h0a4.2,4.2,0,0,1-.24-5.91l4.85-4.85a4.19,4.19,0,0,1,5.91.25h0A4.18,4.18,0,0,1,50.85,66.78Z"/><path class="cls-1" d="M57.25,73l-5,5a4.3,4.3,0,0,1-6.06-.25h0A4.3,4.3,0,0,1,46,71.69l5-5A4.28,4.28,0,0,1,57,67h0A4.29,4.29,0,0,1,57.25,73Z"/><path class="cls-1" d="M86.57,55.71l-19.28-19L58,36.05l-5.07,8.62s-2.11,3.63-5.82,1.51c0,0-4-2-1.51-6.43L53.22,27l-9-2.5L27,45.58l8.48,11L36,57l1.53-1.53a4.37,4.37,0,0,1,6.15,6.16l-1.29,1.28,0,0,2.33-2.34a4.19,4.19,0,0,1,5.91.25h0a4.18,4.18,0,0,1,.24,5.91l-2.09,2.09h0l2.16-2.16A4.48,4.48,0,0,1,57.25,73L55.33,75l0,0,.8-.8a4.18,4.18,0,0,1,5.91.24h0a4.19,4.19,0,0,1,.25,5.91l-.56.56.92.85s3.48,3.11,6.58.53c0,0,2.88-3,.38-6.35,0,0,3.48,2.8,6.13.08,0,0,2.72-2.73-.15-6.43,0,0,3.78,3.1,6.35.3,0,0,3.1-2.65-.08-6.36,0,0,3.64,3.26,6.66-.3C88.54,63.2,91.57,59.87,86.57,55.71Z"/><ellipse class="cls-2" cx="15.28" cy="70.78" rx="14.04" ry="13.83"/><polyline class="cls-3" points="8.68 70.78 13.12 74.55 20.89 65.36"/></svg>