<svg id="Capa_1_copia" data-name="Capa 1 copia" xmlns="http://www.w3.org/2000/svg" viewBox="0 0 104.15 85.57"><defs><style>.cls-1{fill:none;}.cls-1,.cls-3{stroke:#fff;stroke-linecap:round;stroke-linejoin:round;stroke-width:2.27px;}.cls-2,.cls-3{fill:#fff;}</style></defs><circle class="cls-1" cx="78.99" cy="25.56" r="14.27"/><path class="cls-2" d="M74.74,24.64a.58.58,0,0,1-.41-.17l-3.09-3.09a.59.59,0,0,1,0-.83.57.57,0,0,1,.82,0l3.09,3.09a.59.59,0,0,1-.41,1Z"/><path class="cls-2" d="M71.65,24.64a.59.59,0,0,1-.41-1l3.09-3.09a.57.57,0,0,1,.82,0,.59.59,0,0,1,0,.83l-3.09,3.09A.58.58,0,0,1,71.65,24.64Z"/><path class="cls-2" d="M86.63,24.64a.63.63,0,0,1-.42-.17l-3.09-3.09a.59.59,0,1,1,.83-.83L87,23.64a.59.59,0,0,1,0,.83A.6.6,0,0,1,86.63,24.64Z"/><path class="cls-2" d="M83.53,24.64a.59.59,0,0,1-.41-1l3.09-3.09a.59.59,0,1,1,.83.83L84,24.47A.63.63,0,0,1,83.53,24.64Z"/><circle class="cls-1" cx="42.58" cy="25.56" r="14.27"/><path class="cls-2" d="M37.4,28a15.54,15.54,0,0,0,9.88-.06,10.92,10.92,0,0,0,3.16-1.68c.3-.22.84-.7,1.19-.26.2.26,0,.68-.11.93a4.88,4.88,0,0,1-1.45,1.41,11.14,11.14,0,0,1-2.29,1.27,14.08,14.08,0,0,1-4.34,1c-.55,0-1.11,0-1.67,0h-.05a17.16,17.16,0,0,1-2.37-.25,13.3,13.3,0,0,1-4.27-1.52l-.43-.25a3.05,3.05,0,0,1-1.2-1.08.8.8,0,0,1-.09-.6.63.63,0,0,1,.78-.4,5.22,5.22,0,0,1,1.35.64,11.92,11.92,0,0,0,1.44.69Z"/><path class="cls-2" d="M83.07,30.77a10,10,0,0,0-7.86.07,8.51,8.51,0,0,0-2.52,1.67c-.23.23-.66.71-.94.27a1.12,1.12,0,0,1,.08-.93A4.37,4.37,0,0,1,73,30.44a8,8,0,0,1,1.83-1.27,9,9,0,0,1,3.44-1,9.85,9.85,0,0,1,1.33,0h0a11,11,0,0,1,1.89.25A9.21,9.21,0,0,1,84.91,30l.34.25a2.73,2.73,0,0,1,1,1.08,1,1,0,0,1,.08.6.51.51,0,0,1-.63.4,3.61,3.61,0,0,1-1.07-.65A8.9,8.9,0,0,0,83.44,31Z"/><circle class="cls-2" cx="37.6" cy="22.06" r="1.42" transform="translate(7.49 53.58) rotate(-76.72)"/><circle class="cls-2" cx="47.55" cy="22.06" r="1.42" transform="translate(15.16 63.27) rotate(-76.72)"/><path class="cls-1" d="M96.63,49.57H44.34L32,62.82V49.57H25.32a6.38,6.38,0,0,1-6.38-6.38V7.52a6.38,6.38,0,0,1,6.38-6.38H96.63A6.37,6.37,0,0,1,103,7.52V43.19A6.38,6.38,0,0,1,96.63,49.57Z"/><circle class="cls-3" cx="13.28" cy="60.99" r="8.27"/><path class="cls-1" d="M25.42,84.43a12.23,12.23,0,0,0-24.28,0"/></svg>