<svg id="Capa_1_copia" data-name="Capa 1 copia" xmlns="http://www.w3.org/2000/svg" viewBox="0 0 91.79 91.87"><defs>
<style>.cls-1{fill:none;stroke:white;stroke-linecap:round;stroke-linejoin:round;stroke-width:2.28px;}.cls-2{fill:white;}</style></defs><line class="cls-1" x1="18.48" y1="1.14" x2="21.59" y2="11.9"/><line class="cls-1" x1="5.32" y1="10.11" x2="15.13" y2="16.93"/><line class="cls-1" x1="2.69" y1="27.93" x2="13.57" y2="25.3"/><line class="cls-1" x1="76.26" y1="58.68" x2="85.71" y2="58.68"/><line class="cls-1" x1="74.58" y1="67.05" x2="82.6" y2="73.87"/><line class="cls-1" x1="67.88" y1="70.46" x2="67.88" y2="79.85"/><path class="cls-1" d="M49.46,8.55S20.39,4.85,18.72,36.79c0,0-.12,13.63,11,21.41,0,0,6.1,2.87,6.1,9.57v5.14s.12,4.67,4.55,4.67H52.45s5-.12,5-5.27V66.57A9.24,9.24,0,0,1,62,58.68s2-1.32,2.87-1.8"/><rect class="cls-1" x="38.93" y="77.22" width="15.19" height="6.34"/><path class="cls-1" d="M34.87,19.32s-8.5,3.95-8.5,18.06c0,0-.35,11,13.4,17.59,0,0,6.7,2.63,6.7,9.81"/><line class="cls-1" x1="46.35" y1="69.08" x2="46.35" y2="72.31"/><path class="cls-1" d="M39,83.56c0,.12,0,.23,0,.36v4.27a2.53,2.53,0,0,0,2.54,2.54h10.1a2.54,2.54,0,0,0,2.55-2.54V83.92a2.1,2.1,0,0,0,0-.36Z"/><path class="cls-1" d="M30.7,58.77a7.42,7.42,0,0,0-1-.57c-11.12-7.78-11-21.41-11-21.41,0-.26,0-.5.05-.75L16.07,36,15.91,40a2.61,2.61,0,0,1-1.13,2.51A2.5,2.5,0,0,1,12,42L9.06,39.08,4.19,43.57l3,3.14a2.36,2.36,0,0,1,.54,2.7,2.58,2.58,0,0,1-2.18,1.3l-4.24,0-.13,6.68,4.22,0a2.7,2.7,0,0,1,2.23,1.23,2.28,2.28,0,0,1-.47,2.65l-3,3.06,4.77,4.78,3-3.12a2.26,2.26,0,0,1,2.72-.54c1.31.73,1.1,2.68,1.1,2.68L15.89,72l6.55.12.14-4.21A2.49,2.49,0,0,1,24,65.47a2.38,2.38,0,0,1,2.65.82l3,2.84,4.57-4.57-2.86-3.15A2.38,2.38,0,0,1,30.7,58.77Z"/><path class="cls-1" d="M20.6,46.19A8.06,8.06,0,1,0,27,56,25.87,25.87,0,0,1,20.6,46.19Z"/><path class="cls-2" d="M90.85,25.1l-5.22-.91a2.43,2.43,0,0,1-2.14-1.84A2.7,2.7,0,0,1,84.89,20l.13-.08L89,17a1.14,1.14,0,0,0,.25-1.6L83.67,8a1.14,1.14,0,0,0-1.58-.24L77.62,11a.86.86,0,0,0-.14.13,2.37,2.37,0,0,1-2.47.44c-.9-.41-.63-2.1-.61-2.18l.71-5.74a1.13,1.13,0,0,0-.94-1.26l-9-1.52a1.14,1.14,0,0,0-1.31.93l-1,5.5s0,.08,0,.12a2.51,2.51,0,0,1-1.23,2.19,2.24,2.24,0,0,1-2.39-.89L55.83,4.23A1.15,1.15,0,0,0,54.27,4L46.86,9.18a1.12,1.12,0,0,0-.47.74,1.16,1.16,0,0,0,.19.85l3.48,4.85a2.07,2.07,0,0,1,.14,2.44c-.56.93-2.07.81-2.07.81l-5.75-.72a1.14,1.14,0,0,0-1.26,1l-1.41,9a1.16,1.16,0,0,0,.22.86,1.15,1.15,0,0,0,.76.44l5.73.72a2.56,2.56,0,0,1,1.85,1.33,2,2,0,0,1-.65,2.16l-.09.06L42.9,37.28a1.14,1.14,0,0,0-.2,1.59l5.58,7.34a1.15,1.15,0,0,0,.76.44,1.18,1.18,0,0,0,.85-.24l4.64-3.68a1.93,1.93,0,0,1,2.38-.21c1,.75.58,2.63.58,2.65a.45.45,0,0,0,0,.16L57,50.6a1.15,1.15,0,0,0,1,1.23l8.86,1.35H67a1.14,1.14,0,0,0,1.12-.94l1-5.71a2.28,2.28,0,0,1,1.52-2.07,2.05,2.05,0,0,1,2.18,1l.11.16,3.51,4.39a1.13,1.13,0,0,0,1.57.19l7-5.34a1.15,1.15,0,0,0,.25-1.55L81.9,38.55A2.09,2.09,0,0,1,81.61,36a.57.57,0,0,0,.08-.13c.57-.92,2.23-.67,2.27-.67h0l5.31.8a1.18,1.18,0,0,0,.85-.22,1.12,1.12,0,0,0,.44-.75l1.2-8.7A1.14,1.14,0,0,0,90.85,25.1Zm-15.2,2a9.87,9.87,0,1,1-9.87-9.87A9.88,9.88,0,0,1,75.65,27.11Z"/></svg>