<svg width="78" height="89" viewBox="0 0 78 89" fill="none" xmlns="http://www.w3.org/2000/svg">
<path d="M61.208 12.4517C61.208 12.4517 53.376 1.46484 39.702 1.46484C26.028 1.46484 18.195 12.4517 18.195 12.4517C6.97499 27.0617 15.858 40.3857 15.858 40.3857L39.702 76.9688L63.546 40.3857C63.546 40.3857 71.609 28.1127 61.208 12.4517Z" stroke="#474645" stroke-width="2.275" stroke-linecap="round" stroke-linejoin="round"/>
<path d="M39.701 39.8809C45.6618 39.8809 50.494 35.0487 50.494 29.0879C50.494 23.1271 45.6618 18.2949 39.701 18.2949C33.7402 18.2949 28.908 23.1271 28.908 29.0879C28.908 35.0487 33.7402 39.8809 39.701 39.8809Z" stroke="#474645" stroke-width="2.275" stroke-linecap="round" stroke-linejoin="round"/>
<path d="M50.209 60.8481L39.702 76.9692L29.126 60.7441C13.247 62.3221 1.58698 67.5491 1.58698 73.7551C1.58698 81.2111 18.413 87.2551 39.169 87.2551C59.925 87.2551 76.752 81.2111 76.752 73.7551C76.752 67.6801 65.578 62.5421 50.209 60.8481Z" fill="#474645" stroke="#474645" stroke-width="2.275" stroke-linecap="round" stroke-linejoin="round"/>
</svg>
